<svg width="24" height="24" viewBox="0 0 24 24"  xmlns="http://www.w3.org/2000/svg">
<path d="M12 16.5V19.5" stroke="#8E92BC" stroke-linecap="round" stroke-linejoin="round"/>
<path d="M6 20.5H18" stroke="#8E92BC" stroke-linecap="round" stroke-linejoin="round"/>
<path fill-rule="evenodd" clip-rule="evenodd" d="M2 3C1.72386 3 1.5 3.22386 1.5 3.5V16.5C1.5 16.7761 1.72386 17 2 17H22C22.2761 17 22.5 16.7761 22.5 16.5V3.5C22.5 3.22386 22.2761 3 22 3H2ZM13.6667 10.8333C15.0474 10.8333 16.1667 9.71404 16.1667 8.33333C16.1667 7.9111 16.062 7.51331 15.8772 7.1645L14.2917 8.75L13.25 7.70833L14.8355 6.12283C14.4867 5.93801 14.0889 5.83333 13.6667 5.83333C12.286 5.83333 11.1667 6.95262 11.1667 8.33333C11.1667 8.75556 11.2714 9.15335 11.4562 9.50217L7.97475 12.9836C7.89665 13.0617 7.89665 13.1883 7.97475 13.2664L8.73358 14.0252C8.81168 14.1033 8.93832 14.1033 9.01642 14.0252L12.4978 10.5438C12.8466 10.7286 13.2444 10.8333 13.6667 10.8333Z" />
</svg>
