<svg width="18" height="19" viewBox="0 0 18 19" xmlns="http://www.w3.org/2000/svg">
<g id="Frame">
<path id="Subtract" fill-rule="evenodd" clip-rule="evenodd" d="M9.19013 1.42677C9.07277 1.35774 8.92723 1.35774 8.80987 1.42677L2.43487 5.17666C2.32033 5.24403 2.25 5.367 2.25 5.49989V12.9999C2.25 13.1328 2.32033 13.2558 2.43486 13.3231L8.80986 17.0732C8.92722 17.1423 9.07278 17.1423 9.19014 17.0732L15.5651 13.3231C15.6797 13.2558 15.75 13.1328 15.75 12.9999V5.49989C15.75 5.367 15.6797 5.24403 15.5651 5.17666L9.19013 1.42677ZM12.197 7.69156C12.3726 7.58177 12.426 7.35041 12.3162 7.1748C12.2064 6.99918 11.975 6.94582 11.7994 7.05561L8.99761 8.80724L6.199 7.05571C6.02344 6.94583 5.79205 6.99908 5.68217 7.17464C5.5723 7.3502 5.62555 7.58159 5.8011 7.69146L8.62505 9.45885V12.6245C8.62505 12.8316 8.79294 12.9995 9.00005 12.9995C9.20716 12.9995 9.37505 12.8316 9.37505 12.6245V9.45578L12.197 7.69156Z" />
</g>
</svg>
