<svg width="24" height="24" viewBox="0 0 24 24"  xmlns="http://www.w3.org/2000/svg">
<g id="&#229;&#140;&#186;&#229;&#159;&#159;&#231;&#148;&#168;&#232;&#131;&#189;&#230;&#177;&#135;&#230;&#128;&#187;">
<path id="Vector" fill-rule="evenodd" clip-rule="evenodd" d="M4.50435 2.75C4.50435 2.33579 4.84013 2 5.25435 2H21.1152C21.3752 2 21.6166 2.13459 21.7532 2.3557C21.8899 2.57681 21.9023 2.85292 21.786 3.08541L19.4494 7.75869L21.786 12.432C21.9023 12.6645 21.8899 12.9406 21.7532 13.1617C21.6166 13.3828 21.3752 13.5174 21.1152 13.5174H6.00435V21.1152C6.00435 21.1439 6.00274 21.1722 5.99961 21.2H7.7587C8.17291 21.2 8.5087 21.5358 8.5087 21.95C8.5087 22.3642 8.17291 22.7 7.7587 22.7H2.75C2.33579 22.7 2 22.3642 2 21.95C2 21.5358 2.33579 21.2 2.75 21.2H4.50909C4.50596 21.1722 4.50435 21.1439 4.50435 21.1152V2.75Z" />
</g>
</svg>
