<svg width="24" height="24" viewBox="0 0 24 24"  xmlns="http://www.w3.org/2000/svg">
<g id="Frame">
<g id="Group 427320880">
<path id="Subtract" fill-rule="evenodd" clip-rule="evenodd" d="M2.02502 4.40011C2.02502 3.6131 2.66301 2.9751 3.45003 2.9751H20.55C21.3371 2.9751 21.975 3.61311 21.975 4.40011V9.1503C21.975 8.88796 21.7624 8.67529 21.5 8.67529H15.0875H8.91253H2.50003C2.23769 8.67529 2.02502 8.88796 2.02502 9.1503V4.40011ZM2.02502 14.8504V9.1503C2.02502 9.41263 2.23769 9.6253 2.50003 9.6253H8.43752V14.3754H2.50003C2.23769 14.3754 2.02502 14.588 2.02502 14.8504ZM8.90148 21.0253H3.45003C2.66302 21.0253 2.02502 20.3873 2.02502 19.6003V14.8504C2.02502 15.1127 2.23769 15.3254 2.50003 15.3254H8.43752V20.5504C8.43752 20.8091 8.64425 21.0194 8.90148 21.0253ZM8.92357 21.0253H15.0765C14.8192 21.0194 14.6125 20.8091 14.6125 20.5504V15.3254H9.38753V20.5504C9.38753 20.8091 9.18081 21.0194 8.92357 21.0253ZM15.0986 21.0253H20.55C21.3371 21.0253 21.975 20.3873 21.975 19.6003V14.8504V9.1503C21.975 9.41263 21.7624 9.6253 21.5 9.6253H15.5625V14.3754H21.5C21.7624 14.3754 21.975 14.588 21.975 14.8504C21.975 15.1127 21.7624 15.3254 21.5 15.3254H15.5625V20.5504C15.5625 20.8091 15.3558 21.0194 15.0986 21.0253ZM14.6125 14.3754V9.6253H9.38753V14.3754H14.6125Z" />
</g>
</g>
</svg>
