<svg width="24" height="24" viewBox="0 0 24 24"  xmlns="http://www.w3.org/2000/svg">
<g id="Frame">
<path id="Subtract" fill-rule="evenodd" clip-rule="evenodd" d="M1.5 5C1.5 4.17157 2.17157 3.5 3 3.5H21C21.8284 3.5 22.5 4.17157 22.5 5V19C22.5 19.8284 21.8284 20.5 21 20.5H3C2.17157 20.5 1.5 19.8284 1.5 19V5ZM5.62038 8.67461C5.80009 8.46495 6.11574 8.44067 6.3254 8.62038L9.82541 11.6204C9.93623 11.7154 10 11.854 10 12C10 12.146 9.93623 12.2846 9.82541 12.3796L6.3254 15.3796C6.11574 15.5593 5.80009 15.5351 5.62038 15.3254C5.44067 15.1157 5.46495 14.8001 5.67461 14.6204L8.73171 12L5.67461 9.37964C5.46495 9.19993 5.44067 8.88428 5.62038 8.67461ZM11.5 15.5C11.2239 15.5 11 15.7239 11 16C11 16.2761 11.2239 16.5 11.5 16.5H18C18.2761 16.5 18.5 16.2761 18.5 16C18.5 15.7239 18.2761 15.5 18 15.5H11.5Z" />
</g>
</svg>
