<svg width="24" height="24" viewBox="0 0 24 24" xmlns="http://www.w3.org/2000/svg">
<g id="Group 427320879">
<g id="Group 427320876">
<path id="Vector 659 (Stroke)" fill-rule="evenodd" clip-rule="evenodd" d="M3.13635 21.4502C3.13635 21.0716 3.44161 20.7646 3.81817 20.7646H20.1818C20.5584 20.7646 20.8636 21.0716 20.8636 21.4502C20.8636 21.8288 20.5584 22.1357 20.1818 22.1357H3.81817C3.44161 22.1357 3.13635 21.8288 3.13635 21.4502Z" />
    <path id="Subtract" fill-rule="evenodd" clip-rule="evenodd" d="M4.04545 3C3.52232 3 3.02974 3.15077 2.65631 3.4175C2.28376 3.68361 2 4.09222 2 4.59091V15.9545C2 16.4532 2.28376 16.8619 2.65632 17.128C3.02974 17.3947 3.52233 17.5455 4.04545 17.5455H19.9545C20.4777 17.5455 20.9703 17.3947 21.3437 17.128C21.7163 16.8618 22 16.4532 22 15.9545V4.59091C22 4.09222 21.7163 3.68361 21.3437 3.4175C20.9703 3.15077 20.4777 3 19.9545 3H4.04545ZM17.3214 8.32141C17.4989 8.1439 17.4989 7.8561 17.3214 7.67859C17.1439 7.50108 16.8561 7.50108 16.6786 7.67859L13.463 10.8941L11.9401 8.22903C11.8698 8.10602 11.7462 8.02283 11.6058 8.00402C11.4654 7.98522 11.3242 8.03296 11.224 8.13313L7.58768 11.7695C7.41017 11.947 7.41017 12.2348 7.58768 12.4123C7.76519 12.5898 8.05299 12.5898 8.2305 12.4123L11.4461 9.19677L12.969 11.8619C13.0393 11.9849 13.1629 12.0681 13.3033 12.0869C13.4437 12.1057 13.5849 12.058 13.685 11.9578L17.3214 8.32141Z" />
</g>
</g>
</svg>
