<svg width="18" height="19" viewBox="0 0 18 19" xmlns="http://www.w3.org/2000/svg">
<g id="Frame">
<path id="Vector" d="M9 13.125V15.375" stroke="#8D9094" stroke-width="0.75" stroke-linecap="round" stroke-linejoin="round"/>
<path id="Subtract" fill-rule="evenodd" clip-rule="evenodd" d="M1.5 3C1.29289 3 1.125 3.16789 1.125 3.375V13.125C1.125 13.3321 1.29289 13.5 1.5 13.5H16.5C16.7071 13.5 16.875 13.3321 16.875 13.125V3.375C16.875 3.16789 16.7071 3 16.5 3H1.5ZM12.375 6C12.375 5.79289 12.2071 5.625 12 5.625C11.7929 5.625 11.625 5.79289 11.625 6V10.5C11.625 10.7071 11.7929 10.875 12 10.875C12.2071 10.875 12.375 10.7071 12.375 10.5V6ZM9.375 7.5C9.375 7.29289 9.20711 7.125 9 7.125C8.79289 7.125 8.625 7.29289 8.625 7.5V10.5C8.625 10.7071 8.79289 10.875 9 10.875C9.20711 10.875 9.375 10.7071 9.375 10.5V7.5ZM6.375 9C6.375 8.79289 6.20711 8.625 6 8.625C5.79289 8.625 5.625 8.79289 5.625 9V10.5C5.625 10.7071 5.79289 10.875 6 10.875C6.20711 10.875 6.375 10.7071 6.375 10.5V9Z" />
<path id="Vector_2" d="M4.5 16.125H13.5" stroke="#8D9094" stroke-width="0.75" stroke-linecap="round" stroke-linejoin="round"/>
</g>
</svg>
