<svg width="24" height="24" viewBox="0 0 24 24"  xmlns="http://www.w3.org/2000/svg">
<g id="Frame">
<path id="Subtract" fill-rule="evenodd" clip-rule="evenodd" d="M3.46696 19.4719C3.45137 19.4191 3.44299 19.3633 3.44299 19.3056V14.9884V7.50479V5.25479C3.44299 3.59307 4.79534 2.24072 6.45706 2.24072H17.5875C19.2492 2.24072 20.6016 3.59307 20.6016 5.25479V14.986C20.6016 16.5751 19.365 17.8812 17.8037 17.9924C17.7686 17.999 17.7324 18.0024 17.6953 18.0024H5.94143C5.21956 18.0024 4.63362 18.5884 4.63362 19.3103C4.63362 20.0321 5.21956 20.6181 5.94143 20.6181H20.018C20.3414 20.6181 20.6039 20.8806 20.6039 21.204C20.6039 21.5274 20.3414 21.7899 20.018 21.7899H5.94143C4.62932 21.7899 3.55061 20.7634 3.46696 19.4719ZM9.50386 14.086H9.5226C9.70776 14.086 9.8812 13.9992 9.99135 13.8516L14.0835 8.39298L16.5914 10.9195C16.821 11.1492 17.1914 11.1516 17.421 10.9219C17.6507 10.6922 17.6507 10.3219 17.4234 10.0922L14.4398 7.08751C14.3203 6.96798 14.1539 6.9047 13.9828 6.91642C13.8117 6.92814 13.657 7.01252 13.5539 7.14845L9.55776 12.4805L7.55151 9.40783C7.37573 9.13595 7.01245 9.06095 6.74057 9.23673C6.4687 9.41252 6.3937 9.7758 6.56948 10.0477L9.03276 13.8211C9.13589 13.9805 9.31167 14.0789 9.50386 14.086Z"/>
</g>
</svg>
