<svg width="24" height="24" viewBox="0 0 24 24" xmlns="http://www.w3.org/2000/svg">
<g id="Frame">
<path id="Vector (Stroke)" fill-rule="evenodd" clip-rule="evenodd" d="M12 16C12.2761 16 12.5 16.2239 12.5 16.5V19.5C12.5 19.7761 12.2761 20 12 20C11.7239 20 11.5 19.7761 11.5 19.5V16.5C11.5 16.2239 11.7239 16 12 16Z" />
<path id="Subtract" fill-rule="evenodd" clip-rule="evenodd" d="M2.5 3C1.94771 3 1.5 3.44772 1.5 4V16C1.5 16.5523 1.94772 17 2.5 17H21.5C22.0523 17 22.5 16.5523 22.5 16V4C22.5 3.44772 22.0523 3 21.5 3H2.5ZM8.5 11C8.5 10.7239 8.27614 10.5 8 10.5C7.72386 10.5 7.5 10.7239 7.5 11V13C7.5 13.2761 7.72386 13.5 8 13.5C8.27614 13.5 8.5 13.2761 8.5 13V11ZM12 8.5C12.2761 8.5 12.5 8.72386 12.5 9V13C12.5 13.2761 12.2761 13.5 12 13.5C11.7239 13.5 11.5 13.2761 11.5 13V9C11.5 8.72386 11.7239 8.5 12 8.5ZM16.5 7C16.5 6.72386 16.2761 6.5 16 6.5C15.7239 6.5 15.5 6.72386 15.5 7V13C15.5 13.2761 15.7239 13.5 16 13.5C16.2761 13.5 16.5 13.2761 16.5 13V7Z" />
<path id="Vector (Stroke)_2" fill-rule="evenodd" clip-rule="evenodd" d="M5.5 20.5C5.5 20.2239 5.72386 20 6 20H18C18.2761 20 18.5 20.2239 18.5 20.5C18.5 20.7761 18.2761 21 18 21H6C5.72386 21 5.5 20.7761 5.5 20.5Z" />
</g>
</svg>
