<svg width="24" height="24" viewBox="0 0 24 24"  xmlns="http://www.w3.org/2000/svg">
<g id="Group 427320874">
<g id="Frame">
<path id="Vector (Stroke)" fill-rule="evenodd" clip-rule="evenodd" d="M2 5.5C2.27614 5.5 2.5 5.72386 2.5 6V18C2.5 18.1263 2.57634 18.3262 2.89887 18.5804C3.21577 18.8301 3.70531 19.0769 4.35481 19.2934C5.64858 19.7247 7.46771 20 9.5 20C10.9311 20 12.2576 19.8635 13.3696 19.6316C12.4454 18.819 11.7958 17.7007 11.579 16.4335C11.527 16.1298 11.5 15.8178 11.5 15.5C11.5 14.0881 12.0327 12.7994 12.9073 11.8258C13.8091 10.8218 15.0765 10.1508 16.5 10.0224V6C16.5 5.72386 16.7239 5.5 17 5.5C17.2761 5.5 17.5 5.72386 17.5 6V10.5C17.5 10.7761 17.2761 11 17 11C15.6702 11 14.4757 11.5761 13.6512 12.494C12.9351 13.2912 12.5 14.3442 12.5 15.5C12.5 15.7611 12.5222 16.0166 12.5646 16.2649C12.7958 17.6162 13.6308 18.7635 14.7837 19.4174C14.9577 19.5161 15.0562 19.709 15.034 19.9078C15.0118 20.1066 14.8732 20.273 14.6818 20.3309C13.2936 20.7506 11.4762 21 9.5 21C7.39014 21 5.45927 20.7157 4.03858 20.2421C3.33085 20.0062 2.72204 19.7143 2.2799 19.3658C1.84339 19.0218 1.5 18.564 1.5 18V6C1.5 5.72386 1.72386 5.5 2 5.5Z" />
<path id="Vector" d="M17 6C17 7.3807 13.6421 8.5 9.5 8.5C5.35785 8.5 2 7.3807 2 6C2 4.61929 5.35785 3.5 9.5 3.5C13.6421 3.5 17 4.61929 17 6Z" />
<path id="Vector (Stroke)_2" fill-rule="evenodd" clip-rule="evenodd" d="M2.89887 5.41959C2.57634 5.67378 2.5 5.87369 2.5 6C2.5 6.12631 2.57634 6.32622 2.89887 6.5804C3.21577 6.83014 3.70531 7.07692 4.35481 7.29342C5.64858 7.72468 7.46771 8 9.5 8C11.5323 8 13.3514 7.72468 14.6452 7.29342C15.2947 7.07692 15.7842 6.83014 16.1011 6.5804C16.4237 6.32622 16.5 6.12631 16.5 6C16.5 5.87369 16.4237 5.67378 16.1011 5.41959C15.7842 5.16985 15.2947 4.92308 14.6452 4.70658C13.3514 4.27532 11.5323 4 9.5 4C7.46771 4 5.64858 4.27532 4.35481 4.70658C3.70531 4.92308 3.21577 5.16985 2.89887 5.41959ZM4.03858 3.75789C5.45927 3.28433 7.39014 3 9.5 3C11.6099 3 13.5407 3.28433 14.9614 3.75789C15.6692 3.9938 16.278 4.28573 16.7201 4.63418C17.1566 4.97819 17.5 5.43596 17.5 6C17.5 6.56404 17.1566 7.02181 16.7201 7.36581C16.278 7.71426 15.6692 8.00619 14.9614 8.2421C13.5407 8.71567 11.6099 9 9.5 9C7.39014 9 5.45927 8.71567 4.03858 8.2421C3.33085 8.00619 2.72204 7.71426 2.2799 7.36581C1.84339 7.02181 1.5 6.56404 1.5 6C1.5 5.43596 1.84339 4.97819 2.2799 4.63418C2.72204 4.28573 3.33085 3.9938 4.03858 3.75789Z" />
<path id="Vector (Stroke)_3" fill-rule="evenodd" clip-rule="evenodd" d="M2 13.5C2.27614 13.5 2.5 13.7239 2.5 14C2.5 14.1263 2.57634 14.3262 2.89887 14.5804C3.21577 14.8301 3.70531 15.0769 4.35481 15.2934C5.64858 15.7247 7.46771 16 9.5 16C10.3842 16 11.2301 15.9479 12.0114 15.8528C12.2855 15.8195 12.5348 16.0146 12.5681 16.2888C12.6015 16.5629 12.4063 16.8121 12.1322 16.8455C11.3092 16.9456 10.4228 17 9.5 17C7.39014 17 5.45927 16.7157 4.03858 16.2421C3.33085 16.0062 2.72204 15.7143 2.2799 15.3658C1.84339 15.0218 1.5 14.564 1.5 14C1.5 13.7239 1.72386 13.5 2 13.5Z" />
<path id="Vector (Stroke)_4" fill-rule="evenodd" clip-rule="evenodd" d="M2 9.5C2.27614 9.5 2.5 9.72386 2.5 10C2.5 10.1263 2.57634 10.3262 2.89887 10.5804C3.21577 10.8301 3.70531 11.0769 4.35481 11.2934C5.64858 11.7247 7.46771 12 9.5 12C10.8495 12 12.1086 11.8786 13.1836 11.6691C13.4547 11.6163 13.7172 11.7932 13.77 12.0643C13.8228 12.3353 13.6459 12.5979 13.3749 12.6507C12.2304 12.8736 10.9068 13 9.5 13C7.39014 13 5.45927 12.7157 4.03858 12.2421C3.33085 12.0062 2.72204 11.7143 2.2799 11.3658C1.84339 11.0218 1.5 10.564 1.5 10C1.5 9.72386 1.72386 9.5 2 9.5Z" />
</g>
<path id="Subtract" fill-rule="evenodd" clip-rule="evenodd" d="M16.5 10C14.8747 10 13.4135 10.7057 12.4073 11.8258C11.5327 12.7994 11 14.0881 11 15.5C11 15.8178 11.027 16.1298 11.079 16.4335C11.3621 18.0884 12.3835 19.4894 13.7904 20.2872C14.5906 20.7411 15.5158 21 16.5 21C19.5375 21 22 18.5375 22 15.5C22 12.4625 19.5375 10 16.5 10ZM16.75 13.067C16.5953 12.9777 16.4047 12.9777 16.25 13.067L14.5179 14.067C14.3632 14.1563 14.2679 14.3214 14.2679 14.5V16.5C14.2679 16.6786 14.3632 16.8437 14.5179 16.933L16.25 17.933C16.4047 18.0223 16.5953 18.0223 16.75 17.933L18.482 16.933C18.6367 16.8437 18.732 16.6786 18.732 16.5V14.5C18.732 14.3214 18.6367 14.1563 18.482 14.067L16.75 13.067ZM16.5 16.9226L15.2679 16.2113V14.7887L16.5 14.0774L17.732 14.7887V16.2113L16.5 16.9226Z" />
</g>
</svg>
