<svg width="24" height="24" viewBox="0 0 24 24"  xmlns="http://www.w3.org/2000/svg">
<g id="&#231;&#148;&#168;&#232;&#131;&#189;&#229;&#183;&#174;&#229;&#128;&#188;">
<g id="Vector">
<path fill-rule="evenodd" clip-rule="evenodd" d="M2.57895 6C1.70692 6 1 6.7326 1 7.63636V16.3636C1 17.2674 1.70692 18 2.57895 18H17.1707C17.0602 17.6872 17 17.3506 17 17C17 15.3431 18.3431 14 20 14C20.3506 14 20.6872 14.0602 21 14.1707V7.63636C21 6.73261 20.2931 6 19.4211 6H2.57895ZM7.05466 10.3651C7.05466 9.91319 6.7012 9.54688 6.26518 9.54688C5.82917 9.54688 5.47571 9.91319 5.47571 10.3651V13.6378C5.47571 14.0897 5.82917 14.456 6.26518 14.456C6.7012 14.456 7.05466 14.0897 7.05466 13.6378V10.3651ZM9.42224 9.54688C9.85825 9.54688 10.2117 9.91319 10.2117 10.3651V13.6378C10.2117 14.0897 9.85825 14.456 9.42224 14.456C8.98622 14.456 8.63276 14.0897 8.63276 13.6378V10.3651C8.63276 9.91319 8.98622 9.54688 9.42224 9.54688Z" />
<path d="M23 9.5H22V14.5H23C23.5523 14.5 24 14.0523 24 13.5V10.5C24 9.9477 23.5523 9.5 23 9.5Z" />
<path fill-rule="evenodd" clip-rule="evenodd" d="M20.5 20C21.8807 20 23 18.8807 23 17.5C23 16.1193 21.8807 15 20.5 15C19.1193 15 18 16.1193 18 17.5C18 18.8807 19.1193 20 20.5 20ZM19.5 17.25C19.3619 17.25 19.25 17.3619 19.25 17.5C19.25 17.6381 19.3619 17.75 19.5 17.75H21.5C21.6381 17.75 21.75 17.6381 21.75 17.5C21.75 17.3619 21.6381 17.25 21.5 17.25H19.5Z" />
</g>
</g>
</svg>
