<svg width="24" height="24" viewBox="0 0 24 24"  xmlns="http://www.w3.org/2000/svg">
<g id="&#231;&#148;&#168;&#232;&#131;&#189;&#229;&#183;&#174;&#229;&#128;&#188;">
<g id="Group 427320868">
<g id="Vector">
<path fill-rule="evenodd" clip-rule="evenodd" d="M2.57895 6C1.70692 6 1 6.7326 1 7.63636V16.3636C1 17.2674 1.70692 18 2.57895 18H17.1707C17.0602 17.6872 17 17.3506 17 17C17 15.3431 18.3431 14 20 14C20.3506 14 20.6872 14.0602 21 14.1707V7.63636C21 6.73261 20.2931 6 19.4211 6H2.57895ZM7.05466 10.3651C7.05466 9.91319 6.7012 9.54688 6.26518 9.54688C5.82917 9.54688 5.47571 9.91319 5.47571 10.3651V13.6378C5.47571 14.0897 5.82917 14.456 6.26518 14.456C6.7012 14.456 7.05466 14.0897 7.05466 13.6378V10.3651ZM9.42224 9.54688C9.85825 9.54688 10.2117 9.91319 10.2117 10.3651V13.6378C10.2117 14.0897 9.85825 14.456 9.42224 14.456C8.98622 14.456 8.63276 14.0897 8.63276 13.6378V10.3651C8.63276 9.91319 8.98622 9.54688 9.42224 9.54688Z" />
<path d="M23 9.5H22V14.5H23C23.5523 14.5 24 14.0523 24 13.5V10.5C24 9.9477 23.5523 9.5 23 9.5Z" />
<path fill-rule="evenodd" clip-rule="evenodd" d="M20.6246 15C19.8999 15 19.2436 15.294 18.7687 15.7688C18.2939 16.2437 18 16.9002 18 17.625C18 18.3498 18.2939 19.0062 18.7687 19.4811C19.2436 19.956 19.8999 20.25 20.6246 20.25C21.3494 20.25 22.0057 19.956 22.4805 19.4811C22.9553 19.0062 23.2492 18.3498 23.2492 17.625C23.2492 16.9002 22.9553 16.2437 22.4805 15.7688C22.0057 15.294 21.3494 15 20.6246 15ZM22.0514 17.0517C22.149 16.9541 22.149 16.7958 22.0514 16.6982C21.9538 16.6006 21.7955 16.6006 21.6979 16.6982L20.3749 18.0214L19.8018 17.4482C19.7041 17.3506 19.5459 17.3506 19.4482 17.4482C19.3506 17.5458 19.3506 17.7041 19.4482 17.8017L20.1981 18.5517C20.245 18.5986 20.3086 18.625 20.3749 18.625C20.4412 18.625 20.5048 18.5986 20.5516 18.5517L22.0514 17.0517Z" />
</g>
</g>
</g>
</svg>
