<svg width="24" height="24" viewBox="0 0 24 24" xmlns="http://www.w3.org/2000/svg">
<g id="Frame">
<path id="Subtract" fill-rule="evenodd" clip-rule="evenodd" d="M4.5 3C2.84315 3 1.5 4.34315 1.5 6V18C1.5 19.6568 2.84315 21 4.5 21H19.5C21.1568 21 22.5 19.6568 22.5 18V6C22.5 4.34315 21.1568 3 19.5 3H4.5ZM9.35355 7.14645C9.15829 6.95118 8.84171 6.95118 8.64645 7.14645C8.45118 7.34171 8.45118 7.65829 8.64645 7.85355L11.6464 10.8536C11.744 10.9511 11.8718 10.9999 11.9997 11H8.5C8.22386 11 8 11.2239 8 11.5C8 11.7761 8.22386 12 8.5 12H11.5V14H8.5C8.22386 14 8 14.2239 8 14.5C8 14.7761 8.22386 15 8.5 15H11.5V17C11.5 17.2761 11.7239 17.5 12 17.5C12.2761 17.5 12.5 17.2761 12.5 17V15H15.5C15.7761 15 16 14.7761 16 14.5C16 14.2239 15.7761 14 15.5 14H12.5V12H15.5C15.7761 12 16 11.7761 16 11.5C16 11.2239 15.7761 11 15.5 11H12.0003C12.1282 10.9999 12.256 10.9511 12.3536 10.8536L15.3536 7.85355C15.5488 7.65829 15.5488 7.34171 15.3536 7.14645C15.1583 6.95118 14.8417 6.95118 14.6464 7.14645L12 9.79289L9.35355 7.14645Z"/>
</g>
</svg>
