<svg width="24" height="24" viewBox="0 0 24 24"  xmlns="http://www.w3.org/2000/svg">
<g id="Frame">
<g id="Vector">
<path fill-rule="evenodd" clip-rule="evenodd" d="M14.6464 1.64645C14.8417 1.45118 15.1583 1.45118 15.3536 1.64645L20.3536 6.64645C20.5488 6.84171 20.5488 7.15829 20.3536 7.35355C20.1583 7.54882 19.8417 7.54882 19.6464 7.35355L14.6464 2.35355C14.4512 2.15829 14.4512 1.84171 14.6464 1.64645Z" />
<path fill-rule="evenodd" clip-rule="evenodd" d="M5 1.5C4.17157 1.5 3.5 2.17157 3.5 3V21C3.5 21.8284 4.17158 22.5 5 22.5H19C19.8284 22.5 20.5 21.8284 20.5 21V7C20.5 6.72386 20.2761 6.5 20 6.5H15.5V2C15.5 1.72386 15.2761 1.5 15 1.5H5ZM16.5805 11.975C16.8428 11.6544 16.7955 11.1819 16.4749 10.9196C16.1544 10.6573 15.6818 10.7045 15.4195 11.0251L11.3988 15.9394L8.98016 13.9239C8.66195 13.6587 8.18903 13.7017 7.92385 14.0199C7.65868 14.3381 7.70167 14.811 8.01988 15.0762L11.0199 17.5762C11.1736 17.7043 11.3721 17.7656 11.5713 17.7466C11.7705 17.7276 11.9538 17.6298 12.0805 17.475L16.5805 11.975Z" />
</g>
</g>
</svg>
