<svg width="24" height="24" viewBox="0 0 24 24"  xmlns="http://www.w3.org/2000/svg">
<g id="&#229;&#188;&#130;&#229;&#184;&#184;&#229;&#145;&#138;&#232;&#173;&#166;">
<g id="Vector">fill
<path d="M12.2906 1C12.5863 1 12.826 1.23974 12.826 1.53548V3.14192C12.826 3.43765 12.5863 3.6774 12.2906 3.6774C11.9948 3.6774 11.7551 3.43765 11.7551 3.14192V1.53548C11.7551 1.23974 11.9948 1 12.2906 1Z"/>
<path d="M19.003 3.44171C19.2295 3.6318 19.2591 3.96956 19.069 4.19611L18.0364 5.42673C17.8463 5.65328 17.5085 5.68283 17.282 5.49273C17.0554 5.30263 17.0259 4.96488 17.216 4.73833L18.2486 3.50771C18.4387 3.28116 18.7764 3.25161 19.003 3.44171Z" />
<path d="M22.1393 10.2492C22.4306 10.1978 22.625 9.92011 22.5737 9.62887C22.5223 9.33763 22.2446 9.14316 21.9533 9.19452L20.3713 9.4735C20.0801 9.52486 19.8856 9.80259 19.9369 10.0938C19.9883 10.3851 20.266 10.5795 20.5573 10.5282L22.1393 10.2492Z" />
<path d="M2.00822 9.62888C2.05957 9.33764 2.3373 9.14317 2.62854 9.19452L4.21054 9.47345C4.50178 9.5248 4.69625 9.80252 4.64491 10.0938C4.59356 10.385 4.31583 10.5795 4.02459 10.5281L2.44258 10.2492C2.15134 10.1979 1.95687 9.92013 2.00822 9.62888Z" />
<path d="M6.33428 3.50771C6.14419 3.28116 5.80644 3.25161 5.57989 3.44171C5.35335 3.6318 5.3238 3.96956 5.51389 4.19611L6.5465 5.42673C6.73659 5.65328 7.07434 5.68283 7.30089 5.49274C7.52743 5.30264 7.55698 4.96488 7.36689 4.73833L6.33428 3.50771Z" />
<path fill-rule="evenodd" clip-rule="evenodd" d="M2.11663 20.8127C2.11663 20.517 2.35636 20.2773 2.6521 20.2773H6.3992V12.2451C6.3992 8.99199 9.03635 6.35479 12.2894 6.35479C15.5424 6.35479 18.1796 8.99199 18.1796 12.2451V15.1136C16.9215 15.4705 16 16.6276 16 18C16 19.6569 17.3431 21 19 21C19.7459 21 20.4282 20.7278 20.953 20.2773H22.4645C22.7603 20.2773 23 20.517 23 20.8127C23 21.1085 22.7603 21.3482 22.4645 21.3482H17.6455L17.6441 21.3482H6.93467L6.93323 21.3482H2.6521C2.35636 21.3482 2.11663 21.1085 2.11663 20.8127ZM14.3057 13.9656H12.6896L12.9924 11.8503C12.9955 11.8234 12.99 11.7962 12.9766 11.7727C12.9632 11.7492 12.9427 11.7306 12.9181 11.7195C12.8934 11.7085 12.8658 11.7056 12.8394 11.7112C12.8129 11.7169 12.789 11.7308 12.771 11.751L10.1776 14.775C10.1622 14.7936 10.1523 14.8161 10.1492 14.84C10.146 14.8639 10.1498 14.8882 10.1599 14.91C10.17 14.9319 10.1861 14.9504 10.2064 14.9635C10.2267 14.9765 10.2502 14.9836 10.2743 14.9838H11.8904L11.5875 17.0991C11.5844 17.1259 11.59 17.1531 11.6033 17.1766C11.6167 17.2001 11.6372 17.2188 11.6619 17.2298C11.6866 17.2409 11.7141 17.2438 11.7406 17.2381C11.767 17.2325 11.791 17.2185 11.809 17.1984L14.4024 14.1743C14.4178 14.1558 14.4277 14.1333 14.4308 14.1094C14.4339 14.0855 14.4302 14.0612 14.4201 14.0393C14.4099 14.0175 14.3938 13.9989 14.3736 13.9859C14.3533 13.9728 14.3298 13.9658 14.3057 13.9656Z"/>
<path d="M19 15.5C17.6193 15.5 16.5 16.6193 16.5 18C16.5 19.3807 17.6193 20.5 19 20.5C20.3807 20.5 21.5 19.3807 21.5 18C21.5 16.6193 20.3808 15.5 19 15.5ZM19.625 19.25L18.6875 18.3125V16.125H19.3125V18.0536L20.0669 18.808L19.625 19.25Z" />
</g>
</g>
</svg>
