<svg width="24" height="26" viewBox="0 0 24 26"  xmlns="http://www.w3.org/2000/svg">
<g id="Group 427320878">
<g id="Group 427320877">
<path id="Vector" d="M19.8817 14.3593C19.1971 14.6629 18.6401 14.9194 18.0362 15.1915C17.7031 15.0319 17.2892 14.7126 16.8259 14.6158C15.2017 14.2965 13.6426 15.7201 13.7077 17.3687C13.7077 17.6252 13.4838 18.0256 13.2626 18.1041C12.4193 18.3919 12.0366 18.9991 11.9898 19.7998C11.9429 21.0481 11.8466 22.3434 13.4552 22.8249C13.5827 22.8563 13.6296 23.1285 13.7103 23.2881C13.5203 23.3849 13.312 23.576 13.122 23.576C10.9747 23.5917 8.82471 23.5917 6.67735 23.5917C5.69086 23.5917 4.70438 23.6074 3.71789 23.5917C2.46071 23.5603 2 23.0631 2 21.8148V5.03019C2 3.86306 2.44509 3.36586 3.62419 3.35015C8.50976 3.33445 13.3953 3.33445 18.2835 3.35015C19.3169 3.35015 19.8583 3.86306 19.8739 4.99879C19.9129 8.1338 19.8817 11.2871 19.8817 14.3593ZM11.0319 5.54048C11.0319 5.52478 11.0319 5.52478 11.0319 5.54048C9.53529 5.54048 8.03864 5.52478 6.5446 5.54048C5.8132 5.54048 5.20673 6.13189 5.22235 6.77303C5.25358 7.42986 5.79498 7.90875 6.5446 7.90875C9.45721 7.90875 12.3542 7.90875 15.2668 7.89305C16.1752 7.89305 16.5708 7.44556 16.5552 6.5977C16.5396 5.94086 16.0607 5.5588 15.2668 5.5588C13.8482 5.52478 12.4479 5.54048 11.0319 5.54048ZM8.66073 12.3574C9.42337 12.3574 10.1886 12.3888 10.9356 12.3417C11.5395 12.3103 12.0028 11.9728 12.0653 11.3185C12.146 10.5832 11.667 10.0389 11.0476 10.0075C9.45721 9.92636 7.84864 10.0389 6.25568 10.0886C5.50866 10.1043 5.23796 10.6957 5.25358 11.2897C5.2692 11.978 5.76374 12.3627 6.47953 12.3627H8.66073V12.3574Z" />
<path id="Vector_2" d="M22.9688 20.5353C23.0963 21.111 22.8256 21.4643 22.2843 21.6867C21.3134 22.0871 21.0583 22.5503 21.2665 23.5578C21.3941 24.1806 20.9646 24.437 20.582 24.6778C20.1837 24.9186 19.7855 25.2535 19.2285 24.7903C18.4476 24.1178 17.8906 24.2146 16.9536 24.7432C16.636 24.9186 16.0946 24.9029 15.7276 24.7746C15.2825 24.615 14.8192 24.3271 14.9624 23.6546C15.1862 22.6157 14.6761 21.9432 13.7859 21.5899C13.117 21.3177 13.2133 20.7577 13.2289 20.3259C13.2445 19.991 13.5152 19.4938 13.8015 19.3498C14.6761 18.9181 15.0743 18.5805 14.9962 17.1726C14.9494 16.4216 15.4569 16.2436 15.8864 16.0526C16.1727 15.9087 16.7141 15.8773 16.938 16.0526C17.7501 16.7094 18.5127 16.6754 19.2623 16.0683C19.9625 15.5083 20.3607 16.0997 20.8709 16.3718C21.3654 16.6283 21.3316 16.979 21.2041 17.4448C21.0141 18.1644 21.4279 18.9809 22.1437 19.2059C22.8256 19.3996 23.0495 19.8313 22.9688 20.5353V20.5353ZM16.0296 20.2945C16.014 21.5899 16.8104 22.4378 18.0832 22.4535C19.1504 22.4692 20.0718 21.6527 20.1057 20.6766C20.1369 19.3001 19.3248 18.3895 18.0208 18.3397C16.9536 18.3109 16.0452 19.1902 16.0296 20.2945V20.2945Z" />
</g>
</g>
</svg>
