<svg width="24" height="24" viewBox="0 0 24 24"  xmlns="http://www.w3.org/2000/svg">
<g id="Frame">
<path id="Vector (Stroke)" fill-rule="evenodd" clip-rule="evenodd" d="M3 2.5C3 1.94772 3.44772 1.5 4 1.5H17.5C17.7761 1.5 18 1.72386 18 2V5C18 5.27614 17.7761 5.5 17.5 5.5C17.2239 5.5 17 5.27614 17 5V2.5H4V18.5H6.5C6.77614 18.5 7 18.7239 7 19C7 19.2761 6.77614 19.5 6.5 19.5H3.5C3.22386 19.5 3 19.2761 3 19V2.5Z" />
<path id="Subtract" fill-rule="evenodd" clip-rule="evenodd" d="M6.5 4.5C6.22386 4.5 6 4.72386 6 5V22C6 22.2761 6.22386 22.5 6.5 22.5H20.5C20.7761 22.5 21 22.2761 21 22V5C21 4.72386 20.7761 4.5 20.5 4.5H6.5ZM10.5 10.5C10.2239 10.5 10 10.7239 10 11C10 11.2761 10.2239 11.5 10.5 11.5H16.5C16.7761 11.5 17 11.2761 17 11C17 10.7239 16.7761 10.5 16.5 10.5H10.5ZM10.5 14.5C10.2239 14.5 10 14.7239 10 15C10 15.2761 10.2239 15.5 10.5 15.5H16.5C16.7761 15.5 17 15.2761 17 15C17 14.7239 16.7761 14.5 16.5 14.5H10.5Z" />
</g>
</svg>
