<svg width="24" height="24" viewBox="0 0 24 24" xmlns="http://www.w3.org/2000/svg">
<g id="Frame">
<path id="Subtract" fill-rule="evenodd" clip-rule="evenodd" d="M15.5 3.20711V6.5H18.7929L15.5 3.20711ZM20.4999 6.99077C20.4988 6.92634 20.4854 6.86488 20.4621 6.80861C20.4377 6.74964 20.4015 6.69439 20.3536 6.64645L15.3536 1.64645C15.3056 1.59851 15.2504 1.56234 15.1914 1.53794C15.1324 1.51349 15.0678 1.5 15 1.5H14.9999H5C4.17157 1.5 3.5 2.17157 3.5 3V21C3.5 21.8284 4.17158 22.5 5 22.5H19C19.8284 22.5 20.5 21.8284 20.5 21V7.00098L20.4999 6.99077ZM9.5 12C9.5 10.6193 10.6193 9.5 12 9.5C13.3807 9.5 14.5 10.6193 14.5 12C14.5 12.7239 14.1923 13.3759 13.7006 13.8324C15.3428 14.5033 16.5 16.1165 16.5 18C16.5 18.2761 16.2761 18.5 16 18.5C15.7239 18.5 15.5 18.2761 15.5 18C15.5 16.067 13.933 14.5 12 14.5C10.067 14.5 8.5 16.067 8.5 18C8.5 18.2761 8.27614 18.5 8 18.5C7.72386 18.5 7.5 18.2761 7.5 18C7.5 16.1165 8.65716 14.5033 10.2994 13.8324C9.80766 13.3759 9.5 12.7239 9.5 12Z" />
</g>
</svg>
