<svg width="24" height="24" viewBox="0 0 24 24"  xmlns="http://www.w3.org/2000/svg">
<g id="Group 427320941">
<g id="Group 427320865">
<g id="Vector">
<path fill-rule="evenodd" clip-rule="evenodd" d="M2.25 7.75C2.25 7.19772 2.69771 6.75 3.25 6.75H20.75C21.3023 6.75 21.75 7.19772 21.75 7.75V16.25C21.75 16.8023 21.3023 17.25 20.75 17.25H3.25C2.69772 17.25 2.25 16.8023 2.25 16.25V7.75Z" />
<path fill-rule="evenodd" clip-rule="evenodd" d="M2.25 3.5C2.25 3.08579 2.58579 2.75 3 2.75H21C21.4142 2.75 21.75 3.08579 21.75 3.5C21.75 3.91421 21.4142 4.25 21 4.25H3C2.58579 4.25 2.25 3.91421 2.25 3.5Z" />
<path fill-rule="evenodd" clip-rule="evenodd" d="M2.25 20.5C2.25 20.0858 2.58579 19.75 3 19.75H21C21.4142 19.75 21.75 20.0858 21.75 20.5C21.75 20.9142 21.4142 21.25 21 21.25H3C2.58579 21.25 2.25 20.9142 2.25 20.5Z" />
</g>
</g>
</g>
</svg>
