<svg width="24" height="24" viewBox="0 0 24 24"  xmlns="http://www.w3.org/2000/svg">
<g id="Frame">
<path id="Vector" d="M2 6H22V10L21.3008 10.4195C20.1924 11.0846 18.8076 11.0846 17.6992 10.4195L17 10L16.3008 10.4195C15.1924 11.0846 13.8077 11.0846 12.6993 10.4195L12 10L11.3007 10.4195C10.1923 11.0846 8.80765 11.0846 7.69925 10.4195L7 10L6.30075 10.4195C5.19235 11.0846 3.80765 11.0846 2.69927 10.4195L2 10V6Z" />
<path id="Vector (Stroke)" fill-rule="evenodd" clip-rule="evenodd" d="M1.5 6C1.5 5.72386 1.72386 5.5 2 5.5H22C22.2761 5.5 22.5 5.72386 22.5 6V10C22.5 10.1756 22.4079 10.3384 22.2572 10.4287L21.558 10.8483C20.2913 11.6084 18.7087 11.6084 17.442 10.8483L17 10.5831L16.558 10.8483C15.2913 11.6084 13.7087 11.6084 12.442 10.8483L12.6993 10.4195L12.442 10.8483L12 10.5831L11.558 10.8483C10.2913 11.6084 8.70874 11.6084 7.442 10.8483L7.69925 10.4195L7.442 10.8483L7 10.5831L6.558 10.8483C5.29126 11.6083 3.70875 11.6084 2.44202 10.8483C2.44202 10.8483 2.44202 10.8483 2.44201 10.8483L1.74276 10.4287C1.59215 10.3384 1.5 10.1756 1.5 10V6ZM2.5 6.5V9.7169L2.95651 9.9908L2.95652 9.99081C3.90656 10.5608 5.09344 10.5608 6.0435 9.99081L6.29607 10.4118L6.0435 9.9908L6.74275 9.57125C6.90109 9.47625 7.09891 9.47625 7.25725 9.57125L7.9565 9.9908L7.70393 10.4118L7.9565 9.99081C8.90656 10.5608 10.0934 10.5608 11.0435 9.99081L11.2961 10.4118L11.0435 9.9908L11.7428 9.57125C11.9011 9.47625 12.0989 9.47625 12.2572 9.57125L12.9565 9.9908L12.7039 10.4118L12.9565 9.99081C13.9066 10.5608 15.0934 10.5608 16.0435 9.99081L16.3008 10.4195L16.0435 9.9908L16.7428 9.57125C16.9011 9.47625 17.0989 9.47625 17.2572 9.57125L17.9565 9.9908L17.6992 10.4195L17.9565 9.99081C18.9066 10.5608 20.0934 10.5608 21.0435 9.9908L21.5 9.7169V6.5H2.5Z" />
<path id="Vector_2" d="M4 5.9111V2H20V6" />
<path id="Vector (Stroke)_2" fill-rule="evenodd" clip-rule="evenodd" d="M3.5 2C3.5 1.72386 3.72386 1.5 4 1.5H20C20.2761 1.5 20.5 1.72386 20.5 2V6C20.5 6.27614 20.2761 6.5 20 6.5C19.7239 6.5 19.5 6.27614 19.5 6V2.5H4.5V5.9111C4.5 6.18724 4.27614 6.4111 4 6.4111C3.72386 6.4111 3.5 6.18724 3.5 5.9111V2Z" />
<path id="Subtract" fill-rule="evenodd" clip-rule="evenodd" d="M20.5 12C20.5 11.7239 20.2761 11.5 20 11.5C19.7239 11.5 19.5 11.7239 19.5 12V12.0069L4.49995 12.2153C4.49624 11.9423 4.27382 11.7222 4 11.7222C3.72386 11.7222 3.5 11.9461 3.5 12.2222V22C3.5 22.2761 3.72386 22.5 4 22.5H8.5V16C8.5 15.7239 8.72386 15.5 9 15.5H14C14.2761 15.5 14.5 15.7239 14.5 16V22.5H20C20.2761 22.5 20.5 22.2761 20.5 22V12Z" />
</g>
</svg>
