<svg width="24" height="24" viewBox="0 0 24 24"  xmlns="http://www.w3.org/2000/svg">
<g id="Frame">
<path id="Subtract" fill-rule="evenodd" clip-rule="evenodd" d="M2 2.5C1.72386 2.5 1.5 2.72386 1.5 3V18C1.5 18.2761 1.72386 18.5 2 18.5H9.29289L11.6464 20.8536C11.8417 21.0488 12.1583 21.0488 12.3536 20.8536L14.7071 18.5H22C22.2761 18.5 22.5 18.2761 22.5 18V3C22.5 2.72386 22.2761 2.5 22 2.5H2ZM6.50049 10C6.22435 10 6.00049 10.2239 6.00049 10.5C6.00049 10.7761 6.22435 11 6.50049 11H7.49994C7.77608 11 7.99994 10.7761 7.99994 10.5C7.99994 10.2239 7.77608 10 7.49994 10H6.50049ZM11 10.5C11 10.2239 11.2238 10 11.5 10H12.5012C12.7774 10 13.0012 10.2239 13.0012 10.5C13.0012 10.7761 12.7774 11 12.5012 11H11.5C11.2238 11 11 10.7761 11 10.5ZM16.0005 10.5C16.0005 10.2239 16.2243 10 16.5005 10H17.4999C17.7761 10 17.9999 10.2239 17.9999 10.5C17.9999 10.7761 17.7761 11 17.4999 11H16.5005C16.2243 11 16.0005 10.7761 16.0005 10.5Z" />
</g>
</svg>
