<svg width="18" height="19" viewBox="0 0 18 19" xmlns="http://www.w3.org/2000/svg">
<g id="Frame">
<path id="Subtract" fill-rule="evenodd" clip-rule="evenodd" d="M16.7699 8.95426L9.87558 2.05997C9.43626 1.62063 8.7239 1.62063 8.28458 2.05997L1.39029 8.95426C0.950957 9.39358 0.950956 10.1059 1.3903 10.5452L8.28459 17.4395C8.72391 17.8789 9.43625 17.8789 9.87557 17.4395L16.7699 10.5452C17.2092 10.1059 17.2092 9.39358 16.7699 8.95426ZM9.39092 6.57544C9.39092 6.36833 9.22303 6.20044 9.01592 6.20044C8.80882 6.20044 8.64092 6.36833 8.64092 6.57544V8.84672L7.0348 7.24061C6.88835 7.09416 6.65092 7.09417 6.50447 7.24061C6.35802 7.38706 6.35803 7.6245 6.50447 7.77094L8.11087 9.37733H5.83911C5.632 9.37733 5.46411 9.54522 5.46411 9.75233C5.46411 9.95943 5.632 10.1273 5.83911 10.1273H8.11062L6.50447 11.7335C6.35802 11.8799 6.35803 12.1174 6.50447 12.2638C6.65092 12.4103 6.88836 12.4103 7.0348 12.2638L8.64092 10.6577V12.9293C8.64092 13.1364 8.80882 13.3043 9.01592 13.3043C9.22303 13.3043 9.39092 13.1364 9.39092 12.9293V10.6574L10.9973 12.2638C11.1438 12.4102 11.3812 12.4102 11.5277 12.2638C11.6741 12.1173 11.6741 11.8799 11.5277 11.7334L9.92154 10.1273H12.193C12.4001 10.1273 12.568 9.95943 12.568 9.75233C12.568 9.54522 12.4001 9.37733 12.193 9.37733H9.92127L11.5276 7.77094C11.6741 7.62449 11.6741 7.38706 11.5276 7.24061C11.3812 7.09416 11.1438 7.09417 10.9973 7.24061L9.39092 8.84701V6.57544Z"/>
</g>
</svg>
