<svg width="24" height="24" viewBox="0 0 24 24"  xmlns="http://www.w3.org/2000/svg">
<g id="Frame">
<path id="Vector" d="M9.5 10C11.433 10 13 8.433 13 6.5C13 4.56701 11.433 3 9.5 3C7.567 3 6 4.56701 6 6.5C6 8.433 7.567 10 9.5 10Z" />
<path id="Vector (Stroke)" fill-rule="evenodd" clip-rule="evenodd" d="M5.5 6.5C5.5 4.29086 7.29086 2.5 9.5 2.5C11.7091 2.5 13.5 4.29086 13.5 6.5C13.5 8.70914 11.7091 10.5 9.5 10.5C7.29086 10.5 5.5 8.70914 5.5 6.5ZM9.5 3.5C7.84314 3.5 6.5 4.84315 6.5 6.5C6.5 8.15686 7.84314 9.5 9.5 9.5C11.1569 9.5 12.5 8.15686 12.5 6.5C12.5 4.84315 11.1569 3.5 9.5 3.5Z" />
<path id="Vector (Stroke)_2" fill-rule="evenodd" clip-rule="evenodd" d="M16.2764 3.5529C16.5234 3.4294 16.8237 3.52951 16.9472 3.7765L16.5 4.00011C16.9472 3.7765 16.9473 3.77671 16.9474 3.77692L16.9477 3.77738L16.9482 3.77848L16.9496 3.78129L16.9535 3.7894L16.9659 3.81545C16.9759 3.83713 16.9896 3.86739 17.006 3.90581C17.0388 3.98261 17.0826 4.09219 17.1307 4.23109C17.2268 4.50857 17.3404 4.905 17.416 5.39219C17.5673 6.3673 17.567 7.71256 16.9628 9.18943C16.8582 9.44501 16.5663 9.56744 16.3107 9.46288C16.0551 9.35833 15.9327 9.06638 16.0372 8.81079C16.5581 7.53766 16.5577 6.38291 16.4278 5.54553C16.3628 5.12647 16.2654 4.78852 16.1857 4.5582C16.1459 4.44318 16.1107 4.3555 16.0863 4.29851C16.0742 4.27003 16.0647 4.24927 16.0589 4.23665L16.0529 4.2239L16.0521 4.22222C16.0521 4.22225 16.0521 4.22236 16.0522 4.22257L16.0525 4.22304L16.0526 4.22335C15.9294 3.97643 16.0295 3.67633 16.2764 3.5529Z" />
<path id="Vector (Stroke)_3" fill-rule="evenodd" clip-rule="evenodd" d="M19.7572 1.56301C19.9986 1.42891 20.303 1.51588 20.4371 1.75727L20 2.00009C20.4371 1.75727 20.4372 1.75749 20.4373 1.75772L20.4376 1.75826L20.4384 1.75963L20.4405 1.76349L20.4471 1.77564C20.4525 1.78571 20.4599 1.7997 20.4691 1.8175C20.4874 1.85311 20.513 1.90402 20.544 1.96946C20.6061 2.10029 20.6903 2.28946 20.7831 2.53076C20.9686 3.01298 21.1894 3.70574 21.3365 4.55889C21.631 6.2672 21.63 8.62243 20.4552 11.207C20.3409 11.4584 20.0445 11.5695 19.7931 11.4553C19.5417 11.341 19.4305 11.0446 19.5448 10.7932C20.62 8.42775 20.619 6.28298 20.351 4.72879C20.2169 3.95069 20.0158 3.32157 19.8497 2.88974C19.7668 2.674 19.6927 2.50809 19.6406 2.39811C19.6145 2.34314 19.5939 2.3022 19.5804 2.27606C19.5736 2.263 19.5687 2.25364 19.5657 2.24808L19.5627 2.24261C19.5625 2.24217 19.5624 2.24198 19.5624 2.24203L19.5626 2.24229L19.5627 2.24256C19.4289 2.00122 19.5159 1.69705 19.7572 1.56301Z" />
<path id="Vector_2" d="M2 20.4V21H17V20.4C17 18.1598 17 17.0397 16.5641 16.184C16.1806 15.4314 15.5686 14.8195 14.816 14.436C13.9603 14 12.8402 14 10.6 14H8.4C6.1598 14 5.0397 14 4.18404 14.436C3.43139 14.8195 2.81947 15.4314 2.43598 16.184C2 17.0397 2 18.1598 2 20.4Z" />
<path id="Vector (Stroke)_4" fill-rule="evenodd" clip-rule="evenodd" d="M8.37738 13.5H10.6226C11.7236 13.5 12.5805 13.5 13.2679 13.5562C13.9658 13.6132 14.5329 13.7306 15.0429 13.9904C15.8897 14.4219 16.5781 15.1103 17.0096 15.9571C17.2694 16.4671 17.3868 17.0342 17.4438 17.7321C17.5 18.4195 17.5 19.2764 17.5 20.3774V21C17.5 21.2761 17.2761 21.5 17 21.5H2C1.72386 21.5 1.5 21.2761 1.5 21V20.3774C1.5 19.2764 1.5 18.4195 1.55616 17.7321C1.61318 17.0342 1.73058 16.4671 1.99047 15.9571C2.42189 15.1103 3.11031 14.4219 3.95704 13.9904C4.4671 13.7306 5.03418 13.6132 5.7321 13.5562C6.41949 13.5 7.27642 13.5 8.37738 13.5ZM4.41102 14.8815C3.75246 15.217 3.21703 15.7525 2.88148 16.411C2.70539 16.7566 2.60481 17.1774 2.55284 17.8135C2.50039 18.4555 2.5 19.2716 2.5 20.4V20.5H16.5V20.4C16.5 19.2716 16.4996 18.4555 16.4472 17.8135C16.3952 17.1775 16.2946 16.7566 16.1185 16.411M4.41102 14.8815C4.75662 14.7054 5.17745 14.6048 5.81353 14.5528C6.45546 14.5004 7.27165 14.5 8.4 14.5H10.6C11.7284 14.5 12.5445 14.5004 13.1865 14.5528C13.8226 14.6048 14.2434 14.7054 14.589 14.8815C15.2475 15.217 15.783 15.7525 16.1185 16.411" />
</g>
</svg>
