<svg width="24" height="24" viewBox="0 0 24 24"  xmlns="http://www.w3.org/2000/svg">
<path fill-rule="evenodd" clip-rule="evenodd" d="M3 5.5C2.17158 5.5 1.5 6.17155 1.5 7V20C1.5 20.8284 2.17158 21.5 3 21.5H21C21.8284 21.5 22.5 20.8284 22.5 20V7C22.5 6.17156 21.8284 5.5 21 5.5H3ZM9.85355 8.64645C9.65829 8.45118 9.34171 8.45118 9.14645 8.64645C8.95118 8.84171 8.95118 9.15829 9.14645 9.35355L11.5583 11.7654C11.5211 11.8354 11.5 11.9152 11.5 12H9C8.72386 12 8.5 12.2239 8.5 12.5C8.5 12.7761 8.72386 13 9 13H11.5V15H9C8.72386 15 8.5 15.2239 8.5 15.5C8.5 15.7761 8.72386 16 9 16H11.5V17C11.5 17.2761 11.7239 17.5 12 17.5C12.2761 17.5 12.5 17.2761 12.5 17V16H15C15.2761 16 15.5 15.7761 15.5 15.5C15.5 15.2239 15.2761 15 15 15H12.5V13H15C15.2761 13 15.5 12.7761 15.5 12.5C15.5 12.2239 15.2761 12 15 12H12.5C12.5 11.9152 12.4789 11.8354 12.4417 11.7654L14.8536 9.35355C15.0488 9.15829 15.0488 8.84171 14.8536 8.64645C14.6583 8.45118 14.3417 8.45118 14.1464 8.64645L12 10.7929L9.85355 8.64645ZM18.1464 16.6464C18.3417 16.4512 18.6583 16.4512 18.8536 16.6464L19.5 17.2929L20.1464 16.6464C20.3417 16.4512 20.6583 16.4512 20.8536 16.6464C21.0488 16.8417 21.0488 17.1583 20.8536 17.3536L20.2071 18L20.8536 18.6464C21.0488 18.8417 21.0488 19.1583 20.8536 19.3536C20.6583 19.5488 20.3417 19.5488 20.1464 19.3536L19.5 18.7071L18.8536 19.3536C18.6583 19.5488 18.3417 19.5488 18.1464 19.3536C17.9512 19.1583 17.9512 18.8417 18.1464 18.6464L18.7929 18L18.1464 17.3536C17.9512 17.1583 17.9512 16.8417 18.1464 16.6464Z"/>
<path d="M4 3H20" stroke="#8E92BC" stroke-linecap="round" stroke-linejoin="round"/>
</svg>
