<svg width="24" height="24" viewBox="0 0 24 24" xmlns="http://www.w3.org/2000/svg">
<g id="Group 427320940">
<g id="Group 427320934">
<g id="Group 427320884">
<g id="Vector">
<path fill-rule="evenodd" clip-rule="evenodd" d="M3.09375 5.65083C3.09375 4.86006 3.73479 4.21902 4.52554 4.21902H5.48007V5.17356H4.52554C4.26196 5.17356 4.04828 5.38724 4.04828 5.65083V7.55993C4.04828 7.82352 4.26196 8.0372 4.52554 8.0372H5.48007V8.99174H4.52554C3.73479 8.99174 3.09375 8.3507 3.09375 7.55993V5.65083Z" />
<path fill-rule="evenodd" clip-rule="evenodd" d="M3.09375 17.1054C3.09375 16.3146 3.73479 15.6736 4.52554 15.6736H5.48007V16.6281H4.52554C4.26196 16.6281 4.04828 16.8418 4.04828 17.1054V19.0145C4.04828 19.2781 4.26196 19.4917 4.52554 19.4917H5.48007V20.4463H4.52554C3.73479 20.4463 3.09375 19.8052 3.09375 19.0145V17.1054Z" />
<path fill-rule="evenodd" clip-rule="evenodd" d="M4.52554 3.26385C4.52554 2.47308 5.19895 1.83203 6.02965 1.83203H19.5666C20.3973 1.83203 21.0707 2.47308 21.0707 3.26385V21.4002C21.0707 22.191 20.3973 22.832 19.5666 22.832H6.02965C5.19895 22.832 4.52554 22.191 4.52554 21.4002V3.26385ZM8.03474 6.12749C8.03474 5.6003 8.46209 5.17294 8.98927 5.17294H17.1076C17.6348 5.17294 18.0621 5.6003 18.0621 6.12749V8.03658C18.0621 8.56376 17.6348 8.99112 17.1076 8.99112H8.98927C8.46209 8.99112 8.03474 8.56376 8.03474 8.03658V6.12749ZM14.8663 12.8087H12.0027L10.2527 16.1496H12.48L11.6845 19.1723L15.5026 15.036H13.1163L14.8663 12.8087Z" />
</g>
</g>
</g>
</g>
</svg>
