<svg width="24" height="24" viewBox="0 0 24 24" xmlns="http://www.w3.org/2000/svg">
<g id="Frame">
<path id="Vector" d="M9.5 10C11.433 10 13 8.433 13 6.5C13 4.56701 11.433 3 9.5 3C7.567 3 6 4.56701 6 6.5C6 8.433 7.567 10 9.5 10Z" />
<path id="Vector (Stroke)" fill-rule="evenodd" clip-rule="evenodd" d="M5.5 6.5C5.5 4.29086 7.29086 2.5 9.5 2.5C11.7091 2.5 13.5 4.29086 13.5 6.5C13.5 8.70914 11.7091 10.5 9.5 10.5C7.29086 10.5 5.5 8.70914 5.5 6.5ZM9.5 3.5C7.84314 3.5 6.5 4.84315 6.5 6.5C6.5 8.15686 7.84314 9.5 9.5 9.5C11.1569 9.5 12.5 8.15686 12.5 6.5C12.5 4.84315 11.1569 3.5 9.5 3.5Z" />
<path id="Vector (Stroke)_2" fill-rule="evenodd" clip-rule="evenodd" d="M15.8756 3.24202C16.0182 3.0055 16.3254 2.92929 16.562 3.07181C17.7223 3.77097 18.5001 5.04445 18.5001 6.50007C18.5001 7.9557 17.7223 9.22918 16.562 9.92834C16.3254 10.0709 16.0182 9.99465 15.8756 9.75813C15.7331 9.52161 15.8093 9.21433 16.0459 9.07181C16.9184 8.54607 17.5001 7.59075 17.5001 6.50007C17.5001 5.4094 16.9184 4.45408 16.0459 3.92834C15.8093 3.78581 15.7331 3.47854 15.8756 3.24202Z" />
<path id="Vector_2" d="M2 20.4V21H17V20.4C17 18.1598 17 17.0397 16.5641 16.184C16.1806 15.4314 15.5686 14.8195 14.816 14.436C13.9603 14 12.8402 14 10.6 14H8.4C6.1598 14 5.0397 14 4.18404 14.436C3.43139 14.8195 2.81947 15.4314 2.43598 16.184C2 17.0397 2 18.1598 2 20.4Z" />
<path id="Vector (Stroke)_3" fill-rule="evenodd" clip-rule="evenodd" d="M8.37738 13.5H10.6226C11.7236 13.5 12.5805 13.5 13.2679 13.5562C13.9658 13.6132 14.5329 13.7306 15.0429 13.9904C15.8897 14.4219 16.5781 15.1103 17.0096 15.9571C17.2694 16.4671 17.3868 17.0342 17.4438 17.7321C17.5 18.4195 17.5 19.2764 17.5 20.3774V21C17.5 21.2761 17.2761 21.5 17 21.5H2C1.72386 21.5 1.5 21.2761 1.5 21V20.3774C1.5 19.2764 1.5 18.4195 1.55616 17.7321C1.61318 17.0342 1.73058 16.4671 1.99047 15.9571C2.42189 15.1103 3.11031 14.4219 3.95704 13.9904C4.4671 13.7306 5.03418 13.6132 5.7321 13.5562C6.41949 13.5 7.27642 13.5 8.37738 13.5ZM4.41102 14.8815C3.75246 15.217 3.21703 15.7525 2.88148 16.411C2.70539 16.7566 2.60481 17.1774 2.55284 17.8135C2.50039 18.4555 2.5 19.2716 2.5 20.4V20.5H16.5V20.4C16.5 19.2716 16.4996 18.4555 16.4472 17.8135C16.3952 17.1775 16.2946 16.7566 16.1185 16.411M4.41102 14.8815C4.75662 14.7054 5.17745 14.6048 5.81353 14.5528C6.45546 14.5004 7.27165 14.5 8.4 14.5H10.6C11.7284 14.5 12.5445 14.5004 13.1865 14.5528C13.8226 14.6048 14.2434 14.7054 14.589 14.8815C15.2475 15.217 15.783 15.7525 16.1185 16.411" />
<path id="Vector (Stroke)_4" fill-rule="evenodd" clip-rule="evenodd" d="M19.3704 14.2091C19.4958 13.9631 19.7969 13.8653 20.0429 13.9906C20.8896 14.4221 21.5781 15.1105 22.0095 15.9572C22.2694 16.4672 22.3868 17.0343 22.4438 17.7322C22.5 18.4196 22.5 19.2766 22.5 20.3775V21.0001C22.5 21.2763 22.2761 21.5001 22 21.5001C21.7238 21.5001 21.5 21.2763 21.5 21.0001V20.4001C21.5 19.2718 21.4996 18.4556 21.4471 17.8137C21.3952 17.1776 21.2946 16.7568 21.1185 16.4112M19.3704 14.2091C19.245 14.4552 19.3429 14.7563 19.5889 14.8816ZM19.5889 14.8816C20.2475 15.2172 20.7829 15.7526 21.1185 16.4112Z" />
</g>
</svg>
