<svg width="24" height="24" viewBox="0 0 24 24"  xmlns="http://www.w3.org/2000/svg">
<g id="Frame">
<path id="Subtract" fill-rule="evenodd" clip-rule="evenodd" d="M2.5 3.5C1.94772 3.5 1.5 3.94772 1.5 4.5V19.5C1.5 20.0523 1.94771 20.5 2.5 20.5H21.5C22.0523 20.5 22.5 20.0523 22.5 19.5V7C22.5 6.44772 22.0523 6 21.5 6H12.2403L10.2403 3.5H2.5ZM10.75 10.25C10.75 11.4926 9.74264 12.5 8.5 12.5C7.25736 12.5 6.25 11.4926 6.25 10.25C6.25 9.00736 7.25736 8 8.5 8C9.74264 8 10.75 9.00736 10.75 10.25ZM4 17.5V17.2C4 16.0799 4 15.5198 4.21799 15.092C4.40973 14.7157 4.7157 14.4097 5.09203 14.218C5.51985 14 6.0799 14 7.2 14H9.8C10.9201 14 11.4802 14 11.908 14.218C12.2843 14.4097 12.5903 14.7157 12.782 15.092C13 15.5198 13 16.0799 13 17.2V17.5H4ZM15 9H21V11H15V9ZM19 12H15V14H19V12Z" />
</g>
</svg>
