<svg width="24" height="24" viewBox="0 0 24 24"  xmlns="http://www.w3.org/2000/svg">
<g id="Frame">
<g id="Vector">
<path d="M18.5 22C19.6046 22 20.5 21.1046 20.5 20C20.5 18.8954 19.6046 18 18.5 18C17.3954 18 16.5 18.8954 16.5 20C16.5 21.1046 17.3954 22 18.5 22Z" />
<path fill-rule="evenodd" clip-rule="evenodd" d="M16 20C16 18.6193 17.1193 17.5 18.5 17.5C19.8807 17.5 21 18.6193 21 20C21 21.3807 19.8807 22.5 18.5 22.5C17.1193 22.5 16 21.3807 16 20ZM18.5 18.5C17.6716 18.5 17 19.1716 17 20C17 20.8284 17.6716 21.5 18.5 21.5C19.3284 21.5 20 20.8284 20 20C20 19.1716 19.3284 18.5 18.5 18.5Z" />
<path d="M5.5 6C6.60455 6 7.5 5.10455 7.5 4C7.5 2.89543 6.60455 2 5.5 2C4.39543 2 3.5 2.89543 3.5 4C3.5 5.10455 4.39543 6 5.5 6Z" />
<path fill-rule="evenodd" clip-rule="evenodd" d="M3 4C3 2.61929 4.11929 1.5 5.5 1.5C6.88069 1.5 8 2.61928 8 4C8 5.38069 6.88069 6.5 5.5 6.5C4.11928 6.5 3 5.38069 3 4ZM5.5 2.5C4.67157 2.5 4 3.17157 4 4C4 4.82841 4.67158 5.5 5.5 5.5C6.32841 5.5 7 4.82841 7 4C7 3.17158 6.32841 2.5 5.5 2.5Z" />
<path d="M5.5 22C6.60455 22 7.5 21.1046 7.5 20C7.5 18.8954 6.60455 18 5.5 18C4.39543 18 3.5 18.8954 3.5 20C3.5 21.1046 4.39543 22 5.5 22Z" />
<path fill-rule="evenodd" clip-rule="evenodd" d="M3 20C3 18.6193 4.11928 17.5 5.5 17.5C6.88069 17.5 8 18.6193 8 20C8 21.3807 6.88069 22.5 5.5 22.5C4.11928 22.5 3 21.3807 3 20ZM5.5 18.5C4.67158 18.5 4 19.1716 4 20C4 20.8284 4.67158 21.5 5.5 21.5C6.32841 21.5 7 20.8284 7 20C7 19.1716 6.32841 18.5 5.5 18.5Z" />
<path fill-rule="evenodd" clip-rule="evenodd" d="M5.5 5.5C5.77614 5.5 6 5.72386 6 6V18C6 18.2761 5.77614 18.5 5.5 18.5C5.22386 18.5 5 18.2761 5 18V6C5 5.72386 5.22386 5.5 5.5 5.5Z" />
<path fill-rule="evenodd" clip-rule="evenodd" d="M11.5 5C11.5 4.72386 11.7239 4.5 12 4.5H16.5C17.8807 4.5 19 5.61931 19 7V18C19 18.2761 18.7761 18.5 18.5 18.5C18.2239 18.5 18 18.2761 18 18V7C18 6.17159 17.3284 5.5 16.5 5.5H12C11.7239 5.5 11.5 5.27614 11.5 5Z" />
<path fill-rule="evenodd" clip-rule="evenodd" d="M15.3536 1.64645C15.5488 1.84171 15.5488 2.15829 15.3536 2.35355L12.7071 5L15.3536 7.64645C15.5488 7.84171 15.5488 8.15829 15.3536 8.35355C15.1583 8.54882 14.8417 8.54882 14.6464 8.35355L11.6464 5.35355C11.4512 5.15829 11.4512 4.84171 11.6464 4.64645L14.6464 1.64645C14.8417 1.45118 15.1583 1.45118 15.3536 1.64645Z" />
</g>
</g>
</svg>
