<svg width="24" height="24" viewBox="0 0 24 24"  xmlns="http://www.w3.org/2000/svg">
<g id="Group 427320875">
<g id="Frame">
<path id="Subtract" fill-rule="evenodd" clip-rule="evenodd" d="M9 1.5C9.27614 1.5 9.5 1.72386 9.5 2V3.5H14.5V2C14.5 1.72386 14.7239 1.5 15 1.5C15.2761 1.5 15.5 1.72386 15.5 2V3.5H18.5C19.3284 3.5 20 4.17157 20 5V16.742C19.4376 16.2382 18.6728 15.9533 17.8552 16.0063C16.3385 16.1049 15.161 17.3327 15.1643 18.8119C13.9135 18.8671 12.9454 19.8988 13.0024 21.116C13.0272 21.651 13.2458 22.1327 13.5892 22.5H5.5C4.67157 22.5 4 21.8284 4 21V5C4 4.17157 4.67157 3.5 5.5 3.5H8.5V2C8.5 1.72386 8.72386 1.5 9 1.5ZM7.5 9.5C7.5 9.22386 7.72386 9 8 9H16C16.2761 9 16.5 9.22386 16.5 9.5C16.5 9.77614 16.2761 10 16 10H8C7.72386 10 7.5 9.77614 7.5 9.5ZM8 13C7.72386 13 7.5 13.2239 7.5 13.5C7.5 13.7761 7.72386 14 8 14H14C14.2761 14 14.5 13.7761 14.5 13.5C14.5 13.2239 14.2761 13 14 13H8ZM7.5 17.5C7.5 17.2239 7.72386 17 8 17H12C12.2761 17 12.5 17.2239 12.5 17.5C12.5 17.7761 12.2761 18 12 18H8C7.72386 18 7.5 17.7761 7.5 17.5Z" />
<path id="Vector" d="M20.7661 23.7482H16.1331C15.0074 23.7977 14.0531 22.9502 14.0024 21.8544C13.9511 20.7589 14.8224 19.8304 15.9481 19.7807C15.9451 18.4494 17.0049 17.3444 18.3699 17.2557C19.7349 17.1672 20.9361 18.1252 21.1149 19.4452C22.2654 19.6177 23.0846 20.6247 22.9931 21.7539C22.9016 22.8834 21.9306 23.7532 20.7664 23.7482H20.7661Z" />
</g>
</g>
</svg>
