<svg width="24" height="24" viewBox="0 0 24 24" xmlns="http://www.w3.org/2000/svg">
<g id="Frame">
<path id="Vector" d="M2 21H22" stroke="#8D9094" stroke-width="1.5" stroke-linecap="round" stroke-linejoin="round"/>
<path id="Subtract" fill-rule="evenodd" clip-rule="evenodd" d="M11 1.5C10.1716 1.5 9.5 2.17157 9.5 3V10.5854C9.34361 10.5301 9.17532 10.5 9 10.5H5C4.17157 10.5 3.5 11.1716 3.5 12V20C3.5 20.8284 4.17157 21.5 5 21.5H9C9.38418 21.5 9.73462 21.3556 10 21.118C10.2654 21.3556 10.6158 21.5 11 21.5H19C19.8284 21.5 20.5 20.8284 20.5 20V3C20.5 2.17157 19.8284 1.5 19 1.5H11ZM14 6.25391C13.5858 6.25391 13.25 6.58969 13.25 7.00391C13.25 7.41812 13.5858 7.75391 14 7.75391H16C16.4142 7.75391 16.75 7.41812 16.75 7.00391C16.75 6.58969 16.4142 6.25391 16 6.25391H14ZM14 10.7539C13.5858 10.7539 13.25 11.0897 13.25 11.5039C13.25 11.9181 13.5858 12.2539 14 12.2539H16C16.4142 12.2539 16.75 11.9181 16.75 11.5039C16.75 11.0897 16.4142 10.7539 16 10.7539H14ZM6 15.2539C5.58579 15.2539 5.25 15.5897 5.25 16.0039C5.25 16.4181 5.58579 16.7539 6 16.7539H8C8.41421 16.7539 8.75 16.4181 8.75 16.0039C8.75 15.5897 8.41421 15.2539 8 15.2539H6ZM14 15.2539C13.5858 15.2539 13.25 15.5897 13.25 16.0039C13.25 16.4181 13.5858 16.7539 14 16.7539H16C16.4142 16.7539 16.75 16.4181 16.75 16.0039C16.75 15.5897 16.4142 15.2539 16 15.2539H14Z"/>
</g>
</svg>
