<svg width="24" height="24" viewBox="0 0 24 24" xmlns="http://www.w3.org/2000/svg">
<g id="Frame">
<g id="Vector">
<path fill-rule="evenodd" clip-rule="evenodd" d="M12 16C12.2761 16 12.5 16.2239 12.5 16.5V19.5C12.5 19.7761 12.2761 20 12 20C11.7239 20 11.5 19.7761 11.5 19.5V16.5C11.5 16.2239 11.7239 16 12 16Z"/>
<path fill-rule="evenodd" clip-rule="evenodd" d="M1.5 3.5C1.5 3.22386 1.72386 3 2 3H22C22.2761 3 22.5 3.22386 22.5 3.5V16.5C22.5 16.7761 22.2761 17 22 17H2C1.72386 17 1.5 16.7761 1.5 16.5V3.5ZM9.64652 7.64653C9.84178 7.45127 10.1584 7.45127 10.3536 7.64653L11.7678 9.06074L13.1821 7.64652C13.3773 7.45126 13.6939 7.45126 13.8892 7.64652C14.0844 7.84178 14.0844 8.15837 13.8892 8.35363L12.4749 9.76785L13.8892 11.1821C14.0844 11.3773 14.0844 11.6939 13.8892 11.8892C13.6939 12.0844 13.3773 12.0844 13.1821 11.8892L11.7678 10.475L10.3536 11.8892C10.1584 12.0844 9.84178 12.0844 9.64652 11.8892C9.45126 11.6939 9.45126 11.3773 9.64652 11.1821L11.0607 9.76785L9.64652 8.35364C9.45126 8.15838 9.45126 7.8418 9.64652 7.64653Z"/>
<path fill-rule="evenodd" clip-rule="evenodd" d="M5.5 20.5C5.5 20.2239 5.72386 20 6 20H18C18.2761 20 18.5 20.2239 18.5 20.5C18.5 20.7761 18.2761 21 18 21H6C5.72386 21 5.5 20.7761 5.5 20.5Z"/>
</g>
</g>
</svg>
