<svg width="18" height="19" viewBox="0 0 18 19" xmlns="http://www.w3.org/2000/svg">
<g id="Frame">
<path id="Subtract" fill-rule="evenodd" clip-rule="evenodd" d="M3.375 2.625C2.54657 2.625 1.875 3.29657 1.875 4.125V15.375C1.875 16.2034 2.54657 16.875 3.375 16.875H14.625C15.4534 16.875 16.125 16.2034 16.125 15.375V4.125C16.125 3.29657 15.4534 2.625 14.625 2.625H3.375ZM7.49656 5.94935C7.47326 5.77846 7.3364 5.6455 7.16491 5.62714C6.99342 5.60879 6.83152 5.70977 6.77258 5.87186L5.36234 9.75002H4.5C4.29289 9.75002 4.125 9.91791 4.125 10.125C4.125 10.3321 4.29289 10.5 4.5 10.5H5.625C5.78269 10.5 5.92353 10.4014 5.97742 10.2532L6.95857 7.555L7.87844 14.3007C7.90157 14.4703 8.03663 14.6027 8.20666 14.6225C8.3767 14.6423 8.53855 14.5444 8.6 14.3846L10.2149 10.1859L11.313 11.833C11.3805 11.9343 11.4929 11.9965 11.6146 11.9999C11.7363 12.0032 11.852 11.9474 11.925 11.85L12.9375 10.5H13.875C14.0821 10.5 14.25 10.3321 14.25 10.125C14.25 9.91791 14.0821 9.75002 13.875 9.75002H12.75C12.632 9.75002 12.5208 9.80559 12.45 9.90001L11.643 10.976L10.437 9.167C10.3593 9.05038 10.223 8.98685 10.0837 9.0023C9.94437 9.01774 9.82531 9.10958 9.775 9.2404L8.42424 12.7524L7.49656 5.94935Z" />
</g>
</svg>
