<svg width="24" height="24" viewBox="0 0 24 24" xmlns="http://www.w3.org/2000/svg">
<g id="Frame">
<path id="Subtract" fill-rule="evenodd" clip-rule="evenodd" d="M4.5 2.5C3.39543 2.5 2.5 3.39543 2.5 4.5V19.5C2.5 20.6046 3.39544 21.5 4.5 21.5H19.5C20.6046 21.5 21.5 20.6046 21.5 19.5V4.5C21.5 3.39544 20.6046 2.5 19.5 2.5H4.5ZM17.3536 9.85355C17.5488 9.65829 17.5488 9.34171 17.3536 9.14645C17.1583 8.95118 16.8417 8.95118 16.6464 9.14645L13.1093 12.6836L11.4341 9.75193C11.3568 9.61663 11.2208 9.52511 11.0664 9.50442C10.9119 9.48374 10.7566 9.53625 10.6464 9.64645L6.64645 13.6464C6.45118 13.8417 6.45118 14.1583 6.64645 14.3536C6.84171 14.5488 7.15829 14.5488 7.35355 14.3536L10.8907 10.8164L12.5659 13.7481C12.6432 13.8834 12.7792 13.9749 12.9336 13.9956C13.0881 14.0163 13.2434 13.9637 13.3536 13.8536L17.3536 9.85355Z"/>
</g>
</svg>
