<svg width="24" height="24" viewBox="0 0 24 24" xmlns="http://www.w3.org/2000/svg">
<g id="Group 427320860">
<g id="Frame">
<path id="Vector" d="M9 2V5" stroke="#546FFF" stroke-linecap="round" stroke-linejoin="round"/>
<path id="Vector_2" d="M15 2V5" stroke="#546FFF" stroke-linecap="round" stroke-linejoin="round"/>
<path id="Subtract" fill-rule="evenodd" clip-rule="evenodd" d="M4.5 3.5C3.67157 3.5 3 4.17157 3 5V21C3 21.8284 3.67157 22.5 4.5 22.5H19.5C20.3284 22.5 21 21.8284 21 21V5C21 4.17157 20.3284 3.5 19.5 3.5H4.5ZM9.4 7.70003C9.23431 7.47912 8.92091 7.43434 8.7 7.60003C8.47909 7.76571 8.43431 8.07912 8.6 8.30003L11 11.5H8.5C8.22386 11.5 8 11.7239 8 12C8 12.2762 8.22386 12.5 8.5 12.5H11.5V14.5H8.5C8.22386 14.5 8 14.7239 8 15C8 15.2762 8.22386 15.5 8.5 15.5H11.5V18C11.5 18.2762 11.7239 18.5 12 18.5C12.2761 18.5 12.5 18.2762 12.5 18V15.5H15.5C15.7761 15.5 16 15.2762 16 15C16 14.7239 15.7761 14.5 15.5 14.5H12.5V12.5H15.5C15.7761 12.5 16 12.2762 16 12C16 11.7239 15.7761 11.5 15.5 11.5H13L15.4 8.30003C15.5657 8.07912 15.5209 7.76571 15.3 7.60003C15.0791 7.43434 14.7657 7.47912 14.6 7.70003L12 11.1667L9.4 7.70003Z"/>
</g>
</g>
</svg>
