<svg width="24" height="24" viewBox="0 0 24 24"  xmlns="http://www.w3.org/2000/svg">
<g id="Frame">
<path id="Vector (Stroke)" fill-rule="evenodd" clip-rule="evenodd" d="M9.5 12C9.5 11.7239 9.72386 11.5 10 11.5H22C22.2761 11.5 22.5 11.7239 22.5 12C22.5 12.2761 22.2761 12.5 22 12.5H10C9.72386 12.5 9.5 12.2761 9.5 12Z" />
<path id="Vector (Stroke)_2" fill-rule="evenodd" clip-rule="evenodd" d="M9.5 19C9.5 18.7239 9.72386 18.5 10 18.5H22C22.2761 18.5 22.5 18.7239 22.5 19C22.5 19.2761 22.2761 19.5 22 19.5H10C9.72386 19.5 9.5 19.2761 9.5 19Z" />
<path id="Vector (Stroke)_3" fill-rule="evenodd" clip-rule="evenodd" d="M9.5 5C9.5 4.72386 9.72386 4.5 10 4.5H22C22.2761 4.5 22.5 4.72386 22.5 5C22.5 5.27614 22.2761 5.5 22 5.5H10C9.72386 5.5 9.5 5.27614 9.5 5Z" />
<path id="Vector" d="M6 17H2V21H6V17Z" />
<path id="Vector (Stroke)_4" fill-rule="evenodd" clip-rule="evenodd" d="M1.5 17C1.5 16.7239 1.72386 16.5 2 16.5H6C6.27614 16.5 6.5 16.7239 6.5 17V21C6.5 21.2761 6.27614 21.5 6 21.5H2C1.72386 21.5 1.5 21.2761 1.5 21V17ZM2.5 17.5V20.5H5.5V17.5H2.5Z" />
<path id="Vector_2" d="M6 10H2V14H6V10Z" />
<path id="Vector (Stroke)_5" fill-rule="evenodd" clip-rule="evenodd" d="M1.5 10C1.5 9.72386 1.72386 9.5 2 9.5H6C6.27614 9.5 6.5 9.72386 6.5 10V14C6.5 14.2761 6.27614 14.5 6 14.5H2C1.72386 14.5 1.5 14.2761 1.5 14V10ZM2.5 10.5V13.5H5.5V10.5H2.5Z" />
<path id="Vector_3" d="M6 3H2V7H6V3Z" />
<path id="Vector (Stroke)_6" fill-rule="evenodd" clip-rule="evenodd" d="M1.5 3C1.5 2.72386 1.72386 2.5 2 2.5H6C6.27614 2.5 6.5 2.72386 6.5 3V7C6.5 7.27614 6.27614 7.5 6 7.5H2C1.72386 7.5 1.5 7.27614 1.5 7V3ZM2.5 3.5V6.5H5.5V3.5H2.5Z" />
</g>
</svg>
