<svg width="24" height="24" viewBox="0 0 24 24" xmlns="http://www.w3.org/2000/svg">
<g id="Frame">
<path id="Vector" d="M15.5 3H8.5V7.5H15.5V3Z" />
<path id="Vector (Stroke)" fill-rule="evenodd" clip-rule="evenodd" d="M8 3C8 2.72386 8.22386 2.5 8.5 2.5H15.5C15.7761 2.5 16 2.72386 16 3V7.5C16 7.77614 15.7761 8 15.5 8H8.5C8.22386 8 8 7.77614 8 7.5V3ZM9 3.5V7H15V3.5H9Z" />
<path id="Vector_2" d="M10 16.5H3V21H10V16.5Z" />
<path id="Vector (Stroke)_2" fill-rule="evenodd" clip-rule="evenodd" d="M2.5 16.5C2.5 16.2239 2.72386 16 3 16H10C10.2761 16 10.5 16.2239 10.5 16.5V21C10.5 21.2761 10.2761 21.5 10 21.5H3C2.72386 21.5 2.5 21.2761 2.5 21V16.5ZM3.5 17V20.5H9.5V17H3.5Z" />
<path id="Vector_3" d="M21 16.5H14V21H21V16.5Z" />
<path id="Vector (Stroke)_3" fill-rule="evenodd" clip-rule="evenodd" d="M13.5 16.5C13.5 16.2239 13.7239 16 14 16H21C21.2761 16 21.5 16.2239 21.5 16.5V21C21.5 21.2761 21.2761 21.5 21 21.5H14C13.7239 21.5 13.5 21.2761 13.5 21V16.5ZM14.5 17V20.5H20.5V17H14.5Z" />
<path id="Vector (Stroke)_4" fill-rule="evenodd" clip-rule="evenodd" d="M12 7.5C12.2761 7.5 12.5 7.72386 12.5 8V12C12.5 12.2761 12.2761 12.5 12 12.5C11.7239 12.5 11.5 12.2761 11.5 12V8C11.5 7.72386 11.7239 7.5 12 7.5Z" />
<path id="Vector (Stroke)_5" fill-rule="evenodd" clip-rule="evenodd" d="M6 12C6 11.7239 6.22386 11.5 6.5 11.5H17.5C17.7761 11.5 18 11.7239 18 12V16.5C18 16.7761 17.7761 17 17.5 17C17.2239 17 17 16.7761 17 16.5V12.5H7V16.5C7 16.7761 6.77614 17 6.5 17C6.22386 17 6 16.7761 6 16.5V12Z" />
</g>
</svg>
