<svg width="24" height="24" viewBox="0 0 24 24"  xmlns="http://www.w3.org/2000/svg">
<g id="Frame">
<g id="Vector">
<path fill-rule="evenodd" clip-rule="evenodd" d="M3.5 2.5C2.67157 2.5 2 3.17157 2 4V20C2 20.8284 2.67158 21.5 3.5 21.5H20.5C21.3284 21.5 22 20.8284 22 20V7C22 6.17156 21.3284 5.5 20.5 5.5H12.2342L9.88411 2.67991C9.78911 2.56591 9.64839 2.5 9.5 2.5H3.5ZM21.5 10.5H2.5V11.5H21.5V10.5Z" />
<path fill-rule="evenodd" clip-rule="evenodd" d="M2.5 7.5C2.77614 7.5 3 7.72386 3 8V14C3 14.2761 2.77614 14.5 2.5 14.5C2.22386 14.5 2 14.2761 2 14V8C2 7.72386 2.22386 7.5 2.5 7.5Z" />
<path fill-rule="evenodd" clip-rule="evenodd" d="M21.5 7.5C21.7761 7.5 22 7.72386 22 8V14C22 14.2761 21.7761 14.5 21.5 14.5C21.2239 14.5 21 14.2761 21 14V8C21 7.72386 21.2239 7.5 21.5 7.5Z" />
</g>
</g>
</svg>
