<svg width="24" height="24" viewBox="0 0 24 24" xmlns="http://www.w3.org/2000/svg">
<g id="Frame">
<path id="Vector" d="M21 10H22C22.5523 10 23 10.4477 23 11V13C23 13.5523 22.5523 14 22 14H21V10Z" />
<path id="Subtract" fill-rule="evenodd" clip-rule="evenodd" d="M1.5 8C1.5 7.17155 2.17158 6.5 3 6.5H19C19.8284 6.5 20.5 7.17156 20.5 8V16C20.5 16.8284 19.8284 17.5 19 17.5H3C2.17158 17.5 1.5 16.8284 1.5 16V8ZM6.5 9.75C6.91421 9.75 7.25 10.0858 7.25 10.5V13.5C7.25 13.9142 6.91421 14.25 6.5 14.25C6.08579 14.25 5.75 13.9142 5.75 13.5V10.5C5.75 10.0858 6.08579 9.75 6.5 9.75ZM10.25 10.5C10.25 10.0858 9.91421 9.75 9.5 9.75C9.08579 9.75 8.75 10.0858 8.75 10.5V13.5C8.75 13.9142 9.08579 14.25 9.5 14.25C9.91421 14.25 10.25 13.9142 10.25 13.5V10.5Z" />
</g>
</svg>
