<svg width="24" height="24" viewBox="0 0 24 24"  xmlns="http://www.w3.org/2000/svg">
<g id="Frame">
<path id="Vector" d="M12 10C13.933 10 15.5 8.433 15.5 6.5C15.5 4.56701 13.933 3 12 3C10.067 3 8.5 4.56701 8.5 6.5C8.5 8.433 10.067 10 12 10Z"/>
<path id="Vector (Stroke)" fill-rule="evenodd" clip-rule="evenodd" d="M8 6.5C8 4.29086 9.79086 2.5 12 2.5C14.2091 2.5 16 4.29086 16 6.5C16 8.70914 14.2091 10.5 12 10.5C9.79086 10.5 8 8.70914 8 6.5ZM12 3.5C10.3431 3.5 9 4.84315 9 6.5C9 8.15686 10.3431 9.5 12 9.5C13.6569 9.5 15 8.15686 15 6.5C15 4.84315 13.6569 3.5 12 3.5Z"/>
<path id="Vector_2" d="M3 20.4V21H21V20.4C21 18.1598 21 17.0397 20.5641 16.184C20.1806 15.4314 19.5686 14.8195 18.816 14.436C17.9603 14 16.8402 14 14.6 14H9.4C7.1598 14 6.0397 14 5.18405 14.436C4.43139 14.8195 3.81947 15.4314 3.43598 16.184C3 17.0397 3 18.1598 3 20.4Z"/>
<path id="Vector (Stroke)_2" fill-rule="evenodd" clip-rule="evenodd" d="M9.37738 13.5H14.6226C15.7236 13.5 16.5805 13.5 17.2679 13.5562C17.9658 13.6132 18.5329 13.7306 19.0429 13.9904C19.8897 14.4219 20.5781 15.1103 21.0096 15.9571C21.2694 16.4671 21.3868 17.0342 21.4438 17.7321C21.5 18.4195 21.5 19.2764 21.5 20.3774V21C21.5 21.2761 21.2761 21.5 21 21.5H3C2.72386 21.5 2.5 21.2761 2.5 21V20.3774C2.5 19.2764 2.5 18.4195 2.55616 17.7321C2.61318 17.0342 2.73058 16.4671 2.99047 15.9571C3.42189 15.1103 4.11031 14.4219 4.95705 13.9904C5.46711 13.7306 6.03418 13.6132 6.7321 13.5562C7.41949 13.5 8.27642 13.5 9.37738 13.5ZM6.81353 14.5528C6.17745 14.6048 5.75663 14.7054 5.41103 14.8815C4.75246 15.217 4.21704 15.7525 3.88148 16.411C3.70539 16.7566 3.60481 17.1774 3.55284 17.8135C3.50039 18.4555 3.5 19.2716 3.5 20.4V20.5H20.5V20.4C20.5 19.2716 20.4996 18.4555 20.4472 17.8135C20.3952 17.1774 20.2946 16.7566 20.1185 16.411C20.1185 16.411 20.1185 16.411 20.1185 16.411C19.783 15.7525 19.2475 15.217 18.589 14.8815C18.2434 14.7054 17.8226 14.6048 17.1865 14.5528C16.5445 14.5004 15.7284 14.5 14.6 14.5H9.4C8.27165 14.5 7.45546 14.5004 6.81353 14.5528Z"/>
</g>
</svg>
