<svg width="17" height="16" viewBox="0 0 17 16" fill="none" xmlns="http://www.w3.org/2000/svg">
<g id="&#233;&#128;&#154;&#231;&#148;&#168;/arrow-circle-right">
<path id="Union" d="M8.60157 15C7.2171 15 5.86372 14.5895 4.71257 13.8203C3.56143 13.0511 2.66422 11.9579 2.13441 10.6788C1.6046 9.3997 1.46597 7.99224 1.73607 6.63437C2.00617 5.2765 2.67285 4.02922 3.65182 3.05026C4.63079 2.07129 5.87807 1.4046 7.23593 1.13451C8.5938 0.86441 10.0013 1.00303 11.2803 1.53285C12.5594 2.06266 13.6527 2.95987 14.4219 4.11101C15.191 5.26216 15.6016 6.61553 15.6016 8C15.5994 9.85587 14.8613 11.6351 13.549 12.9474C12.2367 14.2597 10.4574 14.9979 8.60157 15V15ZM8.60157 2C7.41488 2 6.25484 2.3519 5.26814 3.01119C4.28145 3.67047 3.51241 4.60755 3.05829 5.7039C2.60416 6.80026 2.48534 8.00666 2.71685 9.17054C2.94837 10.3344 3.51981 11.4035 4.35892 12.2426C5.19804 13.0818 6.26714 13.6532 7.43102 13.8847C8.59491 14.1162 9.80131 13.9974 10.8977 13.5433C11.994 13.0892 12.9311 12.3201 13.5904 11.3334C14.2497 10.3467 14.6016 9.18669 14.6016 8C14.5997 6.40927 13.967 4.88423 12.8422 3.75941C11.7173 2.63459 10.1923 2.00186 8.60157 2V2ZM7.51557 11.5L6.80957 10.793L9.60157 8L6.80857 5.208L7.51557 4.5L11.0156 8L7.51557 11.5Z" fill="#3B82F6"/>
</g>
</svg>
