<svg width="17" height="16" viewBox="0 0 17 16" fill="none" xmlns="http://www.w3.org/2000/svg">
<g id="&#233;&#128;&#154;&#231;&#148;&#168;/arrow-circle-left">
<g id="Union">
<path d="M10.3945 10.7929L7.60156 7.99996L10.3945 5.20703L9.68738 4.49993L6.18735 7.99996L9.68738 11.5L10.3945 10.7929Z" fill="#8D9094"/>
<path d="M8.60156 1C12.4676 1 15.6016 4.13401 15.6016 8C15.6016 11.866 12.4676 15 8.60156 15C4.73557 15 1.60156 11.866 1.60156 8C1.60156 4.13401 4.73557 1 8.60156 1ZM8.60156 2C5.28785 2 2.60156 4.68629 2.60156 8C2.60156 11.3137 5.28785 14 8.60156 14C11.9153 14 14.6016 11.3137 14.6016 8C14.6016 4.68629 11.9153 2 8.60156 2Z" fill="#8D9094"/>
</g>
</g>
</svg>
