<svg width="32" height="32" viewBox="0 0 32 32" fill="none" xmlns="http://www.w3.org/2000/svg">
<g id="Group 427320926">
<g id="Group 427320892">
<g id="Group 427320891">
<g id="Group 427320889">
<path id="Vector" d="M2 13.6777C2 6.12645 8.12648 0 15.6777 0C23.229 0 29.3555 6.12645 29.3555 13.7061C29.3555 20.26 24.7392 25.7311 18.5843 27.0703L15.7347 32L12.8852 27.0703C6.67323 25.7881 2 20.26 2 13.6777Z" fill="#3B82F6"/>
</g>
</g>
<g id="Frame">
<path id="Vector_2" d="M21.8163 19.0322H21.4883V11.9682C21.4883 11.6962 21.2643 11.4642 20.9843 11.4642H18.5203C18.4483 11.4642 18.4003 11.5202 18.4003 11.5842V19.0242H17.8643V8.69619C17.8643 8.31219 17.5443 7.99219 17.1603 7.99219H11.3203C10.9363 7.99219 10.6163 8.31219 10.6163 8.69619V19.0322H10.3123C10.0643 19.0322 9.86426 19.2322 9.86426 19.4802C9.86426 19.7282 10.0643 19.9282 10.3123 19.9282H21.8243C22.0723 19.9282 22.2723 19.7282 22.2723 19.4802C22.2723 19.2322 22.0643 19.0322 21.8163 19.0322ZM12.8803 10.8482H15.6083C15.8323 10.8482 16.0083 11.0242 16.0083 11.2482C16.0083 11.4722 15.8323 11.6482 15.6083 11.6482H12.8803C12.6563 11.6482 12.4803 11.4722 12.4803 11.2482C12.4883 11.0242 12.6643 10.8482 12.8803 10.8482ZM12.8803 13.0402H15.6083C15.8323 13.0402 16.0083 13.2162 16.0083 13.4402C16.0083 13.6642 15.8323 13.8402 15.6083 13.8402H12.8803C12.6563 13.8402 12.4803 13.6642 12.4803 13.4402C12.4803 13.2162 12.6643 13.0402 12.8803 13.0402ZM12.8803 15.2482H15.6083C15.8323 15.2482 16.0083 15.4242 16.0083 15.6482C16.0083 15.8722 15.8323 16.0482 15.6083 16.0482H12.8803C12.6563 16.0482 12.4803 15.8722 12.4803 15.6482C12.4803 15.4242 12.6643 15.2482 12.8803 15.2482Z" fill="white"/>
</g>
</g>
</g>
</svg>
