<svg width="96" height="96" viewBox="0 0 96 96" fill="none" xmlns="http://www.w3.org/2000/svg">
<g id="Group 427320906">
<g id="Setting">
<g id="Bg">
<g id="Path" filter="url(#filter0_b_369_141383)">
<path d="M60.8712 45.578C60.3023 44.6909 59.494 43.8038 58.4461 43.242C57.6078 42.828 57.0689 42.1479 56.5899 41.3495C55.063 38.8065 55.9612 35.4651 58.506 33.957C61.4999 32.2715 62.4579 28.5161 60.7215 25.5887L58.7156 22.0995C57.0091 19.172 53.2667 18.1371 50.3027 19.8522C47.6681 21.2715 44.285 20.3253 42.7581 17.8118C42.2791 16.9839 42.0097 16.0968 42.0695 15.2097C42.1593 14.0565 41.8001 12.9624 41.2612 12.0753C40.1534 10.2419 38.1475 9 35.9321 9H31.7107C29.5251 9.05914 27.5192 10.2419 26.4115 12.0753C25.8426 12.9624 25.5133 14.0565 25.5732 15.2097C25.6331 16.0968 25.3636 16.9839 24.8846 17.8118C23.3577 20.3253 19.9746 21.2715 17.3699 19.8522C14.376 18.1371 10.6636 19.172 8.92714 22.0995L6.92123 25.5887C5.21471 28.5161 6.17276 32.2715 9.13671 33.957C11.6815 35.4651 12.5797 38.8065 11.0827 41.3495C10.5738 42.1479 10.0349 42.828 9.19659 43.242C8.17866 43.8038 7.2805 44.6909 6.80147 45.578C5.69373 47.4113 5.75361 49.7178 6.86135 51.6398L8.92714 55.1882C10.0349 57.0807 12.1007 58.2635 14.2563 58.2635C15.2742 58.2635 16.4717 57.9678 17.4298 57.3764C18.1783 56.8737 19.0764 56.6963 20.0644 56.6963C23.0284 56.6963 25.5133 59.1506 25.5732 62.078C25.5732 65.4785 28.3276 68.1398 31.8005 68.1398H35.8722C39.3152 68.1398 42.0695 65.4785 42.0695 62.078C42.1593 59.1506 44.6443 56.6963 47.6082 56.6963C48.5663 56.6963 49.4644 56.8737 50.2429 57.3764C51.2009 57.9678 52.3685 58.2635 53.4164 58.2635C55.5421 58.2635 57.6078 57.0807 58.7156 55.1882L60.8113 51.6398C61.8891 49.6586 61.9789 47.4113 60.8712 45.578" fill="url(#paint0_linear_369_141383)"/>
</g>
<g id="Path_2" opacity="0.5" filter="url(#filter1_f_369_141383)">
<path d="M47.9629 42.3425C47.6696 41.8859 47.2528 41.4293 46.7125 41.1402C46.2802 40.9271 46.0023 40.577 45.7553 40.1661C44.968 38.8572 45.4312 37.1373 46.7433 36.3611C48.2871 35.4936 48.781 33.5607 47.8857 32.0539L46.8514 30.258C45.9715 28.7512 44.0418 28.2185 42.5135 29.1013C41.155 29.8318 39.4106 29.3448 38.6233 28.0511C38.3763 27.625 38.2374 27.1684 38.2683 26.7118C38.3146 26.1182 38.1293 25.5551 37.8515 25.0985C37.2803 24.1549 36.246 23.5156 35.1036 23.5156H32.927C31.8001 23.5461 30.7658 24.1549 30.1946 25.0985C29.9013 25.5551 29.7315 26.1182 29.7623 26.7118C29.7932 27.1684 29.6543 27.625 29.4073 28.0511C28.62 29.3448 26.8756 29.8318 25.5325 29.1013C23.9888 28.2185 22.0746 28.7512 21.1792 30.258L20.1449 32.0539C19.265 33.5607 19.759 35.4936 21.2873 36.3611C22.5995 37.1373 23.0626 38.8572 22.2907 40.1661C22.0283 40.577 21.7504 40.9271 21.3182 41.1402C20.7933 41.4293 20.3302 41.8859 20.0832 42.3425C19.512 43.2862 19.5429 44.4733 20.1141 45.4626L21.1792 47.289C21.7504 48.263 22.8156 48.8718 23.9271 48.8718C24.4519 48.8718 25.0694 48.7196 25.5634 48.4152C25.9493 48.1565 26.4125 48.0652 26.9219 48.0652C28.4502 48.0652 29.7315 49.3284 29.7623 50.8352C29.7623 52.5855 31.1826 53.9552 32.9733 53.9552H35.0728C36.848 53.9552 38.2683 52.5855 38.2683 50.8352C38.3146 49.3284 39.5959 48.0652 41.1242 48.0652C41.6182 48.0652 42.0813 48.1565 42.4826 48.4152C42.9766 48.7196 43.5787 48.8718 44.119 48.8718C45.215 48.8718 46.2802 48.263 46.8514 47.289L47.932 45.4626C48.4877 44.4429 48.5341 43.2862 47.9629 42.3425" fill="#8237FF"/>
</g>
</g>
<g id="Icon">
<g id="Path_3" filter="url(#filter2_b_369_141383)">
<path d="M89.0424 60.7556C88.3528 59.6902 87.3729 58.6248 86.1027 57.9501C85.0865 57.4529 84.4332 56.6361 83.8525 55.6773C82.0015 52.6232 83.0903 48.6102 86.1752 46.799C89.8046 44.7748 90.9659 40.2647 88.8609 36.7489L86.4293 32.5584C84.3606 29.0426 79.8239 27.7997 76.2309 29.8594C73.0371 31.564 68.936 30.4276 67.085 27.409C66.5044 26.4146 66.1777 25.3493 66.2503 24.2839C66.3592 22.8989 65.9237 21.5849 65.2704 20.5195C63.9275 18.3177 61.4959 16.8262 58.8102 16.8262H53.6929C51.0435 16.8972 48.6118 18.3177 47.269 20.5195C46.5794 21.5849 46.1802 22.8989 46.2528 24.2839C46.3254 25.3493 45.9987 26.4146 45.418 27.409C43.5671 30.4276 39.466 31.564 36.3085 29.8594C32.6791 27.7997 28.1788 29.0426 26.0738 32.5584L23.6421 36.7489C21.5734 40.2647 22.7348 44.7748 26.3278 46.799C29.4128 48.6102 30.5015 52.6232 28.6869 55.6773C28.0699 56.6361 27.4166 57.4529 26.4004 57.9501C25.1665 58.6248 24.0777 59.6902 23.497 60.7556C22.1541 62.9574 22.2267 65.7274 23.5696 68.0357L26.0738 72.2973C27.4166 74.5701 29.9209 75.9906 32.534 75.9906C33.7679 75.9906 35.2197 75.6355 36.381 74.9252C37.2884 74.3215 38.3772 74.1084 39.5748 74.1084C43.1679 74.1084 46.1802 77.056 46.2528 80.5718C46.2528 84.6558 49.5917 87.8519 53.8018 87.8519H58.7376C62.9113 87.8519 66.2503 84.6558 66.2503 80.5718C66.3592 77.056 69.3715 74.1084 72.9645 74.1084C74.1259 74.1084 75.2147 74.3215 76.1583 74.9252C77.3197 75.6355 78.7352 75.9906 80.0054 75.9906C82.5822 75.9906 85.0865 74.5701 86.4293 72.2973L88.9698 68.0357C90.2764 65.6564 90.3853 62.9574 89.0424 60.7556" fill="#BA90FF" fill-opacity="0.35"/>
</g>
<g id="Path_4" filter="url(#filter3_bd_369_141383)">
<path d="M56.3151 62.1117C50.617 62.1117 46.0078 57.6725 46.0078 52.097C46.0078 46.5215 50.617 42.0469 56.3151 42.0469C62.0131 42.0469 66.5134 46.5215 66.5134 52.097C66.5134 57.6725 62.0131 62.1117 56.3151 62.1117Z" fill="url(#paint1_linear_369_141383)"/>
</g>
</g>
</g>
</g>
<defs>
<filter id="filter0_b_369_141383" x="-5.30622" y="-2.30622" width="78.2745" height="81.7531" filterUnits="userSpaceOnUse" color-interpolation-filters="sRGB">
<feFlood flood-opacity="0" result="BackgroundImageFix"/>
<feGaussianBlur in="BackgroundImageFix" stdDeviation="5.65311"/>
<feComposite in2="SourceAlpha" operator="in" result="effect1_backgroundBlur_369_141383"/>
<feBlend mode="normal" in="SourceGraphic" in2="effect1_backgroundBlur_369_141383" result="shape"/>
</filter>
<filter id="filter1_f_369_141383" x="5.75457" y="9.60028" width="56.5319" height="58.2701" filterUnits="userSpaceOnUse" color-interpolation-filters="sRGB">
<feFlood flood-opacity="0" result="BackgroundImageFix"/>
<feBlend mode="normal" in="SourceGraphic" in2="BackgroundImageFix" result="shape"/>
<feGaussianBlur stdDeviation="6.95767" result="effect1_foregroundBlur_369_141383"/>
</filter>
<filter id="filter2_b_369_141383" x="1.65237" y="-4.04685" width="109.221" height="112.771" filterUnits="userSpaceOnUse" color-interpolation-filters="sRGB">
<feFlood flood-opacity="0" result="BackgroundImageFix"/>
<feGaussianBlur in="BackgroundImageFix" stdDeviation="10.4365"/>
<feComposite in2="SourceAlpha" operator="in" result="effect1_backgroundBlur_369_141383"/>
<feBlend mode="normal" in="SourceGraphic" in2="effect1_backgroundBlur_369_141383" result="shape"/>
</filter>
<filter id="filter3_bd_369_141383" x="32.9622" y="29.0012" width="46.5971" height="46.1557" filterUnits="userSpaceOnUse" color-interpolation-filters="sRGB">
<feFlood flood-opacity="0" result="BackgroundImageFix"/>
<feGaussianBlur in="BackgroundImageFix" stdDeviation="6.52282"/>
<feComposite in2="SourceAlpha" operator="in" result="effect1_backgroundBlur_369_141383"/>
<feColorMatrix in="SourceAlpha" type="matrix" values="0 0 0 0 0 0 0 0 0 0 0 0 0 0 0 0 0 0 127 0" result="hardAlpha"/>
<feOffset dx="4.34855" dy="4.34855"/>
<feGaussianBlur stdDeviation="4.34855"/>
<feColorMatrix type="matrix" values="0 0 0 0 0.729412 0 0 0 0 0.564706 0 0 0 0 1 0 0 0 0.5 0"/>
<feBlend mode="normal" in2="effect1_backgroundBlur_369_141383" result="effect2_dropShadow_369_141383"/>
<feBlend mode="normal" in="SourceGraphic" in2="effect2_dropShadow_369_141383" result="shape"/>
</filter>
<linearGradient id="paint0_linear_369_141383" x1="33.8309" y1="9" x2="33.8309" y2="68.1398" gradientUnits="userSpaceOnUse">
<stop stop-color="#BC94FF"/>
<stop offset="1" stop-color="#9F66FF"/>
</linearGradient>
<linearGradient id="paint1_linear_369_141383" x1="65.0596" y1="45.6702" x2="42.2194" y2="46.4312" gradientUnits="userSpaceOnUse">
<stop stop-color="white"/>
<stop offset="1" stop-color="white" stop-opacity="0.2"/>
</linearGradient>
</defs>
</svg>
