<svg width="20" height="20" viewBox="0 0 20 20" fill="none" xmlns="http://www.w3.org/2000/svg">
<g id="Group 427320875">
<g id="Group 427320874">
<g id="Group 427320873">
<g id="Group 427320872">
<path id="Rectangle 2" d="M8.66699 11.9648L10.5367 13.0443L6.73994 19.6205L5.65019 17.1901L8.66699 11.9648Z" fill="#CE4444"/>
<path id="Rectangle 3" d="M8.66699 11.9648L6.7973 10.8854L3.00055 17.4615L5.65019 17.1901L8.66699 11.9648Z" fill="#983535"/>
<path id="Rectangle 6" d="M11.334 11.9648L9.46429 13.0443L13.261 19.6205L14.3508 17.1901L11.334 11.9648Z" fill="#983535"/>
<path id="Rectangle 7" d="M11.334 11.9648L13.2037 10.8854L17.0004 17.4615L14.3508 17.1901L11.334 11.9648Z" fill="#CE4444"/>
<path id="Ellipse 1" d="M9.94284 13.9288C13.5282 13.9288 16.4346 11.0223 16.4346 7.437C16.4346 3.85167 13.5282 0.945183 9.94284 0.945183C6.35752 0.945183 3.45104 3.85167 3.45104 7.437C3.45104 11.0223 6.35752 13.9288 9.94284 13.9288Z" fill="url(#paint0_linear_257_54189)" stroke="#765C00" stroke-width="0.109635"/>
<ellipse id="Ellipse 2" cx="9.94555" cy="7.43872" rx="5.02465" ry="5.02466" fill="#A88300"/>
<g id="Mask Group">
<mask id="mask0_257_54189" style="mask-type:alpha" maskUnits="userSpaceOnUse" x="5" y="2" width="11" height="12">
<ellipse id="Ellipse 4" cx="10.2111" cy="7.97581" rx="5.03635" ry="5.03635" fill="#C28B37"/>
</mask>
<g mask="url(#mask0_257_54189)">
<ellipse id="Ellipse 3" cx="9.94259" cy="7.4387" rx="5.03635" ry="5.03635" fill="#C09525"/>
</g>
</g>
</g>
<path id="1" d="M10.842 10V5.016H9.694L8.63 5.94V7.165L9.694 6.241V10H10.842Z" fill="url(#paint1_linear_257_54189)"/>
</g>
</g>
</g>
<defs>
<linearGradient id="paint0_linear_257_54189" x1="9.94284" y1="1" x2="9.94284" y2="13.874" gradientUnits="userSpaceOnUse">
<stop stop-color="#FFC600"/>
<stop offset="1" stop-color="#FFDE69"/>
</linearGradient>
<linearGradient id="paint1_linear_257_54189" x1="10" y1="3" x2="10" y2="12" gradientUnits="userSpaceOnUse">
<stop stop-color="#FFFCDD"/>
<stop offset="1" stop-color="#FFE896"/>
</linearGradient>
</defs>
</svg>
