<svg width="32" height="32" viewBox="0 0 32 32" fill="none" xmlns="http://www.w3.org/2000/svg">
<g id="Group 427320927">
<g id="Group 427320900">
<g id="Group 427320889">
<path id="Vector" d="M2 13.6777C2 6.12645 8.12648 0 15.6777 0C23.229 0 29.3555 6.12645 29.3555 13.7061C29.3555 20.26 24.7392 25.7311 18.5843 27.0703L15.7347 32L12.8852 27.0703C6.67323 25.7881 2 20.26 2 13.6777Z" fill="#3B82F6"/>
</g>
<g id="Frame" clip-path="url(#clip0_381_144538)">
<path id="Vector_2" d="M22.946 12.6623L20.2657 8.45734C20.2301 8.39996 20.1804 8.35262 20.1213 8.31976C20.0623 8.2869 19.9959 8.26962 19.9283 8.26953H12.0786C12.0111 8.26962 11.9446 8.2869 11.8856 8.31976C11.8266 8.35262 11.7769 8.39996 11.7412 8.45734L9.06097 12.6623C9.01281 12.7382 8.99221 12.8283 9.00265 12.9176C9.01308 13.0068 9.0539 13.0898 9.11826 13.1525L15.7234 19.6112C15.7598 19.6485 15.8034 19.6782 15.8515 19.6985C15.8996 19.7187 15.9513 19.7292 16.0035 19.7292C16.0557 19.7292 16.1073 19.7187 16.1554 19.6985C16.2036 19.6782 16.2471 19.6485 16.2836 19.6112L22.8887 13.1525C22.953 13.0898 22.9939 13.0068 23.0043 12.9176C23.0147 12.8283 22.9941 12.7382 22.946 12.6623ZM18.55 11.6532H13.4569C13.3547 11.6442 13.2595 11.5972 13.1902 11.5215C13.1209 11.4458 13.0824 11.3469 13.0824 11.2442C13.0824 11.1416 13.1209 11.0426 13.1902 10.9669C13.2595 10.8912 13.3547 10.8442 13.4569 10.8352H18.55C18.6523 10.8442 18.7474 10.8912 18.8167 10.9669C18.8861 11.0426 18.9245 11.1416 18.9245 11.2442C18.9245 11.3469 18.8861 11.4458 18.8167 11.5215C18.7474 11.5972 18.6523 11.6442 18.55 11.6532Z" fill="white"/>
</g>
</g>
</g>
<defs>
<clipPath id="clip0_381_144538">
<rect width="14" height="14" fill="white" transform="translate(9 7)"/>
</clipPath>
</defs>
</svg>
