<svg width="32" height="32" viewBox="0 0 32 32" fill="none" xmlns="http://www.w3.org/2000/svg">
<g id="Group 427320928">
<g id="Group 427320899">
<g id="Group 427320894">
<path id="Vector" d="M2 13.6777C2 6.12645 8.12648 0 15.6777 0C23.229 0 29.3555 6.12645 29.3555 13.7061C29.3555 20.26 24.7392 25.7311 18.5843 27.0703L15.7347 32L12.8852 27.0703C6.67323 25.7881 2 20.26 2 13.6777Z" fill="#3B82F6"/>
</g>
<g id="Frame">
<path id="Subtract" fill-rule="evenodd" clip-rule="evenodd" d="M14.7578 5.69132C14.1096 5.65347 13.2105 5.89017 12.5623 6.69791C12.0195 7.37431 11.7076 8.3814 11.791 9.8026C11.1248 9.63267 10.3358 9.53881 9.58129 9.66147C9.01058 9.75426 8.43747 9.97497 7.9618 10.4029C7.48376 10.833 7.14234 11.4382 6.98097 12.2324C6.85222 12.8004 6.99285 13.5832 7.62717 14.2836C8.15962 14.8716 9.01868 15.3821 10.3199 15.7036C10.0237 16.266 9.76671 16.9474 9.71598 17.6229C9.67758 18.1342 9.75509 18.6799 10.0648 19.1616C10.3782 19.6492 10.887 20.005 11.5844 20.2086L11.5885 20.2098C12.5097 20.4712 14.3262 20.3371 15.6056 18.518C15.8806 18.8831 16.2411 19.2497 16.6897 19.5487C17.5467 20.12 18.7083 20.4312 20.1385 20.0367C20.1626 20.03 20.1862 20.0218 20.2092 20.012C20.7739 19.7717 21.4024 19.1823 21.5211 18.2125C21.617 17.4292 21.3698 16.484 20.6321 15.3683C21.0747 15.2479 21.5426 15.0517 21.9505 14.7506C22.3242 14.4747 22.6574 14.1028 22.8603 13.6136C23.0642 13.1219 23.1211 12.5488 22.9982 11.8982C22.9962 11.8871 22.9937 11.8762 22.991 11.8652C22.8338 11.2411 22.3288 10.4736 21.3655 10.0283C20.5555 9.65389 19.4668 9.52653 18.052 9.83844C18.0937 9.22449 18.0347 8.50797 17.7875 7.84137C17.5895 7.30709 17.2638 6.78815 16.7558 6.39046C16.2446 5.99038 15.5824 5.73949 14.7578 5.69132ZM15.5573 11.0455C15.5134 10.738 15.2284 10.5243 14.9209 10.5682C14.6134 10.6122 14.3997 10.8971 14.4436 11.2046L14.7099 13.069L13.2176 12.8202C12.9111 12.7692 12.6213 12.9762 12.5702 13.2826C12.5192 13.589 12.7262 13.8788 13.0326 13.9299L14.3362 14.1472L13.4362 15.2722C13.2421 15.5148 13.2815 15.8688 13.5241 16.0628C13.7666 16.2569 14.1206 16.2176 14.3147 15.975L15.4632 14.5394L16.8987 15.6878C17.1413 15.8819 17.4953 15.8426 17.6893 15.6C17.8834 15.3574 17.8441 15.0034 17.6015 14.8094L16.5347 13.9557L17.803 13.533C18.0977 13.4347 18.257 13.1162 18.1587 12.8215C18.0605 12.5267 17.7419 12.3675 17.4472 12.4657L15.8369 13.0025L15.5573 11.0455Z" fill="white"/>
</g>
</g>
</g>
</svg>
