<svg width="24" height="24" viewBox="0 0 24 24" fill="none" xmlns="http://www.w3.org/2000/svg">
<g id="Frame 427321414">
<rect width="24" height="24" rx="5.33333" fill="#CED4DB"/>
<g id="trip">
<g id="Vector">
<path fill-rule="evenodd" clip-rule="evenodd" d="M15.9167 9.57534C16.2609 9.41734 16.5 9.0696 16.5 8.66602C16.5 8.11373 16.0523 7.66602 15.5 7.66602C14.9477 7.66602 14.5 8.11373 14.5 8.66602C14.5 9.0696 14.7391 9.41734 15.0833 9.57534V13.4757C15.0833 13.8072 14.9516 14.1251 14.7172 14.3596C14.2291 14.8477 13.4376 14.8477 12.9495 14.3596C12.715 14.1251 12.5833 13.8072 12.5833 13.4757V10.2874C12.5833 9.77902 12.3814 9.29151 12.022 8.93207C11.2734 8.18356 10.0599 8.18356 9.31138 8.93207C8.95193 9.29151 8.75 9.77902 8.75 10.2874V13.0519C8.03116 13.2369 7.5 13.8894 7.5 14.666C7.5 15.5865 8.24619 16.3327 9.16667 16.3327C10.0871 16.3327 10.8333 15.5865 10.8333 14.666C10.8333 13.8894 10.3022 13.2369 9.58333 13.0519V10.2874C9.58333 10 9.69747 9.72449 9.90063 9.52132C10.3237 9.09825 11.0096 9.09825 11.4327 9.52132C11.6359 9.72449 11.75 10 11.75 10.2874V13.4757C11.75 14.0282 11.9695 14.5581 12.3602 14.9488C13.1738 15.7624 14.4929 15.7624 15.3065 14.9488C15.6972 14.5581 15.9167 14.0282 15.9167 13.4757V9.57534ZM15.9167 9.57534V9.33268H15.0833V9.57534C15.2102 9.63356 15.3513 9.66602 15.5 9.66602C15.6487 9.66602 15.7898 9.63356 15.9167 9.57534ZM15.6667 8.66602C15.6667 8.75806 15.592 8.83268 15.5 8.83268C15.408 8.83268 15.3333 8.75806 15.3333 8.66602C15.3333 8.57397 15.408 8.49935 15.5 8.49935C15.592 8.49935 15.6667 8.57397 15.6667 8.66602ZM10 14.666C10 15.1263 9.6269 15.4993 9.16667 15.4993C8.70643 15.4993 8.33333 15.1263 8.33333 14.666C8.33333 14.2058 8.70643 13.8327 9.16667 13.8327C9.6269 13.8327 10 14.2058 10 14.666Z" fill="white"/>
<path d="M15.6667 8.66602C15.6667 8.75806 15.592 8.83268 15.5 8.83268C15.408 8.83268 15.3333 8.75806 15.3333 8.66602C15.3333 8.57397 15.408 8.49935 15.5 8.49935C15.592 8.49935 15.6667 8.57397 15.6667 8.66602Z" fill="white"/>
<path d="M15.9167 9.33268H15.0833V9.57534C15.2102 9.63356 15.3513 9.66602 15.5 9.66602C15.6487 9.66602 15.7898 9.63356 15.9167 9.57534V9.33268Z" fill="white"/>
</g>
</g>
</g>
</svg>
