<svg width="97" height="96" viewBox="0 0 97 96" fill="none" xmlns="http://www.w3.org/2000/svg">
<g id="Group 427320924">
<g id="Group 427320921">
<path id="Path" d="M50.9184 11.7157L23.9626 18.9385C13.4227 21.7627 8.31672 31.0618 11.2658 42.0681L18.0729 67.4726C21.0137 78.4478 30.0843 83.9449 40.6242 81.1208L67.58 73.8979C78.1199 71.0738 83.1956 61.7861 80.2549 50.8109L73.4478 25.4064C70.4987 14.4001 61.4583 8.89153 50.9184 11.7157Z" fill="url(#paint0_linear_381_144093)"/>
<g id="Rectangle 1034" filter="url(#filter0_f_381_144093)">
<rect width="41.5387" height="42.672" rx="9.15813" transform="matrix(-0.258818 -0.965926 0.965925 -0.25882 35.75 77.168)" fill="#0062FF"/>
</g>
<g id="Icon">
<g id="Path_2" filter="url(#filter1_b_381_144093)">
<path d="M71.4912 24H43.5844C32.6728 24 25.334 31.6607 25.334 43.0552V69.356C25.334 80.7183 32.6728 88.3758 43.5844 88.3758H71.4912C82.4029 88.3758 89.7095 80.7183 89.7095 69.356V43.0552C89.7095 31.6607 82.4029 24 71.4912 24V24Z" fill="#3EA0FE" fill-opacity="0.35"/>
<path d="M71.4912 23.6478H43.5844C38.0431 23.6478 33.385 25.5949 30.113 29.011C26.8422 32.4258 24.9817 37.2816 24.9817 43.0552V69.356C24.9817 75.1137 26.8423 79.9607 30.1131 83.3706C33.3852 86.7817 38.0432 88.728 43.5844 88.728H71.4912C77.0326 88.728 81.6827 86.7817 84.9467 83.3703C88.2094 79.9602 90.0617 75.1133 90.0617 69.356V43.0552C90.0617 37.2821 88.2096 32.4263 84.9469 29.0113C81.6828 25.595 77.0326 23.6478 71.4912 23.6478Z" stroke="url(#paint1_linear_381_144093)" stroke-width="0.704471" stroke-linecap="round" stroke-linejoin="round"/>
</g>
</g>
<g id="Vector" filter="url(#filter2_bd_381_144093)">
<path fill-rule="evenodd" clip-rule="evenodd" d="M69.142 48.8546C70.1976 48.3701 70.9307 47.3038 70.9307 46.0663C70.9307 44.3728 69.5578 43 67.8644 43C66.1709 43 64.7981 44.3728 64.7981 46.0663C64.7981 47.3038 65.5312 48.3701 66.5867 48.8546V60.8142C66.5867 61.8308 66.1829 62.8057 65.4641 63.5245C63.9673 65.0213 61.5405 65.0213 60.0436 63.5245C59.3248 62.8057 58.921 61.8308 58.921 60.8142V51.0378C58.921 49.4791 58.3018 47.9843 57.1996 46.8821C54.9045 44.587 51.1834 44.587 48.8882 46.8821C47.786 47.9843 47.1669 49.4791 47.1669 51.0378V59.5147C44.9627 60.082 43.334 62.0829 43.334 64.4642C43.334 67.2867 45.622 69.5747 48.4445 69.5747C51.2669 69.5747 53.555 67.2867 53.555 64.4642C53.555 62.0829 51.9263 60.082 49.7221 59.5147V51.0378C49.7221 50.1568 50.0721 49.3119 50.695 48.6889C51.9923 47.3917 54.0956 47.3917 55.3928 48.6889C56.0158 49.3119 56.3658 50.1568 56.3658 51.0378V60.8142C56.3658 62.5085 57.0388 64.1333 58.2368 65.3313C60.7315 67.8261 64.7762 67.8261 67.271 65.3313C68.469 64.1333 69.142 62.5085 69.142 60.8142V48.8546ZM69.142 48.8546V48.1105H66.5867V48.8546C66.9757 49.0331 67.4084 49.1326 67.8644 49.1326C68.3203 49.1326 68.7531 49.0331 69.142 48.8546ZM68.3754 46.0663C68.3754 46.3486 68.1466 46.5774 67.8644 46.5774C67.5821 46.5774 67.3533 46.3486 67.3533 46.0663C67.3533 45.7841 67.5821 45.5553 67.8644 45.5553C68.1466 45.5553 68.3754 45.7841 68.3754 46.0663ZM50.9997 64.4642C50.9997 65.8754 49.8557 67.0195 48.4445 67.0195C47.0333 67.0195 45.8892 65.8754 45.8892 64.4642C45.8892 63.053 47.0333 61.9089 48.4445 61.9089C49.8557 61.9089 50.9997 63.053 50.9997 64.4642Z" fill="url(#paint2_linear_381_144093)"/>
<path d="M68.3754 46.0663C68.3754 46.3486 68.1466 46.5774 67.8644 46.5774C67.5821 46.5774 67.3533 46.3486 67.3533 46.0663C67.3533 45.7841 67.5821 45.5553 67.8644 45.5553C68.1466 45.5553 68.3754 45.7841 68.3754 46.0663Z" fill="url(#paint3_linear_381_144093)"/>
<path d="M69.142 48.1105H66.5867V48.8546C66.9757 49.0331 67.4084 49.1326 67.8644 49.1326C68.3203 49.1326 68.7531 49.0331 69.142 48.8546V48.1105Z" fill="url(#paint4_linear_381_144093)"/>
<path d="M69.2124 48.1105V48.0401H69.142H66.5867H66.5163V48.1105V48.7425C65.5387 48.2491 64.8685 47.2359 64.8685 46.0663C64.8685 44.4117 66.2098 43.0704 67.8644 43.0704C69.5189 43.0704 70.8602 44.4117 70.8602 46.0663C70.8602 47.2359 70.19 48.2491 69.2124 48.7425V48.1105ZM66.6572 60.8142V48.9623C67.0289 49.1174 67.4367 49.2031 67.8644 49.2031C68.292 49.2031 68.6999 49.1174 69.0716 48.9623V60.8142C69.0716 62.4898 68.4059 64.0967 67.2211 65.2815C64.7539 67.7488 60.7538 67.7488 58.2866 65.2815C57.1018 64.0967 56.4362 62.4898 56.4362 60.8142V51.0378C56.4362 50.1382 56.0788 49.2753 55.4426 48.6391C54.1179 47.3144 51.97 47.3144 50.6452 48.6391C50.0091 49.2753 49.6517 50.1382 49.6517 51.0378V59.5147V59.5693L49.7045 59.5829C51.8784 60.1424 53.4845 62.1158 53.4845 64.4642C53.4845 67.2477 51.228 69.5043 48.4445 69.5043C45.6609 69.5043 43.4044 67.2477 43.4044 64.4642C43.4044 62.1158 45.0106 60.1424 47.1844 59.5829L47.2373 59.5693V59.5147V51.0378C47.2373 49.4978 47.8491 48.0209 48.938 46.9319C51.2057 44.6643 54.8822 44.6643 57.1498 46.9319C58.2388 48.0209 58.8506 49.4978 58.8506 51.0378V60.8142C58.8506 61.8495 59.2618 62.8423 59.9938 63.5743C61.5182 65.0987 63.9896 65.0987 65.5139 63.5743C66.246 62.8423 66.6572 61.8495 66.6572 60.8142ZM69.0716 48.809C68.7023 48.9718 68.294 49.0622 67.8644 49.0622C67.4347 49.0622 67.0264 48.9718 66.6572 48.809V48.181H69.0716V48.809ZM68.305 46.0663C68.305 46.3097 68.1077 46.5069 67.8644 46.5069C67.621 46.5069 67.4238 46.3097 67.4238 46.0663C67.4238 45.823 67.621 45.6257 67.8644 45.6257C68.1077 45.6257 68.305 45.823 68.305 46.0663ZM67.8644 46.6478C68.1855 46.6478 68.4459 46.3875 68.4459 46.0663C68.4459 45.7452 68.1855 45.4848 67.8644 45.4848C67.5432 45.4848 67.2829 45.7452 67.2829 46.0663C67.2829 46.3875 67.5432 46.6478 67.8644 46.6478ZM48.4445 67.0899C49.8946 67.0899 51.0702 65.9143 51.0702 64.4642C51.0702 63.0141 49.8946 61.8385 48.4445 61.8385C46.9943 61.8385 45.8188 63.0141 45.8188 64.4642C45.8188 65.9143 46.9943 67.0899 48.4445 67.0899Z" stroke="url(#paint5_linear_381_144093)" stroke-opacity="0.5" stroke-width="0.140894"/>
</g>
</g>
</g>
<defs>
<filter id="filter0_f_381_144093" x="7.6938" y="8.69575" width="86.5792" height="85.7765" filterUnits="userSpaceOnUse" color-interpolation-filters="sRGB">
<feFlood flood-opacity="0" result="BackgroundImageFix"/>
<feBlend mode="normal" in="SourceGraphic" in2="BackgroundImageFix" result="shape"/>
<feGaussianBlur stdDeviation="9.81228" result="effect1_foregroundBlur_381_144093"/>
</filter>
<filter id="filter1_b_381_144093" x="7.72159" y="6.38761" width="99.5998" height="99.5998" filterUnits="userSpaceOnUse" color-interpolation-filters="sRGB">
<feFlood flood-opacity="0" result="BackgroundImageFix"/>
<feGaussianBlur in="BackgroundImageFix" stdDeviation="8.45366"/>
<feComposite in2="SourceAlpha" operator="in" result="effect1_backgroundBlur_381_144093"/>
<feBlend mode="normal" in="SourceGraphic" in2="effect1_backgroundBlur_381_144093" result="shape"/>
</filter>
<filter id="filter2_bd_381_144093" x="32.7669" y="32.4329" width="48.7318" height="47.7084" filterUnits="userSpaceOnUse" color-interpolation-filters="sRGB">
<feFlood flood-opacity="0" result="BackgroundImageFix"/>
<feGaussianBlur in="BackgroundImageFix" stdDeviation="5.28354"/>
<feComposite in2="SourceAlpha" operator="in" result="effect1_backgroundBlur_381_144093"/>
<feColorMatrix in="SourceAlpha" type="matrix" values="0 0 0 0 0 0 0 0 0 0 0 0 0 0 0 0 0 0 127 0" result="hardAlpha"/>
<feOffset dx="3.52236" dy="3.52236"/>
<feGaussianBlur stdDeviation="3.52236"/>
<feColorMatrix type="matrix" values="0 0 0 0 0.15375 0 0 0 0 0.522433 0 0 0 0 0.9 0 0 0 0.5 0"/>
<feBlend mode="normal" in2="effect1_backgroundBlur_381_144093" result="effect2_dropShadow_381_144093"/>
<feBlend mode="normal" in="SourceGraphic" in2="effect2_dropShadow_381_144093" result="shape"/>
</filter>
<linearGradient id="paint0_linear_381_144093" x1="227.245" y1="37.7105" x2="174.097" y2="100.203" gradientUnits="userSpaceOnUse">
<stop stop-color="#39AFFD"/>
<stop offset="1" stop-color="#477FFF"/>
</linearGradient>
<linearGradient id="paint1_linear_381_144093" x1="35.5815" y1="31.4999" x2="88.2076" y2="85.1084" gradientUnits="userSpaceOnUse">
<stop stop-color="white" stop-opacity="0.25"/>
<stop offset="1" stop-color="white" stop-opacity="0"/>
</linearGradient>
<linearGradient id="paint2_linear_381_144093" x1="68.9741" y1="47.7989" x2="38.2366" y2="48.8396" gradientUnits="userSpaceOnUse">
<stop stop-color="white"/>
<stop offset="1" stop-color="white" stop-opacity="0.2"/>
</linearGradient>
<linearGradient id="paint3_linear_381_144093" x1="68.9741" y1="47.7989" x2="38.2366" y2="48.8396" gradientUnits="userSpaceOnUse">
<stop stop-color="white"/>
<stop offset="1" stop-color="white" stop-opacity="0.2"/>
</linearGradient>
<linearGradient id="paint4_linear_381_144093" x1="68.9741" y1="47.7989" x2="38.2366" y2="48.8396" gradientUnits="userSpaceOnUse">
<stop stop-color="white"/>
<stop offset="1" stop-color="white" stop-opacity="0.2"/>
</linearGradient>
<linearGradient id="paint5_linear_381_144093" x1="46.3068" y1="51.9145" x2="69.7401" y2="52.0489" gradientUnits="userSpaceOnUse">
<stop stop-color="white"/>
<stop offset="1" stop-color="white" stop-opacity="0"/>
</linearGradient>
</defs>
</svg>
