<svg width="220" height="220" viewBox="0 0 220 220" fill="none" xmlns="http://www.w3.org/2000/svg">
<g id="Group 427320937">
<g id="Group 427320936">
<g id="Group 32">
<circle id="Ellipse 46" cx="109.761" cy="110.326" r="107.326" fill="url(#paint0_linear_387_141056)"/>
<circle id="Ellipse 48" cx="203.547" cy="53.1092" r="5.345" stroke="#8BB2FF" stroke-width="2.1573"/>
<circle id="Ellipse 52" cx="112.45" cy="203.899" r="4.04494" stroke="#8BB2FF" stroke-width="2.1573"/>
<circle id="Ellipse 53" cx="189.034" cy="103.045" r="4.04494" stroke="#8BB2FF" stroke-width="2.1573"/>
<circle id="Ellipse 51" cx="6.42365" cy="95.1756" r="6.42365" fill="url(#paint1_linear_387_141056)"/>
<circle id="Ellipse 49" cx="104.914" cy="181.801" r="4.06027" stroke="#8BB2FF" stroke-width="2.1573"/>
<g id="Star 1" filter="url(#filter0_f_387_141056)">
<path d="M32.0892 117.877L33.9101 122.798L38.8308 124.619L33.9101 126.439L32.0892 131.36L30.2684 126.439L25.3477 124.619L30.2684 122.798L32.0892 117.877Z" fill="#8BB2FF"/>
</g>
<path id="Star 2" d="M209.572 138.91L212.278 146.225L219.593 148.931L212.278 151.638L209.572 158.952L206.865 151.638L199.551 148.931L206.865 146.225L209.572 138.91Z" fill="#8BB2FF"/>
<rect id="Rectangle 38" x="43.1465" y="24.0332" width="134.292" height="178.517" rx="10.7865" fill="url(#paint2_linear_387_141056)"/>
<g id="Star 3" filter="url(#filter1_f_387_141056)">
<path d="M66.0081 12.707L69.2699 21.5218L78.0846 24.7835L69.2699 28.0452L66.0081 36.86L62.7464 28.0452L53.9316 24.7835L62.7464 21.5218L66.0081 12.707Z" fill="#8BB2FF"/>
</g>
</g>
<rect id="Rectangle 39" x="61.4844" y="53.6973" width="77.1236" height="6.47191" rx="3.23595" fill="url(#paint3_linear_387_141056)"/>
<rect id="Rectangle 40" x="61.4844" y="74.1914" width="43.6854" height="6.47191" rx="3.23595" fill="#94BAFF"/>
<rect id="Rectangle 41" x="61.4844" y="94.6855" width="91.6854" height="6.47191" rx="3.23595" fill="url(#paint4_linear_387_141056)"/>
<rect id="Rectangle 42" x="61.4844" y="115.18" width="73.3483" height="6.47191" rx="3.23595" fill="#94BAFF"/>
<rect id="Rectangle 43" x="61.4844" y="135.674" width="73.3483" height="6.47191" rx="3.23595" fill="#94BAFF"/>
<rect id="Rectangle 44" x="61.4844" y="156.168" width="49.618" height="6.47191" rx="3.23595" fill="#94BAFF"/>
<g id="Group 33">
<circle id="Ellipse 52_2" cx="134.409" cy="149.273" r="31.4485" transform="rotate(-60 134.409 149.273)" fill="#F6F9FF" stroke="#538FFF" stroke-width="7.55056"/>
<rect id="Rectangle 45" x="157.93" y="168.758" width="10.2262" height="44.3137" rx="4.85393" transform="rotate(-60 157.93 168.758)" fill="#538FFF"/>
<path id="Union" fill-rule="evenodd" clip-rule="evenodd" d="M123.083 156.463C121.974 157.572 121.974 159.371 123.083 160.48C124.192 161.589 125.991 161.589 127.1 160.48L134.13 153.45L141.161 160.48C142.27 161.59 144.069 161.59 145.178 160.48C146.288 159.371 146.288 157.572 145.178 156.463L138.148 149.432L145.178 142.402C146.287 141.293 146.287 139.494 145.178 138.385C144.069 137.276 142.27 137.276 141.161 138.385L134.13 145.415L127.101 138.385C125.991 137.276 124.193 137.276 123.083 138.385C121.974 139.495 121.974 141.293 123.083 142.403L130.113 149.432L123.083 156.463Z" fill="#FF4F75"/>
</g>
<path id="Polygon 6" d="M24.7248 163.257C25.9279 163.579 26.3308 165.083 25.4501 165.964L19.5053 171.909C18.6246 172.789 17.1207 172.386 16.7983 171.183L14.6224 163.063C14.3 161.859 15.4009 160.759 16.604 161.081L24.7248 163.257Z" fill="#8CB3FF"/>
</g>
</g>
<defs>
<filter id="filter0_f_387_141056" x="23.1904" y="115.72" width="17.797" height="17.797" filterUnits="userSpaceOnUse" color-interpolation-filters="sRGB">
<feFlood flood-opacity="0" result="BackgroundImageFix"/>
<feBlend mode="normal" in="SourceGraphic" in2="BackgroundImageFix" result="shape"/>
<feGaussianBlur stdDeviation="1.07865" result="effect1_foregroundBlur_387_141056"/>
</filter>
<filter id="filter1_f_387_141056" x="51.7743" y="10.5497" width="28.467" height="28.467" filterUnits="userSpaceOnUse" color-interpolation-filters="sRGB">
<feFlood flood-opacity="0" result="BackgroundImageFix"/>
<feBlend mode="normal" in="SourceGraphic" in2="BackgroundImageFix" result="shape"/>
<feGaussianBlur stdDeviation="1.07865" result="effect1_foregroundBlur_387_141056"/>
</filter>
<linearGradient id="paint0_linear_387_141056" x1="109.761" y1="3" x2="109.761" y2="217.652" gradientUnits="userSpaceOnUse">
<stop stop-color="white" stop-opacity="0"/>
<stop offset="1" stop-color="#D9E8FF"/>
</linearGradient>
<linearGradient id="paint1_linear_387_141056" x1="6.42365" y1="88.752" x2="6.42365" y2="101.599" gradientUnits="userSpaceOnUse">
<stop stop-color="#8CB3FF"/>
<stop offset="1" stop-color="#8BB2FF"/>
</linearGradient>
<linearGradient id="paint2_linear_387_141056" x1="46.1128" y1="26.4602" x2="177.439" y2="200.662" gradientUnits="userSpaceOnUse">
<stop stop-color="#E3EBFF"/>
<stop offset="0.484375" stop-color="#F5F9FF"/>
<stop offset="0.973958" stop-color="#7AA7FF"/>
</linearGradient>
<linearGradient id="paint3_linear_387_141056" x1="61.4844" y1="56.9332" x2="138.608" y2="56.9332" gradientUnits="userSpaceOnUse">
<stop stop-color="#94BAFF"/>
<stop offset="1" stop-color="#94BAFF" stop-opacity="0"/>
</linearGradient>
<linearGradient id="paint4_linear_387_141056" x1="62.8327" y1="97.9215" x2="154.788" y2="97.9215" gradientUnits="userSpaceOnUse">
<stop stop-color="#94BAFF"/>
<stop offset="1" stop-color="#94BAFF" stop-opacity="0"/>
</linearGradient>
</defs>
</svg>
