<svg width="32" height="32" viewBox="0 0 32 32" fill="none" xmlns="http://www.w3.org/2000/svg">
<g id="Group 427320929">
<g id="Group 427320888">
<path id="Vector" d="M2 13.6777C2 6.12645 8.12648 0 15.6777 0C23.229 0 29.3555 6.12645 29.3555 13.7061C29.3555 20.26 24.7392 25.7311 18.5843 27.0703L15.7347 32L12.8852 27.0703C6.67323 25.7881 2 20.26 2 13.6777Z" fill="#FC474C"/>
<g id="Frame" clip-path="url(#clip0_381_144540)">
<path id="Vector_2" d="M19.5103 5.46774C19.5103 5.46774 19.7913 4.03069 20.5019 5.19274C20.5019 5.19274 24.0433 9.21066 21.6245 15.367C20.4613 18.2492 16.9527 20.1135 13.9243 19.192C12.9152 18.885 12.3693 18.3585 12.3693 18.3585C12.3693 18.3585 11.9242 18.8626 11.502 19.7467C11.0983 20.592 11.1061 21.8532 10.3642 22.0257C10.1911 22.0659 9.99553 22.0622 9.81771 21.944C9.42423 21.6824 9.3636 21.2626 9.43559 20.843C9.54611 20.1994 9.89379 18.7955 10.9494 17.2789C12.7222 14.7325 15.0818 13.4919 17.9518 12.6262C18.4129 12.4871 18.1893 11.7218 17.5732 11.8735C17.5732 11.8735 13.4371 12.6254 10.8097 16.0604C9.1731 13.3808 11.4126 10.21 14.0929 9.1725C15.5261 8.61762 16.807 8.64053 18.0071 7.70408C18.5601 7.2726 19.3175 6.60491 19.5103 5.46774Z" fill="white"/>
</g>
</g>
</g>
<defs>
<clipPath id="clip0_381_144540">
<rect width="15.9997" height="16" fill="white" transform="matrix(0.963629 -0.267244 0.267233 0.963632 5.48828 7.76367)"/>
</clipPath>
</defs>
</svg>
