<svg width="96" height="97" viewBox="0 0 96 97" fill="none" xmlns="http://www.w3.org/2000/svg">
<g id="Group 427320903">
<g id="Iconly/Glass/Star">
<g id="Star">
<g id="Bg">
<path id="Rectangle 1028" d="M34.0029 37.1722C30.9438 34.5224 29.4143 33.1976 28.5139 31.6764C26.9801 29.085 26.5904 25.9734 27.4379 23.0838C27.9354 21.3876 29.0911 19.7265 31.4023 16.4043V16.4043C33.7136 13.0821 34.8692 11.421 36.2866 10.3648C38.7012 8.56541 41.7542 7.84879 44.7172 8.38587C46.4565 8.70115 48.2305 9.67458 51.7786 11.6214L61.8678 17.1575C67.2726 20.1232 69.9751 21.6061 71.4346 23.7156C72.9974 25.9742 73.6468 28.7409 73.2522 31.459C72.8837 33.9976 71.1233 36.528 67.6024 41.5888V41.5888C64.0816 46.6496 62.3212 49.1801 60.0691 50.4083C57.6578 51.7234 54.838 52.0765 52.1769 51.3965C49.6915 50.7615 47.3615 48.7433 42.7015 44.7069L34.0029 37.1722Z" fill="url(#paint0_linear_369_141283)"/>
<g id="Rectangle 1029" opacity="0.5" filter="url(#filter0_f_369_141283)">
<path d="M39.1344 33.9106C35.5589 30.8135 34.8958 25.518 37.5973 21.6349V21.6349C40.2987 17.7519 45.4944 16.5323 49.6414 18.8079L55.605 22.0801C60.8006 24.931 62.3792 31.6564 58.9947 36.5212V36.5212C55.6102 41.386 48.7556 42.2444 44.2761 38.3643L39.1344 33.9106Z" fill="#0062FF"/>
</g>
</g>
<g id="Icon">
<g id="Fill 1" filter="url(#filter1_b_369_141283)">
<mask id="path-3-outside-1_369_141283" maskUnits="userSpaceOnUse" x="13" y="22.5684" width="71" height="64" fill="black">
<rect fill="white" x="13" y="22.5684" width="71" height="64"/>
<path d="M79.6991 59.3237C76.8971 59.3237 74.6173 57.0646 74.6173 54.2882C74.6173 51.5084 76.8971 49.2494 79.6991 49.2494C80.3783 49.2494 81.0302 48.9822 81.508 48.5088C81.9892 48.032 82.2588 47.3861 82.2588 46.7131L82.2554 37.5756C82.2554 29.8517 75.9108 23.5684 68.1156 23.5684H28.1432C20.3481 23.5684 14.0034 29.8517 14.0034 37.5756L14 47.0073C14 47.6803 14.2696 48.3262 14.7508 48.803C15.2287 49.2765 15.8805 49.5436 16.5597 49.5436C19.4573 49.5436 21.6416 51.5828 21.6416 54.2882C21.6416 57.0646 19.3617 59.3237 16.5597 59.3237C15.1467 59.3237 14 60.4599 14 61.86V70.9907C14 78.7146 20.3412 85.0013 28.1398 85.0013H68.119C75.9176 85.0013 82.2588 78.7146 82.2588 70.9907V61.86C82.2588 60.4599 81.1121 59.3237 79.6991 59.3237"/>
</mask>
<path d="M79.6991 59.3237C76.8971 59.3237 74.6173 57.0646 74.6173 54.2882C74.6173 51.5084 76.8971 49.2494 79.6991 49.2494C80.3783 49.2494 81.0302 48.9822 81.508 48.5088C81.9892 48.032 82.2588 47.3861 82.2588 46.7131L82.2554 37.5756C82.2554 29.8517 75.9108 23.5684 68.1156 23.5684H28.1432C20.3481 23.5684 14.0034 29.8517 14.0034 37.5756L14 47.0073C14 47.6803 14.2696 48.3262 14.7508 48.803C15.2287 49.2765 15.8805 49.5436 16.5597 49.5436C19.4573 49.5436 21.6416 51.5828 21.6416 54.2882C21.6416 57.0646 19.3617 59.3237 16.5597 59.3237C15.1467 59.3237 14 60.4599 14 61.86V70.9907C14 78.7146 20.3412 85.0013 28.1398 85.0013H68.119C75.9176 85.0013 82.2588 78.7146 82.2588 70.9907V61.86C82.2588 60.4599 81.1121 59.3237 79.6991 59.3237" fill="#3EA0FE" fill-opacity="0.35"/>
<path d="M79.6991 60.1595C80.1608 60.1595 80.535 59.7853 80.535 59.3237C80.535 58.862 80.1608 58.4878 79.6991 58.4878V60.1595ZM81.508 48.5088L80.9197 47.9151L81.508 48.5088ZM82.2588 46.7131H83.0947V46.7128L82.2588 46.7131ZM82.2554 37.5756H81.4196V37.5759L82.2554 37.5756ZM14.0034 37.5756L14.8392 37.5759V37.5756H14.0034ZM14 47.0073L13.1642 47.007V47.0073H14ZM14.7508 48.803L15.3391 48.2093L14.7508 48.803ZM79.6991 58.4878C79.2375 58.4878 78.8633 58.862 78.8633 59.3237C78.8633 59.7853 79.2375 60.1595 79.6991 60.1595V58.4878ZM79.6991 58.4878C77.3515 58.4878 75.4531 56.5958 75.4531 54.2882H73.7814C73.7814 57.5335 76.4427 60.1595 79.6991 60.1595V58.4878ZM75.4531 54.2882C75.4531 51.9769 77.3518 50.0852 79.6991 50.0852V48.4136C76.4424 48.4136 73.7814 51.04 73.7814 54.2882H75.4531ZM79.6991 50.0852C80.5966 50.0852 81.4605 49.7325 82.0963 49.1025L80.9197 47.9151C80.5999 48.232 80.16 48.4136 79.6991 48.4136V50.0852ZM82.0963 49.1025C82.7352 48.4695 83.0947 47.6101 83.0947 46.7131H81.423C81.423 47.162 81.2433 47.5945 80.9197 47.9151L82.0963 49.1025ZM83.0947 46.7128L83.0913 37.5753L81.4196 37.5759L81.423 46.7134L83.0947 46.7128ZM83.0913 37.5756C83.0913 29.3826 76.3649 22.7325 68.1156 22.7325V24.4042C75.4567 24.4042 81.4196 30.3208 81.4196 37.5756H83.0913ZM68.1156 22.7325H28.1432V24.4042H68.1156V22.7325ZM28.1432 22.7325C19.894 22.7325 13.1676 29.3826 13.1676 37.5756H14.8392C14.8392 30.3208 20.8022 24.4042 28.1432 24.4042V22.7325ZM13.1676 37.5753L13.1642 47.007L14.8358 47.0076L14.8392 37.5759L13.1676 37.5753ZM13.1642 47.0073C13.1642 47.9043 13.5237 48.7637 14.1626 49.3967L15.3391 48.2093C15.0156 47.8887 14.8358 47.4562 14.8358 47.0073H13.1642ZM14.1626 49.3967C14.7983 50.0267 15.6622 50.3794 16.5597 50.3794V48.7078C16.0988 48.7078 15.659 48.5262 15.3391 48.2093L14.1626 49.3967ZM16.5597 50.3794C19.0507 50.3794 20.8058 52.0976 20.8058 54.2882H22.4774C22.4774 51.0681 19.8639 48.7078 16.5597 48.7078V50.3794ZM20.8058 54.2882C20.8058 56.5958 18.9074 58.4878 16.5597 58.4878V60.1595C19.8161 60.1595 22.4774 57.5335 22.4774 54.2882H20.8058ZM16.5597 58.4878C14.6924 58.4878 13.1642 59.9911 13.1642 61.86H14.8358C14.8358 60.9287 15.6011 60.1595 16.5597 60.1595V58.4878ZM13.1642 61.86V70.9907H14.8358V61.86H13.1642ZM13.1642 70.9907C13.1642 79.1833 19.8868 85.8371 28.1398 85.8371V84.1655C20.7957 84.1655 14.8358 78.2459 14.8358 70.9907H13.1642ZM28.1398 85.8371H68.119V84.1655H28.1398V85.8371ZM68.119 85.8371C76.3721 85.8371 83.0947 79.1833 83.0947 70.9907H81.423C81.423 78.2459 75.4631 84.1655 68.119 84.1655V85.8371ZM83.0947 70.9907V61.86H81.423V70.9907H83.0947ZM83.0947 61.86C83.0947 59.9911 81.5665 58.4878 79.6991 58.4878V60.1595C80.6577 60.1595 81.423 60.9287 81.423 61.86H83.0947Z" fill="url(#paint1_linear_369_141283)" mask="url(#path-3-outside-1_369_141283)"/>
</g>
<g id="Fill 4" filter="url(#filter2_bd_369_141283)">
<path d="M59.8378 52.8814L55.8139 56.7995L56.7661 62.3387C56.9299 63.2977 56.5443 64.2431 55.7559 64.8096C54.9743 65.383 53.9539 65.4547 53.0938 64.9974L48.128 62.3864L43.1519 65.0008C42.7833 65.1953 42.3806 65.2977 41.9813 65.2977C41.4591 65.2977 40.9437 65.1339 40.5 64.813C39.7151 64.2431 39.3294 63.2977 39.4932 62.3387L40.442 56.7995L36.4182 52.8814C35.7219 52.2056 35.4796 51.2125 35.7799 50.2876C36.0837 49.3661 36.8687 48.7108 37.8277 48.5743L43.3771 47.7654L45.8652 42.7245C46.2986 41.8576 47.1655 41.3184 48.128 41.3184H48.1348C49.1006 41.3218 49.9675 41.861 50.3942 42.7279L52.8822 47.7654L58.4419 48.5777C59.3907 48.7108 60.1756 49.3661 60.476 50.2876C60.7797 51.2125 60.5374 52.2056 59.8378 52.8814Z" fill="url(#paint2_linear_369_141283)"/>
<path d="M59.7795 52.8215L59.7797 52.8213C60.4561 52.168 60.6904 51.2084 60.3966 50.3136L60.3965 50.3135C60.1061 49.4223 59.3474 48.7891 58.4303 48.6605L58.4298 48.6604L52.8701 47.8481L52.8267 47.8418L52.8072 47.8024L50.3192 42.7649L50.3192 42.7648C49.9066 41.9266 49.0688 41.4053 48.1346 41.4019H48.128C47.1976 41.4019 46.3595 41.9229 45.94 42.7617C45.94 42.7618 45.94 42.7618 45.9399 42.7619L43.4521 47.8024L43.4327 47.8418L43.3892 47.8481L37.8398 48.657L37.8395 48.657C36.9119 48.7891 36.1532 49.4224 35.8594 50.3135C35.5689 51.2084 35.8033 52.1681 36.4764 52.8214L36.4765 52.8215L40.5003 56.7396L40.5318 56.7702L40.5244 56.8136L39.5756 62.3527C39.5756 62.3528 39.5756 62.3528 39.5756 62.3528C39.4172 63.2804 39.7899 64.194 40.549 64.7453L59.7795 52.8215ZM59.7795 52.8215L55.7556 56.7396L55.7241 56.7703M59.7795 52.8215L55.7241 56.7703M55.7241 56.7703L55.7315 56.8136M55.7241 56.7703L55.7315 56.8136M55.7315 56.8136L56.6837 62.3527C56.8422 63.2805 56.4694 64.194 55.7071 64.7418L55.7064 64.7422M55.7315 56.8136L55.7064 64.7422M55.7064 64.7422C54.951 65.2965 53.965 65.3659 53.133 64.9236L53.1327 64.9234M55.7064 64.7422L53.1327 64.9234M53.1327 64.9234L48.1669 62.3125L48.128 62.292M53.1327 64.9234L48.128 62.292M48.128 62.292L48.0891 62.3125M48.128 62.292L48.0891 62.3125M48.0891 62.3125L43.113 64.9268L43.1129 64.9268M48.0891 62.3125L43.1129 64.9268M43.1129 64.9268C42.7557 65.1153 42.3663 65.2141 41.9813 65.2141M43.1129 64.9268L41.9813 65.2141M41.9813 65.2141C41.4768 65.2141 40.9786 65.0559 40.5491 64.7454L41.9813 65.2141Z" stroke="url(#paint3_linear_369_141283)" stroke-opacity="0.5" stroke-width="0.167165"/>
</g>
</g>
</g>
</g>
</g>
<defs>
<filter id="filter0_f_369_141283" x="19.224" y="0.949566" width="58.2757" height="56.5677" filterUnits="userSpaceOnUse" color-interpolation-filters="sRGB">
<feFlood flood-opacity="0" result="BackgroundImageFix"/>
<feBlend mode="normal" in="SourceGraphic" in2="BackgroundImageFix" result="shape"/>
<feGaussianBlur stdDeviation="8.35822" result="effect1_foregroundBlur_369_141283"/>
</filter>
<filter id="filter1_b_369_141283" x="-6.89568" y="2.67268" width="110.05" height="103.225" filterUnits="userSpaceOnUse" color-interpolation-filters="sRGB">
<feFlood flood-opacity="0" result="BackgroundImageFix"/>
<feGaussianBlur in="BackgroundImageFix" stdDeviation="10.0299"/>
<feComposite in2="SourceAlpha" operator="in" result="effect1_backgroundBlur_369_141283"/>
<feBlend mode="normal" in="SourceGraphic" in2="effect1_backgroundBlur_369_141283" result="shape"/>
</filter>
<filter id="filter2_bd_369_141283" x="23.116" y="28.781" width="50.0258" height="49.0532" filterUnits="userSpaceOnUse" color-interpolation-filters="sRGB">
<feFlood flood-opacity="0" result="BackgroundImageFix"/>
<feGaussianBlur in="BackgroundImageFix" stdDeviation="6.26867"/>
<feComposite in2="SourceAlpha" operator="in" result="effect1_backgroundBlur_369_141283"/>
<feColorMatrix in="SourceAlpha" type="matrix" values="0 0 0 0 0 0 0 0 0 0 0 0 0 0 0 0 0 0 127 0" result="hardAlpha"/>
<feOffset dx="4.17911" dy="4.17911"/>
<feGaussianBlur stdDeviation="4.17911"/>
<feColorMatrix type="matrix" values="0 0 0 0 0.15375 0 0 0 0 0.522433 0 0 0 0 0.9 0 0 0 0.5 0"/>
<feBlend mode="normal" in2="effect1_backgroundBlur_369_141283" result="effect2_dropShadow_369_141283"/>
<feBlend mode="normal" in="SourceGraphic" in2="effect2_dropShadow_369_141283" result="shape"/>
</filter>
<linearGradient id="paint0_linear_369_141283" x1="40.586" y1="3.20373" x2="36.7502" y2="53.1655" gradientUnits="userSpaceOnUse">
<stop stop-color="#39AFFD"/>
<stop offset="1" stop-color="#477FFF"/>
</linearGradient>
<linearGradient id="paint1_linear_369_141283" x1="24.8657" y1="30.7254" x2="74.7118" y2="87.1442" gradientUnits="userSpaceOnUse">
<stop stop-color="white" stop-opacity="0.25"/>
<stop offset="1" stop-color="white" stop-opacity="0"/>
</linearGradient>
<linearGradient id="paint2_linear_369_141283" x1="58.8357" y1="45.6485" x2="31.0446" y2="46.5914" gradientUnits="userSpaceOnUse">
<stop stop-color="white"/>
<stop offset="1" stop-color="white" stop-opacity="0.2"/>
</linearGradient>
<linearGradient id="paint3_linear_369_141283" x1="38.3411" y1="49.3623" x2="59.5282" y2="49.484" gradientUnits="userSpaceOnUse">
<stop stop-color="white"/>
<stop offset="1" stop-color="white" stop-opacity="0"/>
</linearGradient>
</defs>
</svg>
