<svg width="20" height="20" viewBox="0 0 20 20" fill="none" xmlns="http://www.w3.org/2000/svg">
<g id="Group 427320876">
<g id="Group 427320872">
<path id="Rectangle 8" d="M8.66602 11.9648L10.5357 13.0443L6.73895 19.6206L5.64919 17.1902L8.66602 11.9648Z" fill="#3B82F6"/>
<path id="Rectangle 9" d="M8.66602 11.9648L6.79631 10.8854L2.99953 17.4616L5.64919 17.1902L8.66602 11.9648Z" fill="#1D4ED8"/>
<path id="Rectangle 10" d="M11.333 11.9648L9.4633 13.0443L13.2601 19.6206L14.3498 17.1902L11.333 11.9648Z" fill="#1D4ED8"/>
<path id="Rectangle 11" d="M11.333 11.9648L13.2027 10.8854L16.9995 17.4616L14.3498 17.1902L11.333 11.9648Z" fill="#3B82F6"/>
<path id="Ellipse 3" d="M9.99954 13.929C13.5849 13.929 16.4914 11.0224 16.4914 7.43707C16.4914 3.8517 13.5849 0.94518 9.99954 0.94518C6.41418 0.94518 3.50768 3.8517 3.50768 7.43707C3.50768 11.0224 6.41418 13.929 9.99954 13.929Z" fill="#E3E3E3" stroke="#404040" stroke-width="0.10964"/>
<ellipse id="Ellipse 4" cx="9.99735" cy="7.43683" rx="5.02469" ry="5.02472" fill="#595959"/>
<g id="Mask Group">
<mask id="mask0_257_54212" style="mask-type:alpha" maskUnits="userSpaceOnUse" x="5" y="2" width="11" height="12">
<ellipse id="Ellipse 4_2" cx="10.2678" cy="7.97391" rx="5.03638" ry="5.03641" fill="#C28B37"/>
</mask>
<g mask="url(#mask0_257_54212)">
<ellipse id="Ellipse 3_2" cx="10.0003" cy="7.43876" rx="5.03638" ry="5.03641" fill="url(#paint0_linear_257_54212)"/>
</g>
</g>
<path id="2" d="M11.577 10V8.964H9.771L10.961 7.704C11.36 7.284 11.577 7.004 11.577 6.479C11.577 5.541 10.905 4.974 9.981 4.974C9.113 4.974 8.371 5.513 8.371 6.493H9.519C9.519 6.108 9.771 6.01 9.981 6.01C10.275 6.01 10.429 6.199 10.429 6.472C10.429 6.682 10.359 6.808 10.177 7.004L8.371 8.964V10H11.577Z" fill="url(#paint1_linear_257_54212)"/>
</g>
</g>
<defs>
<linearGradient id="paint0_linear_257_54212" x1="10.0003" y1="2.40234" x2="10.0003" y2="12.4752" gradientUnits="userSpaceOnUse">
<stop stop-color="#9CA1A3"/>
<stop offset="1" stop-color="#9CA1A3" stop-opacity="0"/>
</linearGradient>
<linearGradient id="paint1_linear_257_54212" x1="10" y1="3" x2="10" y2="12" gradientUnits="userSpaceOnUse">
<stop stop-color="#F1F5F5"/>
<stop offset="0.0001" stop-color="white"/>
<stop offset="1" stop-color="#F1F5F5"/>
</linearGradient>
</defs>
</svg>
