<svg width="20" height="20" viewBox="0 0 20 20" fill="none" xmlns="http://www.w3.org/2000/svg">
<g id="Group 427320877">
<g id="Group 427320870">
<path id="Rectangle 12" d="M8.66602 11.9648L10.5357 13.0443L6.73895 19.6206L5.64919 17.1902L8.66602 11.9648Z" fill="#AA75CB"/>
<path id="Rectangle 13" d="M8.66602 11.9648L6.79631 10.8854L2.99953 17.4616L5.64919 17.1902L8.66602 11.9648Z" fill="#73488D"/>
<path id="Rectangle 14" d="M11.333 11.9648L9.4633 13.0443L13.2601 19.6206L14.3498 17.1902L11.333 11.9648Z" fill="#73488D"/>
<path id="Rectangle 15" d="M11.333 11.9648L13.2027 10.8854L16.9995 17.4616L14.3498 17.1902L11.333 11.9648Z" fill="#AA75CB"/>
<path id="Ellipse 5" d="M9.99954 13.929C13.5849 13.929 16.4914 11.0224 16.4914 7.43707C16.4914 3.8517 13.5849 0.94518 9.99954 0.94518C6.41418 0.94518 3.50768 3.8517 3.50768 7.43707C3.50768 11.0224 6.41418 13.929 9.99954 13.929Z" fill="#DC9E42" stroke="#774700" stroke-width="0.10964"/>
<ellipse id="Ellipse 6" cx="9.99735" cy="7.43683" rx="5.02469" ry="5.02472" fill="#734C12"/>
<g id="Mask Group">
<mask id="mask0_257_54233" style="mask-type:alpha" maskUnits="userSpaceOnUse" x="5" y="2" width="11" height="12">
<ellipse id="Ellipse 4" cx="10.2678" cy="7.97391" rx="5.03638" ry="5.03641" fill="#C28B37"/>
</mask>
<g mask="url(#mask0_257_54233)">
<ellipse id="Ellipse 3" cx="10.0003" cy="7.43876" rx="5.03638" ry="5.03641" fill="#A36D1D"/>
</g>
</g>
<path id="3" d="M11.612 8.509C11.612 7.914 11.311 7.613 11.038 7.424C11.29 7.263 11.556 6.997 11.556 6.451C11.556 5.59 10.877 4.974 9.953 4.974C9.064 4.974 8.35 5.541 8.35 6.479H9.498C9.498 6.178 9.715 6.01 9.953 6.01C10.191 6.01 10.408 6.171 10.408 6.486C10.408 6.71 10.275 6.955 9.932 6.955H9.771V7.949H9.932C10.24 7.949 10.464 8.173 10.464 8.474C10.464 8.831 10.254 9.006 9.953 9.006C9.666 9.006 9.442 8.831 9.442 8.481H8.294C8.294 9.601 9.127 10.042 9.953 10.042C10.828 10.042 11.612 9.552 11.612 8.509Z" fill="url(#paint0_linear_257_54233)"/>
</g>
</g>
<defs>
<linearGradient id="paint0_linear_257_54233" x1="10" y1="3" x2="10" y2="12" gradientUnits="userSpaceOnUse">
<stop stop-color="#FCFF80"/>
<stop offset="0.401042" stop-color="#FDE870"/>
<stop offset="1" stop-color="#FFC759"/>
</linearGradient>
</defs>
</svg>
