<svg width="97" height="96" viewBox="0 0 97 96" fill="none" xmlns="http://www.w3.org/2000/svg">
<g id="Group 427320900">
<g id="Iconly/Glass/Danger">
<g id="Danger">
<g id="Bg">
<path id="Danger_2" d="M61.9544 53.124L33.895 25.0159C30.9413 22.0015 26.0338 21.9172 22.9833 24.8642C21.92 25.8487 21.191 27.1326 20.8479 28.4867L10.5393 67.1525C9.99171 71.3262 12.9972 75.1662 17.23 75.6831C18.0709 75.7656 18.9373 75.7322 19.7673 75.5629L58.3363 65.2284C60.2842 64.5945 61.8711 63.2458 62.8237 61.4263C63.7748 59.6015 63.9497 57.5146 63.3196 55.5846C63.0424 54.7606 62.6418 54.0032 61.9544 53.124V53.124Z" fill="url(#paint0_linear_369_141233)"/>
<g id="Danger_3" filter="url(#filter0_f_369_141233)">
<path d="M51.0357 55.5575L34.9485 39.4424C33.2551 37.7141 30.4415 37.6658 28.6925 39.3554C28.0829 39.9199 27.665 40.656 27.4683 41.4323L21.5581 63.6004C21.2441 65.9933 22.9673 68.1949 25.394 68.4912C25.8762 68.5385 26.3729 68.5193 26.8487 68.4223L48.9613 62.4972C50.0781 62.1338 50.988 61.3606 51.5341 60.3174C52.0794 59.2712 52.1797 58.0747 51.8184 56.9682C51.6595 56.4958 51.4298 56.0616 51.0357 55.5575V55.5575Z" fill="#E31352"/>
</g>
</g>
<g id="Icon">
<g id="Path" filter="url(#filter1_b_369_141233)">
<path d="M95.1026 66.7208L69.417 22.1428C66.7318 17.3807 60.6195 15.6299 55.8145 18.2946C54.154 19.17 52.8114 20.5321 51.9281 22.1113L26.0658 67.0359C23.9813 72.0746 26.4545 77.8871 31.5775 79.953C32.6021 80.3382 33.6973 80.5868 34.7926 80.6534H86.5172C89.167 80.5133 91.6048 79.3578 93.4067 77.4004C95.2086 75.4361 96.1272 72.8835 95.9859 70.2573C95.9152 69.1333 95.6679 68.0513 95.1026 66.7208V66.7208Z" fill="#FF749F" fill-opacity="0.35"/>
<path d="M95.5008 66.5516L95.1026 66.7208L95.4775 66.5047L69.7939 21.9303C69.7935 21.9297 69.7932 21.9291 69.7929 21.9285C66.9917 16.9628 60.6213 15.137 55.6087 17.914C53.8729 18.8301 52.473 20.2518 51.5518 21.8976C51.5514 21.8984 51.5509 21.8992 51.5505 21.9L25.6908 66.82C25.6815 66.8363 25.6732 66.8531 25.666 66.8705C23.4879 72.1355 26.0737 78.2002 31.4157 80.3543L31.4156 80.3545L31.4252 80.3581C32.4866 80.7571 33.6242 81.0159 34.7664 81.0853C34.7751 81.0858 34.7838 81.0861 34.7926 81.0861H86.5172C86.5248 81.0861 86.5324 81.0859 86.54 81.0854C89.3038 80.9394 91.8473 79.7332 93.7251 77.6935L93.7256 77.6929C95.6053 75.6437 96.5656 72.9776 96.4179 70.2341L96.4177 70.2302C96.3437 69.0528 96.0835 67.923 95.5008 66.5516Z" stroke="url(#paint1_linear_369_141233)" stroke-width="0.865394" stroke-linecap="round" stroke-linejoin="round"/>
</g>
<g id="Union" filter="url(#filter2_bd_369_141233)">
<mask id="path-5-inside-1_369_141233" fill="white">
<path fill-rule="evenodd" clip-rule="evenodd" d="M60.656 54.6073C62.3519 54.6073 63.7298 53.2032 63.7298 51.5225V41.6166C63.7298 39.9324 62.3519 38.5703 60.656 38.5703C58.9601 38.5703 57.5469 39.9324 57.5469 41.6166V51.5225C57.5469 53.2032 58.9601 54.6073 60.656 54.6073ZM57.5469 63.4996C57.5469 65.1768 58.9601 66.5809 60.656 66.5809C62.3519 66.5809 63.7298 65.1768 63.7298 63.4611C63.7298 61.7839 62.3519 60.4148 60.656 60.4148C58.9601 60.4148 57.5469 61.8154 57.5469 63.4996Z"/>
</mask>
<path fill-rule="evenodd" clip-rule="evenodd" d="M60.656 54.6073C62.3519 54.6073 63.7298 53.2032 63.7298 51.5225V41.6166C63.7298 39.9324 62.3519 38.5703 60.656 38.5703C58.9601 38.5703 57.5469 39.9324 57.5469 41.6166V51.5225C57.5469 53.2032 58.9601 54.6073 60.656 54.6073ZM57.5469 63.4996C57.5469 65.1768 58.9601 66.5809 60.656 66.5809C62.3519 66.5809 63.7298 65.1768 63.7298 63.4611C63.7298 61.7839 62.3519 60.4148 60.656 60.4148C58.9601 60.4148 57.5469 61.8154 57.5469 63.4996Z" fill="url(#paint2_linear_369_141233)"/>
<path d="M63.3836 51.5225C63.3836 53.0148 62.158 54.2612 60.656 54.2612V54.9535C62.5458 54.9535 64.076 53.3917 64.076 51.5225H63.3836ZM63.3836 41.6166V51.5225H64.076V41.6166H63.3836ZM60.656 38.9165C62.1639 38.9165 63.3836 40.1268 63.3836 41.6166H64.076C64.076 39.738 62.5399 38.2242 60.656 38.2242V38.9165ZM57.893 41.6166C57.893 40.1319 59.1429 38.9165 60.656 38.9165V38.2242C58.7773 38.2242 57.2007 39.733 57.2007 41.6166H57.893ZM57.893 51.5225V41.6166H57.2007V51.5225H57.893ZM60.656 54.2612C59.1489 54.2612 57.893 53.0096 57.893 51.5225H57.2007C57.2007 53.3968 58.7714 54.9535 60.656 54.9535V54.2612ZM60.656 66.2348C59.1486 66.2348 57.893 64.983 57.893 63.4996H57.2007C57.2007 65.3707 58.7716 66.9271 60.656 66.9271V66.2348ZM63.3836 63.4611C63.3836 64.9909 62.1555 66.2348 60.656 66.2348V66.9271C62.5483 66.9271 64.076 65.3627 64.076 63.4611H63.3836ZM60.656 60.7609C62.1634 60.7609 63.3836 61.9777 63.3836 63.4611H64.076C64.076 61.59 62.5404 60.0686 60.656 60.0686V60.7609ZM57.893 63.4996C57.893 62.0092 59.1486 60.7609 60.656 60.7609V60.0686C58.7716 60.0686 57.2007 61.6215 57.2007 63.4996H57.893Z" fill="url(#paint3_linear_369_141233)" mask="url(#path-5-inside-1_369_141233)"/>
</g>
</g>
</g>
</g>
</g>
<defs>
<filter id="filter0_f_369_141233" x="5.07899" y="21.6747" width="63.3947" height="63.2834" filterUnits="userSpaceOnUse" color-interpolation-filters="sRGB">
<feFlood flood-opacity="0" result="BackgroundImageFix"/>
<feBlend mode="normal" in="SourceGraphic" in2="BackgroundImageFix" result="shape"/>
<feGaussianBlur stdDeviation="8.22125" result="effect1_foregroundBlur_369_141233"/>
</filter>
<filter id="filter1_b_369_141233" x="3.6905" y="-4.58782" width="113.944" height="106.877" filterUnits="userSpaceOnUse" color-interpolation-filters="sRGB">
<feFlood flood-opacity="0" result="BackgroundImageFix"/>
<feGaussianBlur in="BackgroundImageFix" stdDeviation="10.3847"/>
<feComposite in2="SourceAlpha" operator="in" result="effect1_backgroundBlur_369_141233"/>
<feBlend mode="normal" in="SourceGraphic" in2="effect1_backgroundBlur_369_141233" result="shape"/>
</filter>
<filter id="filter2_bd_369_141233" x="44.566" y="25.5894" width="32.1444" height="53.9716" filterUnits="userSpaceOnUse" color-interpolation-filters="sRGB">
<feFlood flood-opacity="0" result="BackgroundImageFix"/>
<feGaussianBlur in="BackgroundImageFix" stdDeviation="6.49046"/>
<feComposite in2="SourceAlpha" operator="in" result="effect1_backgroundBlur_369_141233"/>
<feColorMatrix in="SourceAlpha" type="matrix" values="0 0 0 0 0 0 0 0 0 0 0 0 0 0 0 0 0 0 127 0" result="hardAlpha"/>
<feOffset dx="4.32697" dy="4.32697"/>
<feGaussianBlur stdDeviation="4.32697"/>
<feColorMatrix type="matrix" values="0 0 0 0 1 0 0 0 0 0.376471 0 0 0 0 0.580392 0 0 0 1 0"/>
<feBlend mode="normal" in2="effect1_backgroundBlur_369_141233" result="effect2_dropShadow_369_141233"/>
<feBlend mode="normal" in="SourceGraphic" in2="effect2_dropShadow_369_141233" result="shape"/>
</filter>
<linearGradient id="paint0_linear_369_141233" x1="37.4344" y1="48.816" x2="-0.468368" y2="84.6338" gradientUnits="userSpaceOnUse">
<stop stop-color="#FF759F"/>
<stop offset="1" stop-color="#FF196E"/>
</linearGradient>
<linearGradient id="paint1_linear_369_141233" x1="36.5763" y1="24.4571" x2="76.0531" y2="78.7826" gradientUnits="userSpaceOnUse">
<stop stop-color="white" stop-opacity="0.25"/>
<stop offset="1" stop-color="white" stop-opacity="0"/>
</linearGradient>
<linearGradient id="paint2_linear_369_141233" x1="60.639" y1="40.1503" x2="54.9621" y2="39.6246" gradientUnits="userSpaceOnUse">
<stop stop-color="white" stop-opacity="0.75"/>
<stop offset="1" stop-color="white" stop-opacity="0.2"/>
</linearGradient>
<linearGradient id="paint3_linear_369_141233" x1="58.5311" y1="41.8336" x2="67.8301" y2="44.3758" gradientUnits="userSpaceOnUse">
<stop stop-color="white" stop-opacity="0.25"/>
<stop offset="1" stop-color="white" stop-opacity="0"/>
</linearGradient>
</defs>
</svg>
