<svg width="96" height="96" viewBox="0 0 96 96" fill="none" xmlns="http://www.w3.org/2000/svg">
<g id="Group 427320911">
<g id="Frame 427321693" clip-path="url(#clip0_381_143387)">
<g id="Group 427320910">
<path id="Vector" fill-rule="evenodd" clip-rule="evenodd" d="M20.8888 16.0645C18.853 16.6675 17.6915 18.8067 18.2945 20.8425C18.8975 22.8783 21.0367 24.0397 23.0726 23.4367C25.1084 22.8336 26.2699 20.6945 25.6669 18.6587C25.0639 16.6229 22.9247 15.4615 20.8888 16.0645ZM30.9103 22.4809C31.4301 20.7865 31.474 18.9255 30.9329 17.0988C29.4684 12.1548 24.2732 9.33413 19.329 10.7987C14.3848 12.2632 11.564 17.4583 13.0285 22.4024C13.5714 24.2351 14.6269 25.7761 15.9924 26.9152C8.14528 32.5995 4.35273 42.8378 7.26024 52.6792L8.9457 58.6347L8.95046 58.6507C9.94568 62.0105 9.39927 65.2793 8.47496 67.7395C7.81957 69.4839 8.4269 71.1926 9.27576 72.247C10.126 73.3031 11.8114 74.3853 13.8452 73.7829L24.2408 70.7036C27.041 75.5144 33.0556 77.7584 38.6707 76.0951C44.2858 74.4319 48.108 69.2741 47.8362 63.7143L58.2348 60.6341C60.2352 60.0416 61.0733 58.2595 61.2256 56.9144C61.3775 55.5736 60.9742 53.8346 59.5207 52.717C57.4742 51.1434 55.2633 48.6619 54.2481 45.2504L52.6502 39.5902L52.6452 39.5734C49.6808 29.5659 40.7569 22.9424 30.9103 22.4809ZM42.2419 65.3714L29.8352 69.0465C31.5192 70.8189 34.2723 71.6701 37.1109 70.8293C39.9496 69.9884 41.7949 67.7751 42.2419 65.3714Z" fill="url(#paint0_linear_381_143387)"/>
<g id="Rectangle 34624514" opacity="0.5" filter="url(#filter0_f_381_143387)">
<rect x="21" y="45.0254" width="29" height="25" transform="rotate(-24.5 21 45.0254)" fill="#FF624D"/>
</g>
<g id="Vector_2" filter="url(#filter1_b_381_143387)">
<path fill-rule="evenodd" clip-rule="evenodd" d="M65.7567 22.3862C63.492 21.8841 61.2491 23.3129 60.7471 25.5776C60.245 27.8422 61.6739 30.0851 63.9386 30.5871C66.2033 31.0892 68.4462 29.6604 68.9482 27.3957C69.4503 25.1311 68.0214 22.8882 65.7567 22.3862ZM71.9339 33.8251C73.3281 32.4814 74.3557 30.7265 74.8062 28.6944C76.0255 23.1946 72.5553 17.7476 67.0554 16.5283C61.5554 15.309 56.1084 18.7791 54.8891 24.2789C54.4371 26.3177 54.6295 28.3492 55.3309 30.1608C44.8221 31.4361 35.7754 39.2104 33.3411 50.1541L31.7972 56.7375L31.7932 56.7554C30.9646 60.4929 28.7112 63.3269 26.5249 65.1881C24.9748 66.5078 24.65 68.4622 24.9027 69.9193C25.1558 71.3788 26.193 73.3056 28.4553 73.8072L40.0196 76.3709C40.1472 82.451 44.7057 87.7808 50.9521 89.1656C57.1984 90.5504 63.5823 87.6464 66.2675 82.1899L77.835 84.7544C80.0603 85.2477 81.805 83.9887 82.6629 82.7842C83.5182 81.5834 84.0539 79.7081 83.2571 77.8704C82.135 75.2828 81.3368 71.7406 82.1738 67.9431L83.6448 61.6883L83.649 61.6696C86.117 50.5371 81.0981 39.4815 71.9339 33.8251ZM60.0442 80.8102L46.2429 77.7506C46.9132 80.3361 49.0929 82.6077 52.2507 83.3077C55.4085 84.0078 58.344 82.8703 60.0442 80.8102Z" fill="#FFAC95" fill-opacity="0.4"/>
<path d="M31.0325 56.5582L31.0324 56.5582L31.0303 56.5675L31.0264 56.5854C30.2452 60.109 28.114 62.8038 26.0158 64.59L26.5249 65.1881L26.0158 64.59C24.199 66.1367 23.8425 68.4023 24.1288 70.0535C24.4147 71.7021 25.6047 73.9797 28.2853 74.574L39.2619 77.0074C39.6824 83.2126 44.42 88.522 50.7821 89.9324C57.1441 91.3429 63.6817 88.5331 66.6853 83.087L77.665 85.5212C80.3007 86.1055 82.3316 84.6033 83.3027 83.2399C84.2735 81.8768 84.9112 79.7108 83.9777 77.5579C82.902 75.0772 82.1496 71.7087 82.9397 68.1174L84.4094 61.8681L84.4094 61.8682L84.4116 61.8583L84.4158 61.8396C86.8843 50.7048 82.0811 39.6441 73.156 33.677C74.3131 32.3422 75.1642 30.7086 75.5731 28.8644C76.8862 22.9411 73.1488 17.0747 67.2254 15.7615C61.3019 14.4483 55.4354 18.1855 54.1222 24.1089C53.7116 25.9611 53.7951 27.8094 54.2853 29.5143C43.8645 31.169 35.0115 39.0361 32.5753 49.9791C32.575 49.9806 32.5747 49.9821 32.5744 49.9836L31.0325 56.5582ZM61.5139 25.7476C61.9221 23.9065 63.7455 22.7448 65.5867 23.153C67.4279 23.5612 68.5896 25.3846 68.1814 27.2257C67.7732 29.0668 65.9498 30.2285 64.1086 29.8203C62.2674 29.4121 61.1057 27.5887 61.5139 25.7476ZM52.4207 82.5409C50.0935 82.025 48.374 80.5798 47.4877 78.831L58.4594 81.2634C56.9171 82.4738 54.7479 83.0569 52.4207 82.5409Z" stroke="url(#paint1_linear_381_143387)" stroke-width="1.57089" stroke-linecap="round" stroke-linejoin="round"/>
</g>
<path id="Vector 303" d="M93.4795 12.2461H86.2029C86.0369 12.2461 85.8889 12.3504 85.8331 12.5067L82.1865 22.7173C82.0951 22.973 82.2847 23.2421 82.5563 23.2421H87.3291C87.6016 23.2421 87.7913 23.5129 87.6981 23.769L85.4064 30.0711C85.2603 30.4731 85.7708 30.7859 86.0626 30.4733L95.1274 20.761C95.3617 20.51 95.1837 20.1004 94.8403 20.1004H90.1542C89.8489 20.1004 89.6604 19.7674 89.8174 19.5056L93.8163 12.8409C93.9733 12.5791 93.7848 12.2461 93.4795 12.2461Z" fill="url(#paint2_linear_381_143387)"/>
</g>
</g>
</g>
<defs>
<filter id="filter0_f_381_143387" x="7.64773" y="19.6477" width="63.4604" height="61.4799" filterUnits="userSpaceOnUse" color-interpolation-filters="sRGB">
<feFlood flood-opacity="0" result="BackgroundImageFix"/>
<feBlend mode="normal" in="SourceGraphic" in2="BackgroundImageFix" result="shape"/>
<feGaussianBlur stdDeviation="6.67614" result="effect1_foregroundBlur_381_143387"/>
</filter>
<filter id="filter1_b_381_143387" x="-0.307531" y="-8.8505" width="109.718" height="123.492" filterUnits="userSpaceOnUse" color-interpolation-filters="sRGB">
<feFlood flood-opacity="0" result="BackgroundImageFix"/>
<feGaussianBlur in="BackgroundImageFix" stdDeviation="11.7817"/>
<feComposite in2="SourceAlpha" operator="in" result="effect1_backgroundBlur_381_143387"/>
<feBlend mode="normal" in="SourceGraphic" in2="effect1_backgroundBlur_381_143387" result="shape"/>
</filter>
<linearGradient id="paint0_linear_381_143387" x1="34.1719" y1="46.6711" x2="-9.65405" y2="80.8019" gradientUnits="userSpaceOnUse">
<stop stop-color="#FFA78F"/>
<stop offset="1" stop-color="#F23E2C"/>
</linearGradient>
<linearGradient id="paint1_linear_381_143387" x1="45.2152" y1="20.5647" x2="96.7952" y2="81.8586" gradientUnits="userSpaceOnUse">
<stop stop-color="white" stop-opacity="0.25"/>
<stop offset="1" stop-color="white" stop-opacity="0.15"/>
</linearGradient>
<linearGradient id="paint2_linear_381_143387" x1="89.8834" y1="23.3788" x2="76.5008" y2="27.9337" gradientUnits="userSpaceOnUse">
<stop stop-color="#FFA78F"/>
<stop offset="1" stop-color="#F23E2C"/>
</linearGradient>
<clipPath id="clip0_381_143387">
<rect width="96" height="96" fill="white"/>
</clipPath>
</defs>
</svg>
