<svg width="24" height="24" viewBox="0 0 24 24"  xmlns="http://www.w3.org/2000/svg">
<g id="Frame">
<path id="Union" fill-rule="evenodd" clip-rule="evenodd" d="M10.9862 16.443L11.0771 16.5753C11.143 16.6887 11.2315 16.7875 11.3371 16.8654C11.4428 16.9432 11.5632 16.9986 11.6911 17.0281C11.819 17.0575 11.9516 17.0604 12.0806 17.0366C12.2096 17.0127 12.3324 16.9627 12.4413 16.8895L16.8813 13.9626V18.0966C16.8813 18.279 16.8454 18.4597 16.7756 18.6282C16.7058 18.7967 16.6034 18.9498 16.4744 19.0788C16.3455 19.2078 16.1923 19.3101 16.0238 19.3799C15.8553 19.4497 15.6747 19.4857 15.4922 19.4857H6.39738C6.21427 19.4868 6.03276 19.4516 5.86328 19.3823C5.6938 19.313 5.53969 19.2108 5.40983 19.0818C5.27997 18.9527 5.17691 18.7992 5.10659 18.6301C5.03627 18.461 5.00007 18.2797 5.00008 18.0966V6.3973C4.99784 6.03174 5.13981 5.68002 5.3952 5.41845C5.65059 5.15687 5.9988 5.00652 6.36432 5H15.4592C15.8247 5.00652 16.1729 5.15687 16.4283 5.41845C16.6837 5.68002 16.8256 6.03174 16.8234 6.3973V11.4822L11.2507 15.1118C11.1166 15.2042 11.0084 15.3295 10.9365 15.4756V15.5252C10.8673 15.6701 10.8356 15.8301 10.8442 15.9905C10.8529 16.1508 10.9017 16.3064 10.9862 16.443ZM14.8143 7.33986H7.23244C6.92654 7.33986 6.67022 7.52175 6.67022 7.75327C6.67022 7.98478 6.92652 8.16668 7.23244 8.16668H14.8143C15.1284 8.16668 15.3765 7.98478 15.3765 7.75327C15.3765 7.52175 15.1284 7.33986 14.8143 7.33986ZM14.8143 9.86988H7.23244C6.92654 9.86988 6.67022 10.0601 6.67022 10.2833C6.67022 10.5065 6.92652 10.6967 7.23244 10.6967H14.8143C15.1284 10.6967 15.3765 10.5148 15.3765 10.2833C15.3765 10.0518 15.1284 9.86988 14.8143 9.86988ZM10.8869 12.4413H7.23244C6.92652 12.4413 6.65369 12.6397 6.65369 12.8712C6.65369 13.1027 6.92652 13.2681 7.23244 13.2681H10.8869C11.2011 13.2681 11.4492 13.0779 11.4492 12.8547C11.4492 12.6314 11.2011 12.4413 10.8869 12.4413ZM9.56698 16.5476C9.48945 16.47 9.3843 16.4265 9.27465 16.4265L8.59668 16.443V16.3355H9.2912C9.34549 16.3355 9.39925 16.3248 9.44941 16.3041C9.49957 16.2833 9.54514 16.2528 9.58353 16.2144C9.62192 16.1761 9.65237 16.1305 9.67314 16.0803C9.69392 16.0302 9.70461 15.9764 9.70461 15.9221C9.70461 15.8125 9.66106 15.7073 9.58353 15.6298C9.506 15.5523 9.40085 15.5087 9.2912 15.5087H9.13411L9.60538 14.9713C9.67392 14.8866 9.70628 14.7784 9.69544 14.67C9.6846 14.5616 9.63143 14.4619 9.54749 14.3925C9.50656 14.3571 9.45893 14.3302 9.40743 14.3134C9.35593 14.2967 9.3016 14.2905 9.24764 14.2951C9.19369 14.2997 9.14121 14.3151 9.09331 14.3404C9.0454 14.3656 9.00305 14.4002 8.96875 14.4421L8.21635 15.3433L7.48049 14.4504C7.41361 14.3616 7.31419 14.303 7.2041 14.2875C7.09401 14.272 6.98227 14.3008 6.89346 14.3677C6.80465 14.4346 6.74604 14.534 6.73054 14.6441C6.71503 14.7542 6.74389 14.8659 6.81077 14.9547L7.24898 15.4922H7.08363C6.97465 15.4943 6.87072 15.5385 6.79364 15.6156C6.71657 15.6927 6.67233 15.7966 6.67022 15.9056C6.67022 16.0152 6.71377 16.1204 6.7913 16.1979C6.86883 16.2754 6.97399 16.319 7.08363 16.319H7.76988V16.4265H7.08363C6.97465 16.4286 6.87072 16.4728 6.79364 16.5499C6.71657 16.627 6.67233 16.7309 6.67022 16.8399C6.67022 16.9495 6.71377 17.0547 6.7913 17.1322C6.86883 17.2097 6.97399 17.2533 7.08363 17.2533H7.76986V17.6171C7.76986 17.6714 7.78055 17.7251 7.80133 17.7753C7.8221 17.8254 7.85256 17.871 7.89094 17.9094C7.92933 17.9478 7.97491 17.9782 8.02506 17.999C8.07522 18.0198 8.12898 18.0305 8.18327 18.0305C8.23756 18.0305 8.29132 18.0198 8.34147 17.999C8.39163 17.9782 8.43721 17.9478 8.47559 17.9094C8.51398 17.871 8.54444 17.8254 8.56521 17.7753C8.58599 17.7251 8.59668 17.6714 8.59668 17.6171V17.2533H9.27465C9.38429 17.2533 9.48944 17.2097 9.56697 17.1322C9.6445 17.0547 9.68806 16.9495 9.68806 16.8399C9.68806 16.7302 9.64451 16.6251 9.56698 16.5476ZM18.9152 11.3255V11.3917C18.9904 11.5069 19.017 11.6472 18.9892 11.782C18.9613 11.9168 18.8812 12.0351 18.7664 12.111L12.2263 16.3442C12.1101 16.4187 11.969 16.444 11.8342 16.4145C11.6993 16.3851 11.5816 16.3033 11.507 16.1871L11.4574 16.121C11.3829 16.0048 11.3576 15.8637 11.3871 15.7288C11.4165 15.5939 11.4983 15.4763 11.6145 15.4017L18.1959 11.1685C18.3121 11.094 18.4532 11.0687 18.588 11.0981C18.7229 11.1276 18.8406 11.2094 18.9152 11.3255Z" />
</g>
</svg>
