<svg width="18" height="18" viewBox="0 0 18 18" fill="none" xmlns="http://www.w3.org/2000/svg">
<path fill-rule="evenodd" clip-rule="evenodd" d="M5.0625 15.9353C5.0625 16.5566 5.56618 17.0603 6.1875 17.0603H12.1875C12.8088 17.0603 13.3125 16.5566 13.3125 15.9353V3.9353C13.3125 3.31398 12.8088 2.8103 12.1875 2.8103H6.1875C5.56618 2.8103 5.0625 3.31398 5.0625 3.9353L5.0625 15.9353ZM7.6875 1.6853V2.4353H10.6875V1.6853C10.6875 1.27108 10.3517 0.935303 9.9375 0.935303H8.4375C8.02327 0.935303 7.6875 1.27108 7.6875 1.6853ZM8.48109 7.30957C8.43326 7.30957 8.38939 7.33538 8.3672 7.37657L6.95291 10.0016C6.93203 10.0403 6.93351 10.0869 6.9568 10.1243C6.98009 10.1617 7.02181 10.1846 7.0668 10.1846H8.70002L8.09961 12.4028C8.08458 12.4583 8.11038 12.5166 8.16215 12.5442C8.21393 12.5718 8.27837 12.5615 8.31842 12.5194L11.4041 9.26935C11.4388 9.23287 11.4479 9.17992 11.4274 9.13443C11.407 9.08895 11.3607 9.05957 11.3097 9.05957H9.64562L10.8965 7.5118C10.9269 7.47417 10.9325 7.42297 10.911 7.37993C10.8895 7.33689 10.8446 7.30957 10.7954 7.30957H8.48109Z" fill="#FAF2E6"/>
</svg>
