<svg width="24" height="24" viewBox="0 0 24 24"  xmlns="http://www.w3.org/2000/svg">
<g id="Frame">
<g id="Vector">
<path fill-rule="evenodd" clip-rule="evenodd" d="M1.75 12C1.75 11.5858 2.08579 11.25 2.5 11.25H21.5C21.9142 11.25 22.25 11.5858 22.25 12C22.25 12.4142 21.9142 12.75 21.5 12.75H2.5C2.08579 12.75 1.75 12.4142 1.75 12Z" />
<path fill-rule="evenodd" clip-rule="evenodd" d="M8.25 3C8.25 2.03351 9.03348 1.25 10 1.25H14C14.9665 1.25 15.75 2.03351 15.75 3V7C15.75 7.96651 14.9665 8.75 14 8.75H10C9.03349 8.75 8.25 7.96651 8.25 7V3ZM10 2.75C9.86192 2.75 9.75 2.86192 9.75 3V7C9.75 7.13809 9.86191 7.25 10 7.25H14C14.1381 7.25 14.25 7.13809 14.25 7V3C14.25 2.86192 14.1381 2.75 14 2.75H10Z" />
<path fill-rule="evenodd" clip-rule="evenodd" d="M2.25 17C2.25 16.0335 3.03351 15.25 4 15.25H8C8.96651 15.25 9.75 16.0335 9.75 17V21C9.75 21.9665 8.96651 22.75 8 22.75H4C3.03351 22.75 2.25 21.9665 2.25 21V17ZM4 16.75C3.86192 16.75 3.75 16.8619 3.75 17V21C3.75 21.1381 3.86192 21.25 4 21.25H8C8.13809 21.25 8.25 21.1381 8.25 21V17C8.25 16.8619 8.13809 16.75 8 16.75H4Z"/>
<path fill-rule="evenodd" clip-rule="evenodd" d="M14.25 17C14.25 16.0335 15.0335 15.25 16 15.25H20C20.9665 15.25 21.75 16.0335 21.75 17V21C21.75 21.9665 20.9665 22.75 20 22.75H16C15.0335 22.75 14.25 21.9665 14.25 21V17ZM16 16.75C15.8619 16.75 15.75 16.8619 15.75 17V21C15.75 21.1381 15.8619 21.25 16 21.25H20C20.1381 21.25 20.25 21.1381 20.25 21V17C20.25 16.8619 20.1381 16.75 20 16.75H16Z"/>
<path fill-rule="evenodd" clip-rule="evenodd" d="M12 7.25C12.4142 7.25 12.75 7.58579 12.75 8V12C12.75 12.4142 12.4142 12.75 12 12.75C11.5858 12.75 11.25 12.4142 11.25 12V8C11.25 7.58579 11.5858 7.25 12 7.25Z"/>
<path fill-rule="evenodd" clip-rule="evenodd" d="M18 11.25C18.4142 11.25 18.75 11.5858 18.75 12V16C18.75 16.4142 18.4142 16.75 18 16.75C17.5858 16.75 17.25 16.4142 17.25 16V12C17.25 11.5858 17.5858 11.25 18 11.25Z" />
<path fill-rule="evenodd" clip-rule="evenodd" d="M6 11.25C6.41421 11.25 6.75 11.5858 6.75 12V16C6.75 16.4142 6.41421 16.75 6 16.75C5.58579 16.75 5.25 16.4142 5.25 16V12C5.25 11.5858 5.58579 11.25 6 11.25Z" />
</g>
</g>
</svg>
