<svg width="16" height="16" viewBox="0 0 16 16" xmlns="http://www.w3.org/2000/svg">
<g id="Frame">
<path id="Vector" d="M14.2109 10.4906H4.44531C4.16875 10.4906 3.94531 10.2672 3.94531 9.99063C3.94531 9.71407 4.16875 9.49063 4.44531 9.49063H14.2109C14.4875 9.49063 14.7109 9.71407 14.7109 9.99063C14.7109 10.2672 14.4875 10.4906 14.2109 10.4906Z" />
<path id="Vector_2" d="M14.1375 10.3547C14.0094 10.3547 13.8813 10.3062 13.7844 10.2078L10.2688 6.69219C10.0735 6.49687 10.0735 6.17969 10.2688 5.98438C10.4641 5.78906 10.7813 5.78906 10.9766 5.98438L14.4922 9.5C14.6875 9.69531 14.6875 10.0125 14.4922 10.2078C14.3938 10.3062 14.2657 10.3547 14.1375 10.3547Z"/>
<path id="Vector_3" d="M10.6173 14.1438C10.4892 14.1438 10.361 14.0953 10.2642 13.9969C10.0688 13.8016 10.0688 13.4844 10.2642 13.2891L13.7798 9.77344C13.9751 9.57812 14.2923 9.57812 14.4876 9.77344C14.6829 9.96875 14.6829 10.2859 14.4876 10.4812L10.972 13.9969C10.8735 14.0953 10.7454 14.1438 10.6173 14.1438Z"/>
<path id="Vector_4" d="M7.00317 14.9734H3.58911C2.1938 14.9734 1.05786 13.8375 1.05786 12.4422V3.56561C1.05786 2.1703 2.1938 1.03436 3.58911 1.03436H12.4657C13.861 1.03436 14.9969 2.1703 14.9969 3.56561V6.81718C14.9969 7.09374 14.7735 7.31718 14.4969 7.31718C14.2204 7.31718 13.9969 7.09374 13.9969 6.81718V3.56561C13.9969 2.72186 13.3094 2.03436 12.4657 2.03436H3.58911C2.74536 2.03436 2.05786 2.72186 2.05786 3.56561V12.4422C2.05786 13.2859 2.74536 13.9734 3.58911 13.9734H7.00317C7.27974 13.9734 7.50317 14.1969 7.50317 14.4734C7.50317 14.75 7.27974 14.9734 7.00317 14.9734Z"/>
</g>
</svg>
