<svg width="24" height="24" viewBox="0 0 24 24"  xmlns="http://www.w3.org/2000/svg">
<path fill-rule="evenodd" clip-rule="evenodd" d="M2.25 4.49902C2.25 3.25638 3.25736 2.24902 4.5 2.24902H11.5C11.9142 2.24902 12.25 2.58481 12.25 2.99902C12.25 3.41324 11.9142 3.74902 11.5 3.74902H4.5C4.08579 3.74902 3.75 4.08481 3.75 4.49902V15.499C3.75 15.9132 4.08578 16.249 4.5 16.249H19.5C19.9142 16.249 20.25 15.9132 20.25 15.499V11.999C20.25 11.5848 20.5858 11.249 21 11.249C21.4142 11.249 21.75 11.5848 21.75 11.999V15.499C21.75 16.7417 20.7427 17.749 19.5 17.749H4.5C3.25737 17.749 2.25 16.7417 2.25 15.499V4.49902Z" />
<path fill-rule="evenodd" clip-rule="evenodd" d="M12 16.25C12.4142 16.25 12.75 16.5858 12.75 17V21C12.75 21.4142 12.4142 21.75 12 21.75C11.5858 21.75 11.25 21.4142 11.25 21V17C11.25 16.5858 11.5858 16.25 12 16.25Z" />
<path fill-rule="evenodd" clip-rule="evenodd" d="M6.25 20.999C6.25 20.5848 6.58579 20.249 7 20.249H17C17.4142 20.249 17.75 20.5848 17.75 20.999C17.75 21.4132 17.4142 21.749 17 21.749H7C6.58579 21.749 6.25 21.4132 6.25 20.999Z" />
<path fill-rule="evenodd" clip-rule="evenodd" d="M19.7957 1.59679L19.5 2L19.2043 1.59679C19.3803 1.46774 19.6197 1.46774 19.7957 1.59679ZM19.5 2.6452C19.4812 2.66157 19.4617 2.67871 19.4416 2.69662C19.2208 2.8928 18.9269 3.17704 18.6341 3.5284C18.0376 4.24422 17.5 5.1732 17.5 6.16656C17.5 7.27108 18.3954 8.16649 19.5 8.16649C20.6046 8.16649 21.5 7.27108 21.5 6.16656C21.5 5.1732 20.9624 4.24422 20.3659 3.5284C20.0731 3.17704 19.7792 2.8928 19.5584 2.69662C19.5383 2.67871 19.5188 2.66157 19.5 2.6452ZM19.2043 1.59679C19.2045 1.59669 19.2043 1.59679 19.5 2C19.7957 1.59679 19.7955 1.59669 19.7957 1.59679L19.7971 1.59784L19.7994 1.59956L19.8068 1.60502L19.8317 1.62393C19.8528 1.64004 19.8826 1.66314 19.9198 1.69289C19.9941 1.75237 20.0985 1.83867 20.2228 1.9492C20.4708 2.16968 20.8019 2.48958 21.1341 2.8882C21.7876 3.67234 22.5 4.82664 22.5 6.16656C22.5 7.82339 21.1568 9.16649 19.5 9.16649C17.8432 9.16649 16.5 7.82339 16.5 6.16656C16.5 4.82664 17.2124 3.67234 17.8659 2.8882C18.1981 2.48958 18.5292 2.16968 18.7772 1.9492C18.9015 1.83867 19.0059 1.75237 19.0802 1.69289C19.1174 1.66314 19.1472 1.64004 19.1683 1.62393L19.1932 1.60502L19.2006 1.59956L19.2029 1.59784L19.2043 1.59679Z" />
<path d="M17 6.16753C17 7.54821 18.1193 8.66746 19.5 8.66746C20.8807 8.66746 22 7.54821 22 6.16753C22 6.16753 20.5 6.66752 19.5 6.16753C18.5 5.66754 17 6.16753 17 6.16753Z" />
<path fill-rule="evenodd" clip-rule="evenodd" d="M16 9.78125C16.4142 9.78125 16.75 10.117 16.75 10.5312V12.5C16.75 12.9142 16.4142 13.25 16 13.25C15.5858 13.25 15.25 12.9142 15.25 12.5V10.5312C15.25 10.117 15.5858 9.78125 16 9.78125Z"/>
<path fill-rule="evenodd" clip-rule="evenodd" d="M12 7.25C12.4142 7.25 12.75 7.58579 12.75 8V12.5C12.75 12.9142 12.4142 13.25 12 13.25C11.5858 13.25 11.25 12.9142 11.25 12.5V8C11.25 7.58579 11.5858 7.25 12 7.25Z" />
<path fill-rule="evenodd" clip-rule="evenodd" d="M8 8.375C8.41421 8.375 8.75 8.71079 8.75 9.125V12.5C8.75 12.9142 8.41421 13.25 8 13.25C7.58579 13.25 7.25 12.9142 7.25 12.5V9.125C7.25 8.71079 7.58579 8.375 8 8.375Z" fill="#2F3133"/>
</svg>
