<svg width="24" height="24" viewBox="0 0 24 24"  xmlns="http://www.w3.org/2000/svg">
<path fill-rule="evenodd" clip-rule="evenodd" d="M2.25 4.49902C2.25 3.25638 3.25736 2.24902 4.5 2.24902H11.5C11.9142 2.24902 12.25 2.58481 12.25 2.99902C12.25 3.41324 11.9142 3.74902 11.5 3.74902H4.5C4.08579 3.74902 3.75 4.08481 3.75 4.49902V15.499C3.75 15.9132 4.08578 16.249 4.5 16.249H19.5C19.9142 16.249 20.25 15.9132 20.25 15.499V11.999C20.25 11.5848 20.5858 11.249 21 11.249C21.4142 11.249 21.75 11.5848 21.75 11.999V15.499C21.75 16.7417 20.7427 17.749 19.5 17.749H4.5C3.25737 17.749 2.25 16.7417 2.25 15.499V4.49902Z" />
<path fill-rule="evenodd" clip-rule="evenodd" d="M12 16.25C12.4142 16.25 12.75 16.5858 12.75 17V21C12.75 21.4142 12.4142 21.75 12 21.75C11.5858 21.75 11.25 21.4142 11.25 21V17C11.25 16.5858 11.5858 16.25 12 16.25Z" />
<path fill-rule="evenodd" clip-rule="evenodd" d="M6.25 20.999C6.25 20.5848 6.58579 20.249 7 20.249H17C17.4142 20.249 17.75 20.5848 17.75 20.999C17.75 21.4132 17.4142 21.749 17 21.749H7C6.58579 21.749 6.25 21.4132 6.25 20.999Z" />
<path d="M18.7981 2.17039C18.8384 2.0935 18.918 2.04532 19.0048 2.04532H22.2017C22.3964 2.04532 22.5055 2.26971 22.3852 2.42281L20.6451 4.63761C20.5248 4.79071 20.6339 5.01511 20.8286 5.01511H22.9974C23.2008 5.01511 23.3068 5.25724 23.1688 5.40671L19.075 9.84185C18.9101 10.0205 18.616 9.85935 18.6779 9.62421L19.423 6.79272C19.4619 6.64476 19.3503 6.5 19.1973 6.5H16.9159C16.7405 6.5 16.6279 6.31376 16.7092 6.1584L18.7981 2.17039Z" />
<path fill-rule="evenodd" clip-rule="evenodd" d="M16.5298 7.46913C16.823 7.76173 16.8235 8.2366 16.5309 8.52979L12.556 12.5127C12.2655 12.8038 11.7947 12.8067 11.5007 12.5191L10.2516 11.2974L8.52388 12.9838C8.22746 13.2731 7.75262 13.2674 7.46329 12.971C7.17397 12.6745 7.17971 12.1997 7.47612 11.9104L9.72828 9.71206C10.0199 9.42746 10.4853 9.4277 10.7766 9.71261L12.0187 10.9276L15.4691 7.47021C15.7617 7.17702 16.2366 7.17654 16.5298 7.46913Z" />
</svg>
