<svg width="42" height="42" viewBox="0 0 42 42" fill="none" xmlns="http://www.w3.org/2000/svg">
<g id="Frame 1321315044">
<g id="&#230;&#165;&#188;&#230;&#142;&#167;&#228;&#184;&#173;&#229;&#191;&#131;">
<circle id="Ellipse 113" cx="13.5" cy="15.5" r="12.5" fill="#6A8BE8"/>
<g id="Ellipse 114" filter="url(#filter0_b_91_39378)">
<circle cx="23.5" cy="21.5" r="16.5" fill="url(#paint0_linear_91_39378)"/>
<circle cx="23.5" cy="21.5" r="16.25" stroke="url(#paint1_linear_91_39378)" stroke-width="0.5"/>
</g>
<g id="Union" filter="url(#filter1_f_91_39378)">
<path fill-rule="evenodd" clip-rule="evenodd" d="M19 16.0908C18.4477 16.0908 18 16.5385 18 17.0908V28.1817C18 28.734 18.4477 29.1817 19 29.1817H23.3622C23.3627 29.1817 23.3632 29.1817 23.3636 29.1817L23.5455 29.1817L27.9091 29.1817C28.4614 29.1817 28.9091 28.734 28.9091 28.1817V21.4545C28.9091 20.9022 28.4614 20.4545 27.9091 20.4545H24.5455V17.0908C24.5455 16.5385 24.0977 16.0908 23.5455 16.0908H19Z" fill="#026BF0" fill-opacity="0.4"/>
</g>
<rect id="Rectangle 34624405" x="19" y="15" width="7" height="13" rx="1" fill="white"/>
<g id="Rectangle 34624406" filter="url(#filter2_d_91_39378)">
<rect x="23" y="19" width="7" height="9" rx="1" fill="white"/>
</g>
</g>
</g>
<defs>
<filter id="filter0_b_91_39378" x="2" y="0" width="43" height="43" filterUnits="userSpaceOnUse" color-interpolation-filters="sRGB">
<feFlood flood-opacity="0" result="BackgroundImageFix"/>
<feGaussianBlur in="BackgroundImageFix" stdDeviation="2.5"/>
<feComposite in2="SourceAlpha" operator="in" result="effect1_backgroundBlur_91_39378"/>
<feBlend mode="normal" in="SourceGraphic" in2="effect1_backgroundBlur_91_39378" result="shape"/>
</filter>
<filter id="filter1_f_91_39378" x="17" y="15.0908" width="12.9091" height="15.0908" filterUnits="userSpaceOnUse" color-interpolation-filters="sRGB">
<feFlood flood-opacity="0" result="BackgroundImageFix"/>
<feBlend mode="normal" in="SourceGraphic" in2="BackgroundImageFix" result="shape"/>
<feGaussianBlur stdDeviation="0.5" result="effect1_foregroundBlur_91_39378"/>
</filter>
<filter id="filter2_d_91_39378" x="21" y="18" width="9" height="11" filterUnits="userSpaceOnUse" color-interpolation-filters="sRGB">
<feFlood flood-opacity="0" result="BackgroundImageFix"/>
<feColorMatrix in="SourceAlpha" type="matrix" values="0 0 0 0 0 0 0 0 0 0 0 0 0 0 0 0 0 0 127 0" result="hardAlpha"/>
<feOffset dx="-1"/>
<feGaussianBlur stdDeviation="0.5"/>
<feComposite in2="hardAlpha" operator="out"/>
<feColorMatrix type="matrix" values="0 0 0 0 0 0 0 0 0 0 0 0 0 0 0 0 0 0 0.13 0"/>
<feBlend mode="normal" in2="BackgroundImageFix" result="effect1_dropShadow_91_39378"/>
<feBlend mode="normal" in="SourceGraphic" in2="effect1_dropShadow_91_39378" result="shape"/>
</filter>
<linearGradient id="paint0_linear_91_39378" x1="11" y1="13.5" x2="40" y2="31.5" gradientUnits="userSpaceOnUse">
<stop stop-color="#D1E2FF" stop-opacity="0.5"/>
<stop offset="1" stop-color="#9FBAE7" stop-opacity="0.8"/>
</linearGradient>
<linearGradient id="paint1_linear_91_39378" x1="10" y1="13.5" x2="37" y2="31.5" gradientUnits="userSpaceOnUse">
<stop stop-color="white"/>
<stop offset="1" stop-color="#026EF2" stop-opacity="0.4"/>
</linearGradient>
</defs>
</svg>
