<svg width="24" height="24" viewBox="0 0 24 24"  xmlns="http://www.w3.org/2000/svg">
<path fill-rule="evenodd" clip-rule="evenodd" d="M8.75 16C8.75 15.5858 9.08579 15.25 9.5 15.25H14.5C14.9142 15.25 15.25 15.5858 15.25 16V20.5C15.25 20.9142 14.9142 21.25 14.5 21.25H9.5C9.08579 21.25 8.75 20.9142 8.75 20.5V16ZM10.25 16.75V19.75H13.75V16.75H10.25Z" />
<path fill-rule="evenodd" clip-rule="evenodd" d="M3.5 4.75C3.36193 4.75 3.25 4.86193 3.25 5V15C3.25 15.1381 3.36193 15.25 3.5 15.25H20.5C20.6381 15.25 20.75 15.1381 20.75 15V5C20.75 4.86193 20.6381 4.75 20.5 4.75H3.5ZM1.75 5C1.75 4.0335 2.5335 3.25 3.5 3.25H20.5C21.4665 3.25 22.25 4.0335 22.25 5V15C22.25 15.9665 21.4665 16.75 20.5 16.75H3.5C2.5335 16.75 1.75 15.9665 1.75 15V5Z" />
<path fill-rule="evenodd" clip-rule="evenodd" d="M10.25 13.5C10.25 13.0858 10.5858 12.75 11 12.75H13C13.4142 12.75 13.75 13.0858 13.75 13.5C13.75 13.9142 13.4142 14.25 13 14.25H11C10.5858 14.25 10.25 13.9142 10.25 13.5Z" />
<path fill-rule="evenodd" clip-rule="evenodd" d="M6.25 20.5C6.25 20.0858 6.58579 19.75 7 19.75H17C17.4142 19.75 17.75 20.0858 17.75 20.5C17.75 20.9142 17.4142 21.25 17 21.25H7C6.58579 21.25 6.25 20.9142 6.25 20.5Z" />
</svg>
