<svg width="24" height="24" viewBox="0 0 24 24"  xmlns="http://www.w3.org/2000/svg">
<g id="Frame">
<path id="Vector" d="M18.4415 16.6225C18.0852 15.8048 17.5711 15.0653 16.9287 14.4465C16.2458 13.7832 15.4346 13.2664 14.5447 12.928C15.7855 12.0553 16.6015 10.5644 16.6015 8.86981C16.6015 6.18182 14.5418 4 11.9978 4C9.45382 4 7.39419 6.18036 7.39419 8.87127C7.39419 10.5644 8.20873 12.0553 9.44946 12.9294C8.5597 13.2681 7.74846 13.7848 7.06546 14.448C6.42692 15.0633 5.91346 15.8007 5.55274 16.6225C5.18659 17.4703 4.99846 18.3842 5.00001 19.3076C5.00001 19.6887 5.29383 20 5.65455 20H18.3455C18.7062 20 19 19.6887 19 19.3076C19 18.3753 18.8109 17.4705 18.4415 16.6225ZM12.0138 19.7804L11.1847 19.0298L11.4466 15.0124C11.4466 14.6938 11.7011 14.4349 12.0167 14.4349C12.3324 14.4349 12.5869 14.6909 12.5869 15.0124L12.8487 19.0284L12.0138 19.7804Z" />
</g>
</svg>
