<svg width="40" height="40" viewBox="0 0 40 40" fill="none" xmlns="http://www.w3.org/2000/svg">
<rect width="40" height="40" rx="20" fill="#546FFF"/>
<path d="M20 20.7143C16.9809 20.7143 14.5238 18.2571 14.5238 15.2381C14.5238 12.219 16.9809 9.7619 20 9.7619C23.019 9.7619 25.4762 12.219 25.4762 15.2381C25.4762 18.2571 23.019 20.7143 20 20.7143ZM20 11.1905C17.7714 11.1905 15.9524 13.0095 15.9524 15.2381C15.9524 17.4667 17.7714 19.2857 20 19.2857C22.2286 19.2857 24.0476 17.4667 24.0476 15.2381C24.0476 13.0095 22.2286 11.1905 20 11.1905Z" fill="white"/>
<path d="M23.6381 30.2381C23.2762 30.2381 22.9334 30.1047 22.6858 29.8571C22.3905 29.5619 22.2572 29.1333 22.3239 28.6857L22.5048 27.4C22.5524 27.0667 22.7524 26.6762 22.9905 26.4286L26.3619 23.0572C27.7143 21.7048 28.9048 22.4762 29.4858 23.0572C29.981 23.5524 30.2381 24.0857 30.2381 24.619C30.2381 25.1619 29.9905 25.6666 29.4858 26.1714L26.1143 29.5429C25.8762 29.781 25.4763 29.981 25.1429 30.0286L23.8572 30.2095C23.781 30.2285 23.7143 30.2381 23.6381 30.2381ZM27.9143 23.7333C27.7429 23.7333 27.5905 23.8476 27.3715 24.0667L24.0001 27.4381C23.9715 27.4667 23.9238 27.5619 23.9238 27.6L23.7524 28.7905L24.9429 28.619C24.981 28.6095 25.0762 28.5619 25.1048 28.5334L28.4763 25.1619C28.6286 25.0095 28.8096 24.7905 28.8096 24.619C28.8096 24.4762 28.6953 24.2762 28.4763 24.0667C28.2477 23.8381 28.0762 23.7333 27.9143 23.7333Z" fill="white"/>
<path d="M28.4953 26.8762C28.4287 26.8762 28.362 26.8667 28.3049 26.8476C27.0477 26.4952 26.0477 25.4952 25.6953 24.2381C25.5906 23.8571 25.8096 23.4667 26.1906 23.3619C26.5715 23.2572 26.962 23.4762 27.0668 23.8571C27.2858 24.6381 27.9049 25.2571 28.6858 25.4762C29.0668 25.5809 29.2858 25.9809 29.1811 26.3524C29.0954 26.6666 28.8096 26.8762 28.4953 26.8762Z" fill="white"/>
<path d="M11.8191 30.2381C11.4287 30.2381 11.1049 29.9143 11.1049 29.5238C11.1049 25.4571 15.0954 22.1429 20.0001 22.1429C21.0382 22.1429 22.0668 22.2953 23.0287 22.581C23.4096 22.6953 23.6192 23.0952 23.5049 23.4667C23.3906 23.8476 22.9906 24.0572 22.6192 23.9429C21.7811 23.6952 20.9049 23.5619 20.0001 23.5619C15.8858 23.5619 12.5334 26.2286 12.5334 29.5143C12.5334 29.9143 12.2096 30.2381 11.8191 30.2381Z" fill="white"/>
</svg>
