<svg width="40" height="40" viewBox="0 0 40 40" fill="none" xmlns="http://www.w3.org/2000/svg">
<g id="&#229;&#140;&#186;&#229;&#159;&#159;&#231;&#174;&#161;&#231;&#144;&#134; &#230;&#139;&#150;&#230;&#139;&#189;">
<path id="Vector" d="M19.9987 36.6663C29.2034 36.6663 36.6654 29.2044 36.6654 19.9997C36.6654 10.7949 29.2034 3.33301 19.9987 3.33301C10.7939 3.33301 3.33203 10.7949 3.33203 19.9997C3.33203 29.2044 10.7939 36.6663 19.9987 36.6663Z" stroke="#DFE0E2" stroke-linejoin="round"/>
<g id="&#230;&#160;&#145;/icon/&#230;&#139;&#150;&#230;&#139;&#189;">
<path id="Vector_2" fill-rule="evenodd" clip-rule="evenodd" d="M21.5 21.5L26.75 22.55L25.175 23.6L26.75 25.175L25.175 26.75L23.6 25.175L22.55 26.75L21.5 21.5Z" stroke="#8D9094" stroke-width="1.5" stroke-linecap="round" stroke-linejoin="round"/>
<path id="Vector_3" d="M26.75 19.25V14C26.75 13.5858 26.4142 13.25 26 13.25H14C13.5858 13.25 13.25 13.5858 13.25 14V26C13.25 26.4142 13.5858 26.75 14 26.75H18.875" stroke="#8D9094" stroke-width="1.5" stroke-linecap="round" stroke-linejoin="round"/>
</g>
</g>
</svg>
