<?xml version="1.0" encoding="UTF-8"?>
<svg width="34px" height="34px" viewBox="0 0 34 34" version="1.1" xmlns="http://www.w3.org/2000/svg" xmlns:xlink="http://www.w3.org/1999/xlink">
    <title>编组 65</title>
    <g id="页面-2" stroke="none" stroke-width="1" fill="none" fill-rule="evenodd">
        <g id="一级菜单" transform="translate(-711.000000, -19.000000)" fill-rule="nonzero">
            <g id="编组-81">
                <g id="编组-80" transform="translate(321.000000, 0.000000)">
                    <g id="编组-77" transform="translate(368.000000, 0.000000)">
                        <g id="编组-65" transform="translate(22.000000, 14.000000)">
                            <g id="导航/部门能耗" transform="translate(0.000000, 5.000000)">
                                <g id="结果对比分析">
                                    <rect id="矩形" fill="#000000" opacity="0" x="0" y="0" width="34" height="34"></rect>
                                    <polygon id="路径" fill="#4AA5A6" points="17 23.69375 22.95 29.64375 11.05 29.64375"></polygon>
                                    <polygon id="路径" fill="#4AA5A6" points="2.125 4.35625 31.875 4.35625 31.875 23.69375 2.125 23.69375"></polygon>
                                    <polygon id="路径" fill="#D7E9E9" points="2.125 22.20625 31.875 4.35625 2.125 4.35625"></polygon>
                                    <path d="M6.5875,12.5375 L9.5625,12.5375 L9.5625,20.71875 L6.5875,20.71875 L6.5875,12.5375 Z M12.5375,7.33125 L15.5125,7.33125 L15.5125,20.71875 L12.5375,20.71875 L12.5375,7.33125 Z M18.4875,16.25625 L21.4625,16.25625 L21.4625,20.71875 L18.4875,20.71875 L18.4875,16.25625 Z M24.4375,11.05 L27.4125,11.05 L27.4125,20.71875 L24.4375,20.71875 L24.4375,11.05 Z" id="形状" fill="#FFFFFF"></path>
                                </g>
                            </g>
                        </g>
                    </g>
                </g>
            </g>
        </g>
    </g>
</svg>