<?xml version="1.0" encoding="UTF-8"?>
<svg width="34px" height="34px" viewBox="0 0 34 34" version="1.1" xmlns="http://www.w3.org/2000/svg" xmlns:xlink="http://www.w3.org/1999/xlink">
    <title>导航/业务办理</title>
    <g id="页面-2" stroke="none" stroke-width="1" fill="none" fill-rule="evenodd">
        <g id="一级菜单" transform="translate(-1263.000000, -19.000000)">
            <g id="编组-81">
                <g id="编组-80" transform="translate(321.000000, 0.000000)">
                    <g id="编组-65" transform="translate(920.000000, 0.000000)">
                        <g id="编组-74" transform="translate(22.000000, 13.000000)">
                            <g id="导航/业务办理" transform="translate(0.000000, 6.000000)">
                                <rect id="矩形" fill="#000000" fill-rule="nonzero" opacity="0" x="0" y="0" width="34" height="34"></rect>
                                <path d="M28.0234375,3.90966797 C26.5014062,3.90966797 25.2675781,5.14349609 25.2675781,6.66552734 L25.2675781,28.0234375 C25.2675781,29.2224023 24.2711523,30.090332 23.2162891,30.090332 L7.35449219,30.090332 L7.35449219,6.66552734 C7.35449219,5.00371094 8.73242188,3.90966797 10.1103516,3.90966797 L28.0234375,3.90966797 Z" id="路径" fill="#4AA5A6"></path>
                                <path d="M25.2675781,6.66552734 C25.2675781,5.14349609 26.5014062,3.90966797 28.0234375,3.90966797 C29.5454688,3.90966797 30.7792969,5.14349609 30.7792969,6.66552734 L30.7792969,9.42138672 L25.2675781,9.42138672 L25.2675781,6.66552734 Z" id="路径" fill="#4AA5A6" opacity="0.200000003"></path>
                                <path d="M24.119082,29.8755078 C23.8383939,30.0147728 23.5296213,30.0881333 23.2162891,30.09 L24.2419336,30.09 L5.28759766,30.09 C4.14607422,30.090332 3.22070312,29.1649609 3.22070312,28.0234375 L3.22070312,25.956543 L21.1337891,25.956543 L21.1337891,28.0234375 C21.1337891,29.1649609 22.0591602,30.090332 23.2006836,30.090332 C23.5307227,30.090332 23.842168,30.0129687 24.119082,29.8755078 Z" id="路径" fill="#4AA5A6" opacity="0.200000003"></path>
                                <path d="M15.6220703,10.7993164 L22.5117188,10.7993164 L22.5117188,13.5551758 L15.6220703,13.5551758 L15.6220703,10.7993164 Z M10.1103516,16.3110352 L22.5117188,16.3110352 L22.5117188,19.0668945 L10.1103516,19.0668945 L10.1103516,16.3110352 Z" id="形状" fill="#FFFFFF" fill-rule="nonzero"></path>
                            </g>
                        </g>
                    </g>
                </g>
            </g>
        </g>
    </g>
</svg>