<?xml version="1.0" encoding="UTF-8"?>
<svg width="34px" height="34px" viewBox="0 0 34 34" version="1.1" xmlns="http://www.w3.org/2000/svg" xmlns:xlink="http://www.w3.org/1999/xlink">
    <title>导航/综合看板</title>
    <g id="页面-2" stroke="none" stroke-width="1" fill="none" fill-rule="evenodd">
        <g id="一级菜单" transform="translate(-343.000000, -19.000000)">
            <g id="编组-81">
                <g id="编组-80" transform="translate(321.000000, 0.000000)">
                    <g id="编组-20" transform="translate(22.000000, 14.000000)">
                        <g id="综合看板" transform="translate(0.000000, 5.000000)">
                            <rect id="矩形" fill="#000000" fill-rule="nonzero" opacity="0" x="0" y="0" width="34" height="34"></rect>
                            <polygon id="路径" fill="#4AA5A6" points="3.22070312 11.4882812 30.7792969 11.4882812 30.7792969 29.4013672 3.22070312 29.4013672"></polygon>
                            <path d="M7.35449219,8.73242188 L10.1103516,8.73242188 L10.1103516,25.2675781 L7.35449219,25.2675781 L7.35449219,8.73242188 Z M12.8662109,4.59863281 L15.6220703,4.59863281 L15.6220703,21.1337891 L12.8662109,21.1337891 L12.8662109,4.59863281 Z M18.3779297,8.73242188 L21.1337891,8.73242188 L21.1337891,25.2675781 L18.3779297,25.2675781 L18.3779297,8.73242188 Z M23.8896484,4.59863281 L26.6455078,4.59863281 L26.6455078,21.1337891 L23.8896484,21.1337891 L23.8896484,4.59863281 Z" id="形状" fill="#4AA5A6" opacity="0.200000003"></path>
                            <path d="M7.35449219,11.4882812 L10.1103516,11.4882812 L10.1103516,25.2675781 L7.35449219,25.2675781 L7.35449219,11.4882812 Z M12.8662109,11.4882812 L15.6220703,11.4882812 L15.6220703,21.1337891 L12.8662109,21.1337891 L12.8662109,11.4882812 Z M18.3779297,11.4882812 L21.1337891,11.4882812 L21.1337891,25.2675781 L18.3779297,25.2675781 L18.3779297,11.4882812 Z M23.8896484,11.4882812 L26.6455078,11.4882812 L26.6455078,21.1337891 L23.8896484,21.1337891 L23.8896484,11.4882812 Z" id="形状" fill="#FFFFFF" fill-rule="nonzero"></path>
                        </g>
                    </g>
                </g>
            </g>
        </g>
    </g>
</svg>