<?xml version="1.0" encoding="UTF-8"?>
<svg width="34px" height="34px" viewBox="0 0 34 34" version="1.1" xmlns="http://www.w3.org/2000/svg" xmlns:xlink="http://www.w3.org/1999/xlink">
    <title>矩形</title>
    <g id="页面-2" stroke="none" stroke-width="1" fill="none" fill-rule="evenodd">
        <g id="一级菜单" transform="translate(-1079.000000, -19.000000)">
            <g id="编组-81">
                <g id="编组-80" transform="translate(321.000000, 0.000000)">
                    <g id="编组-75" transform="translate(736.000000, 0.000000)">
                        <g id="编组-65" transform="translate(22.000000, 14.000000)">
                            <g id="导航/统计分析" transform="translate(0.000000, 5.000000)">
                                <rect id="矩形" fill="#000000" fill-rule="nonzero" opacity="0" x="0" y="0" width="34" height="34"></rect>
                                <path d="M3.22070312,17 C3.22070312,24.6100955 9.38990447,30.7792969 17,30.7792969 C24.6100955,30.7792969 30.7792969,24.6100955 30.7792969,17 C30.7792969,9.38990447 24.6100955,3.22070312 17,3.22070312 C9.38990447,3.22070312 3.22070312,9.38990447 3.22070312,17 Z" id="路径" fill="#4AA5A6" opacity="0.200000003"></path>
                                <path d="M8.04345703,17 C8.04345703,21.9465621 12.0534379,25.956543 17,25.956543 C21.9465621,25.956543 25.956543,21.9465621 25.956543,17 C25.956543,12.0534379 21.9465621,8.04345703 17,8.04345703 C12.0534379,8.04345703 8.04345703,12.0534379 8.04345703,17 Z" id="路径" fill="#4AA5A6"></path>
                                <path d="M30.2629883,13.2543555 L17,17 L20.7456445,3.73701172 C22.9420312,4.35525391 25.0152344,5.52832031 26.743457,7.25654297 C28.4716797,8.98476562 29.6447461,11.0579688 30.2629883,13.2543555 L30.2629883,13.2543555 Z" id="路径" fill="#FFFFFF" fill-rule="nonzero"></path>
                                <path d="M30.2224805,13.1129102 C30.2091992,13.0680859 30.195918,13.0235938 30.1823047,12.9787695 C30.1806445,12.9737891 30.1793164,12.9684766 30.1776563,12.9631641 C30.164043,12.9193359 30.1504297,12.8751758 30.1364844,12.8313477 C30.1298437,12.8100977 30.1232031,12.7888477 30.1162305,12.7675977 L30.1072656,12.739707 C30.1032813,12.7274219 30.0992969,12.7151367 30.0953125,12.7031836 C30.0926563,12.6948828 30.09,12.6869141 30.0873438,12.6786133 C30.0733984,12.6361133 30.0591211,12.5936133 30.0445117,12.5511133 C29.996981,12.4112986 29.9471697,12.2722696 29.8950977,12.134082 C29.8824805,12.1005469 29.8695313,12.0670117 29.856582,12.0334766 C29.8310156,11.9664062 29.8044531,11.899668 29.7775586,11.8329297 C29.7642773,11.7997266 29.7506641,11.7665234 29.7367188,11.7333203 C29.6955469,11.6333789 29.6533789,11.5341016 29.6095508,11.4354883 C29.5713672,11.3488281 29.5321875,11.262832 29.4923438,11.177168 C29.4694336,11.1280273 29.4461914,11.0792187 29.4226172,11.0304102 C29.41,11.0038477 29.3970508,10.9772852 29.3841016,10.9507227 C29.3518945,10.8853125 29.3193555,10.8199023 29.2864844,10.7551562 C28.8307593,9.861055 28.2789889,9.01925997 27.6409375,8.24466797 C27.6299805,8.23105469 27.6190234,8.21777344 27.6077344,8.20449219 C27.5878125,8.18058594 27.5675586,8.15667969 27.5476367,8.13277344 C27.4699414,8.04046875 27.390918,7.94882812 27.3102344,7.85818359 C27.2737109,7.81701172 27.2368555,7.77583984 27.199668,7.735 C27.1658008,7.6978125 27.1319336,7.66095703 27.0974023,7.62410156 C26.9825195,7.49992187 26.8643164,7.37740234 26.743457,7.25654297 C26.6225977,7.13568359 26.5000781,7.01748047 26.3758984,6.90259766 C26.339043,6.86806641 26.3021875,6.83419922 26.265,6.80033203 C26.2241602,6.76314453 26.1829883,6.72628906 26.1418164,6.68976562 C26.0511719,6.60908203 25.9595313,6.53005859 25.8672266,6.45236328 C25.8433203,6.43244141 25.8194141,6.4121875 25.7955078,6.39226562 C25.7822266,6.38097656 25.7689453,6.37001953 25.755332,6.3590625 C24.98074,5.7210111 24.138945,5.16924067 23.2448438,4.71351562 C23.1800977,4.68064453 23.1146875,4.64810547 23.0492773,4.61589844 C23.0227148,4.60294922 22.9961523,4.59 22.9695898,4.57738281 C22.9207813,4.55380859 22.8719727,4.53056641 22.822832,4.50765625 C22.737168,4.4678125 22.6511719,4.42863281 22.5645117,4.39044922 C22.4658984,4.34662109 22.3666211,4.30445312 22.2666797,4.26328125 C22.2334766,4.24933594 22.2002734,4.23572266 22.1670703,4.22244141 C22.100332,4.19554687 22.0335938,4.16898437 21.9665234,4.14341797 C21.9329883,4.13046875 21.8994531,4.11751953 21.865918,4.10490234 C21.6657618,4.02946908 21.463829,3.95883688 21.260293,3.89306641 C21.2579634,3.89199288 21.2555098,3.89121219 21.2529883,3.89074219 C21.2460156,3.88841797 21.239375,3.88609375 21.2324023,3.88376953 C21.2111523,3.87679687 21.1899023,3.87015625 21.1686523,3.86351562 C21.1248242,3.84957031 21.0806641,3.83595703 21.0368359,3.82234375 C21.0315234,3.82068359 21.0262109,3.81935547 21.0212305,3.81769531 C20.9764063,3.80408203 20.9319141,3.79080078 20.8870898,3.77751953 C20.8399414,3.76390625 20.792793,3.75029297 20.7456445,3.73701172 L19.4347852,8.37847656 C22.4240625,9.22083984 24.7791602,11.5759375 25.6215234,14.5652148 L30.2629883,13.2543555 C30.249707,13.207207 30.2360938,13.1600586 30.2224805,13.1129102 L30.2224805,13.1129102 Z" id="路径" fill="#4AA5A6"></path>
                            </g>
                        </g>
                    </g>
                </g>
            </g>
        </g>
    </g>
</svg>